<svg version="1.1" xmlns="http://www.w3.org/2000/svg" style="display: block;" viewBox="0 0 1553 2048" width="753" height="993" preserveAspectRatio="none">
<defs>
	<linearGradient id="Gradient1" gradientUnits="userSpaceOnUse" x1="738.339" y1="792.567" x2="723.982" y2="891.607">
		<stop class="stop0" offset="0" stop-opacity="1" stop-color="rgb(45,49,34)"/>
		<stop class="stop1" offset="1" stop-opacity="1" stop-color="rgb(31,52,45)"/>
	</linearGradient>
</defs>
<path transform="translate(0,0)" fill="rgb(255,255,254)" d="M 0 0 L 1553 0 L 1553 2048 L 0 2048 L 0 0 z"/>
<path transform="translate(0,0)" fill="rgb(252,139,22)" d="M 873.644 354.777 L 874.702 354.008 C 887.914 344.29 901.022 323.172 912.798 310.371 C 962.55 256.288 1056.09 152.388 1123.9 128.296 C 1130.16 126.07 1138.25 122.809 1145.02 123.86 C 1151.76 124.906 1157.94 132.558 1161.49 137.939 C 1188.69 179.216 1195 244.278 1200.38 292.491 C 1205.37 337.232 1208.3 382.098 1212.97 426.823 C 1214.16 438.22 1216.52 449.492 1217.82 460.888 C 1228 550.006 1240.7 648.873 1291.49 725.194 C 1303.55 743.323 1322.72 767.38 1343.24 775.863 C 1299.68 858.362 1205.49 925.069 1124.03 967.649 C 1119.86 971.174 1111.62 978.076 1106.88 979.826 C 1096.75 983.563 1061.07 991.759 1056.18 1001.06 C 1047.16 1002.71 1028.81 1007.53 1020.96 1012.14 L 1019.78 1012.52 C 1002.91 1017.76 990.944 1013.09 977.304 1027.45 C 973.155 1031.81 957.26 1033.7 950.456 1034.64 C 944.288 1040.96 927.036 1050.63 919.987 1052.34 C 910.004 1058.46 899.416 1064.75 891.273 1073.27 L 890.208 1074.28 C 880.98 1082.92 870.407 1089.87 861.304 1098.24 C 854.269 1104.7 846.852 1113.46 839.998 1120.02 C 806.04 1152.52 771.687 1194.52 756.438 1239.53 C 751.82 1253.16 748.817 1259.51 747.058 1274.62 C 742.909 1265.68 738.354 1253.89 734.168 1245.7 C 712.675 1194.14 670.473 1142.25 629.301 1105.23 C 619.326 1096.27 604.965 1086.76 595.977 1078.13 L 595.52 1077.68 C 583.223 1069.04 575.19 1063.72 562.066 1056.39 C 557.835 1055.59 548.074 1048.07 544.606 1045.33 C 541.59 1045.07 527.872 1044.02 525.6 1042.4 C 513.392 1033.7 501.241 1037.75 489.28 1032.49 C 486.6 1031.31 487.385 1025.34 483.839 1022.92 C 480.234 1022.08 479.468 1022.67 475.77 1023.87 C 473.794 1020.19 449.447 1012.46 444.354 1010.96 C 440.027 1007.76 398.139 995.435 391.127 992.987 C 378.25 988.491 365.197 980.189 352.959 974.087 C 347.949 971.588 341.316 969.874 337.404 966.707 C 320.492 956.799 302.416 948.103 285.876 937.355 C 235.286 904.467 188.427 866.18 151.168 818.424 C 147.092 812.988 124.362 783.465 131.618 778.133 C 169.287 750.561 195.173 708.863 210.96 665.315 C 262.743 522.467 253.427 367.351 279.829 219.66 C 284.728 192.257 298.969 138.321 324.893 124.305 C 407.732 130.752 528.084 274.01 582.503 332.493 C 589.467 339.977 595.654 353.119 607.019 353.198 C 629.675 353.615 652.15 351.627 674.739 352.095 L 675.463 350.789 C 680.934 340.774 683.493 330.474 688.383 320.265 C 697.851 300.5 710.76 273.037 732.317 264.755 C 743.162 260.589 756.412 272.288 758.651 282.721 C 762.307 299.754 756.694 316.424 751.072 332.43 C 762.107 321.555 781.559 301.216 798.301 301.472 C 821.927 301.832 811.1 338.049 807.558 351.632 C 831.131 354.539 847.18 350.306 873.644 354.777 z"/>
<path transform="translate(0,0)" fill="rgb(42,58,50)" d="M 794.217 605.939 C 798.709 598.338 801.329 588.457 805.285 580.801 C 816.111 559.85 825.771 544.484 842.86 528.396 C 875.752 497.265 919.847 480.776 965.095 482.688 C 1009.91 484.546 1052.2 503.955 1082.83 536.724 C 1118.03 574.407 1129.26 616.73 1126.4 666.695 C 1122.84 728.827 1081.35 783.13 1025.06 807.552 C 998.944 818.884 969.113 822.299 940.352 821.118 C 878.915 809.773 848.652 788.994 812.576 738.766 C 804.66 737.376 785.451 729.824 779.858 732.063 C 766.456 724.833 753.875 723.537 738.798 723.471 C 718.411 723.381 702.265 722.079 683.092 730.148 C 676.131 730.122 664.7 733.233 658.316 736.071 C 638.476 772.415 599.875 802.095 560.248 814.035 C 546.196 818.269 527.825 820.205 512.928 822.121 C 491.591 818.501 475.989 819.463 454.445 811.424 C 365.642 778.289 318.026 680.59 353.768 590.187 C 370.64 547.895 403.597 514.021 445.41 495.995 C 522.707 463.173 614.132 493.821 657.045 565.455 C 664.199 577.398 669.291 590.166 674.742 602.928 C 677.716 601.821 680.706 600.757 683.711 599.738 C 712.319 590.117 766.532 592.257 794.217 605.939 z"/>
<path transform="translate(0,0)" fill="rgb(252,139,22)" d="M 680.148 638.056 C 701.145 628.57 709.444 629.384 731.774 628.735 C 755.125 628.056 767.377 632.87 789.386 638.787 C 790.352 682.245 791.333 699.185 812.576 738.766 C 804.66 737.376 785.451 729.824 779.858 732.063 C 766.456 724.833 753.875 723.537 738.798 723.471 C 718.411 723.381 702.265 722.079 683.092 730.148 C 676.131 730.122 664.7 733.233 658.316 736.071 C 661.117 728.606 665.985 721.981 668.568 715.004 C 677.842 689.952 683.436 664.936 680.148 638.056 z"/>
<path transform="translate(0,0)" fill="rgb(252,139,22)" d="M 953.304 517.484 C 1027.43 514.622 1089.89 572.265 1092.99 646.378 C 1096.08 720.491 1038.63 783.138 964.526 786.46 C 890.096 789.796 827.114 732.039 824.009 657.6 C 820.903 583.161 878.856 520.358 953.304 517.484 z"/>
<path transform="translate(0,0)" fill="rgb(246,248,238)" d="M 915.504 565.284 L 916.626 565.192 C 944.23 563.018 962.625 575.095 978.394 596.58 C 1013.92 644.984 992.546 731.172 926.247 735.425 C 830.659 744.065 812.619 580.678 915.504 565.284 z"/>
<path transform="translate(0,0)" fill="rgb(42,58,50)" d="M 890.878 595.247 C 898.506 594.662 904.096 593.983 911.069 597.754 C 938.766 612.734 940.146 663.052 919.568 684.294 C 914.579 689.444 911.117 690.929 904.56 692.915 C 856.837 697.275 847.881 614.6 890.878 595.247 z"/>
<path transform="translate(0,0)" fill="rgb(252,139,22)" d="M 502.556 517.673 C 576.847 512.77 640.995 569.133 645.692 643.437 C 650.389 717.74 593.849 781.732 519.532 786.224 C 445.506 790.698 381.818 734.427 377.139 660.413 C 372.461 586.399 428.556 522.556 502.556 517.673 z"/>
<path transform="translate(0,0)" fill="rgb(246,248,238)" d="M 541.319 565.248 C 631.449 557.923 654.12 693.644 578.599 730.679 C 572.115 733.858 564.587 734.635 557.458 735.691 C 460.149 746.585 441.068 584.303 541.319 565.248 z"/>
<path transform="translate(0,0)" fill="rgb(42,58,50)" d="M 575.095 594.337 C 579.326 594.199 585.97 597.3 589.253 599.963 C 618.116 623.368 614.146 686.468 572.615 693.901 C 525.995 686.688 524.352 599.833 575.095 594.337 z"/>
<path transform="translate(0,0)" fill="rgb(254,233,168)" d="M 683.092 730.148 C 702.265 722.079 718.411 723.381 738.798 723.471 C 753.875 723.537 766.456 724.833 779.858 732.063 C 785.451 729.824 804.66 737.376 812.576 738.766 C 848.652 788.994 878.915 809.773 940.352 821.118 C 948.114 829.557 955.962 833.674 964.418 840.789 C 985.171 858.254 1007.44 873.204 1027.94 891.031 C 1033.77 896.094 1042.34 900.16 1048.17 905.461 C 1066.03 920.974 1085.56 934.014 1103.48 949.466 C 1106.15 951.768 1110.62 955.848 1113.35 957.684 C 1116.94 960.101 1121.33 965.806 1124.03 967.649 C 1119.86 971.174 1111.62 978.076 1106.88 979.826 C 1096.75 983.563 1061.07 991.759 1056.18 1001.06 C 1047.16 1002.71 1028.81 1007.53 1020.96 1012.14 L 1019.78 1012.52 C 1002.91 1017.76 990.944 1013.09 977.304 1027.45 C 973.155 1031.81 957.26 1033.7 950.456 1034.64 C 944.288 1040.96 927.036 1050.63 919.987 1052.34 C 910.004 1058.46 899.416 1064.75 891.273 1073.27 L 890.208 1074.28 C 880.98 1082.92 870.407 1089.87 861.304 1098.24 C 854.269 1104.7 846.852 1113.46 839.998 1120.02 C 806.04 1152.52 771.687 1194.52 756.438 1239.53 C 751.82 1253.16 748.817 1259.51 747.058 1274.62 C 742.909 1265.68 738.354 1253.89 734.168 1245.7 C 712.675 1194.14 670.473 1142.25 629.301 1105.23 C 619.326 1096.27 604.965 1086.76 595.977 1078.13 L 595.52 1077.68 C 583.223 1069.04 575.19 1063.72 562.066 1056.39 C 557.835 1055.59 548.074 1048.07 544.606 1045.33 C 541.59 1045.07 527.872 1044.02 525.6 1042.4 C 513.392 1033.7 501.241 1037.75 489.28 1032.49 C 486.6 1031.31 487.385 1025.34 483.839 1022.92 C 480.234 1022.08 479.468 1022.67 475.77 1023.87 C 473.794 1020.19 449.447 1012.46 444.354 1010.96 C 440.027 1007.76 398.139 995.435 391.127 992.987 C 378.25 988.491 365.197 980.189 352.959 974.087 C 347.949 971.588 341.316 969.874 337.404 966.707 C 345.06 956.306 364.144 942.625 374.803 933.884 C 408.522 906.235 444.04 880.111 478.171 852.929 C 487.555 845.456 506.8 831.666 512.928 822.121 C 527.825 820.205 546.196 818.269 560.248 814.035 C 599.875 802.095 638.476 772.415 658.316 736.071 C 664.7 733.233 676.131 730.122 683.092 730.148 z"/>
<path transform="translate(0,0)" fill="rgb(89,158,142)" d="M 738.872 1167.53 C 743.114 1164.1 747.772 1160.38 751.681 1156.66 C 782.627 1127.22 820.072 1103.48 857.571 1083.25 C 865.743 1078.84 872.252 1073.32 881.311 1070.4 L 882 1071.83 C 885.476 1072.54 887.748 1072.94 891.273 1073.27 L 890.208 1074.28 C 880.98 1082.92 870.407 1089.87 861.304 1098.24 C 854.269 1104.7 846.852 1113.46 839.998 1120.02 C 806.04 1152.52 771.687 1194.52 756.438 1239.53 C 751.82 1253.16 748.817 1259.51 747.058 1274.62 C 742.909 1265.68 738.354 1253.89 734.168 1245.7 C 712.675 1194.14 670.473 1142.25 629.301 1105.23 C 619.326 1096.27 604.965 1086.76 595.977 1078.13 L 595.52 1077.68 C 595.511 1077.03 595.024 1075.14 594.861 1074.42 C 596.265 1073.16 596.732 1073.23 598.633 1072.48 C 613.322 1080.73 632.343 1089.08 646.199 1097.76 C 678.498 1118 712.186 1140.35 738.872 1167.53 z"/>
<path transform="translate(0,0)" fill="rgb(42,58,50)" d="M 683.092 730.148 C 702.265 722.079 718.411 723.381 738.798 723.471 C 753.875 723.537 766.456 724.833 779.858 732.063 C 787.432 742.084 786.826 755.158 778.876 764.288 C 754.787 791.952 727.737 804.77 696.726 778.856 C 680.294 765.124 666.529 749.744 683.092 730.148 z"/>
<path transform="translate(0,0)" fill="rgb(74,118,89)" d="M 881.311 1070.4 C 890.897 1065.66 910.526 1053.49 919.987 1052.34 C 910.004 1058.46 899.416 1064.75 891.273 1073.27 C 887.748 1072.94 885.476 1072.54 882 1071.83 L 881.311 1070.4 z"/>
<path transform="translate(0,0)" fill="rgb(74,118,89)" d="M 562.066 1056.39 C 568.778 1056.93 592.357 1068.64 598.633 1072.48 C 596.732 1073.23 596.265 1073.16 594.861 1074.42 C 595.024 1075.14 595.511 1077.03 595.52 1077.68 C 583.223 1069.04 575.19 1063.72 562.066 1056.39 z"/>
<path transform="translate(0,0)" fill="url(#Gradient1)" d="M 828.732 804.212 C 833.756 804.862 839.605 806.872 843.071 810.659 C 856.464 825.827 832.034 846.298 821.822 855.716 C 765.964 907.235 683.649 907.17 632.325 848.256 C 626.075 839.007 623.69 833.796 620.834 823.071 C 622.316 817.628 626.763 806.258 633.335 805.297 C 649.375 803.208 658.579 823.977 668.442 833.972 C 708.394 874.647 770.044 860.4 805.74 821.774 C 811.558 815.477 820.48 806.307 828.732 804.212 z"/>
<path transform="translate(0,0)" fill="rgb(246,248,238)" d="M 1020.96 1012.14 C 1028.81 1007.53 1047.16 1002.71 1056.18 1001.06 L 1055.72 1024.21 L 1056.72 1025.31 C 1062.67 1031.8 1071.83 1037.58 1076.76 1042.76 C 1087.28 1053.8 1135.19 1096.62 1138.15 1105.92 C 1137.75 1107.44 1136.24 1112.3 1136.11 1113.32 C 1139.06 1115.61 1143.12 1118.55 1145.82 1120.98 C 1146.17 1126.25 1146.44 1134.13 1147.16 1139.17 C 1161.51 1146.65 1161.89 1147.93 1169.51 1162.37 C 1173.92 1166.27 1179.24 1174.62 1185.29 1178.27 C 1185.39 1178.37 1185.49 1178.47 1185.59 1178.57 C 1190.19 1174.37 1194.71 1170.08 1199.13 1165.68 L 1200.34 1155 C 1215.71 1141.89 1229.32 1126.97 1243.31 1112.44 C 1247 1108.96 1253.78 1107.01 1257.45 1103.7 C 1275.27 1087.57 1293.82 1077.81 1315.78 1068.78 C 1341.04 1058.4 1352.46 1052.35 1380.22 1054.4 C 1380.77 1054.43 1381.33 1054.48 1381.88 1054.54 C 1405.26 1075.78 1401.09 1072.87 1411.21 1103.01 C 1423.1 1138.4 1428.79 1170.31 1430.53 1207.51 C 1430.71 1211.43 1432.31 1246.74 1432.17 1247.26 C 1430.72 1312.81 1428.63 1376.87 1408.9 1439.88 C 1405.97 1449.23 1404.75 1459.64 1401.48 1469 C 1395.25 1489.7 1386.01 1508.81 1377.33 1528.16 C 1357.2 1573.01 1328.63 1611.93 1292.49 1645.31 C 1264.26 1671.38 1229.94 1692.91 1193.77 1706.42 C 1185.59 1709.48 1176.91 1711.6 1169.58 1714.32 C 1165.74 1723.02 1171.5 1728.1 1160.64 1732.83 C 1154.55 1735.49 1149.01 1735.9 1142.99 1737.57 C 1130.07 1741.13 1112.28 1739.81 1100.51 1745.26 C 1082.73 1783.16 1059.36 1817.1 1028.27 1846.13 C 979.411 1890.62 908.404 1923.03 841.954 1924.17 C 805.823 1924.79 782.059 1899.66 772.997 1867.34 C 767.901 1849.16 768.848 1835.44 769.058 1817.03 C 757.988 1816.83 748.247 1817.04 737.174 1817.46 C 750.065 1972.89 593.318 1927.27 513.418 1873.04 C 470.772 1844.09 424.681 1794.52 408.027 1745.09 C 406.193 1744.28 401.581 1739.76 397.752 1739.55 C 387.965 1739.01 335.345 1735.9 329.109 1730.95 C 326.953 1715.12 327.793 1695.25 326.367 1678.88 C 324.836 1661.29 323.448 1643.22 322.701 1625.63 C 321.826 1605.03 323.776 1583.33 321.515 1562.86 C 277.171 1561.67 255.001 1532.9 241.643 1492.39 C 231.753 1462.4 237.589 1431.24 242.525 1400.94 C 266.827 1410.56 295.257 1419.42 317.715 1430.39 C 320.787 1427.8 327.119 1428.56 328.792 1424.18 C 336.166 1404.57 331.301 1380.7 334.569 1360.31 C 337.074 1344.68 340.187 1328.39 342.49 1312.62 C 343.42 1306.26 348.593 1296.91 350.502 1290.46 C 352.323 1284.3 349.512 1280.16 353.519 1274.93 C 358.81 1273.96 373.452 1274.47 379.541 1274.55 C 385.309 1280.33 389.325 1282.1 390.878 1291.12 C 393.123 1304.14 381.026 1298.76 379.145 1308.73 C 377.122 1319.44 378.219 1335.72 375.856 1346.28 C 373.088 1358.63 366.314 1368.61 365.604 1381.42 C 364.728 1428.83 368.926 1468.92 356.267 1515.75 C 350.891 1535.64 356.99 1586.94 356.312 1609.92 C 355.943 1622.45 360.34 1639.35 360.06 1652.81 C 359.705 1669.86 362.678 1687.39 362.511 1704.5 C 383.27 1703.87 402.874 1709.25 423.04 1712.14 C 454.496 1716.64 486.8 1718.14 518.191 1722.39 C 543.302 1725.79 566.983 1729.14 592.479 1728.9 C 602.768 1728.85 614.915 1730.85 625.531 1731.26 C 660.842 1732.52 696.179 1732.93 731.51 1732.51 L 729.478 1398.62 L 729.443 1323.77 C 729.445 1295.12 727.729 1273.81 734.168 1245.7 C 738.354 1253.89 742.909 1265.68 747.058 1274.62 C 748.817 1259.51 751.82 1253.16 756.438 1239.53 C 771.687 1194.52 806.04 1152.52 839.998 1120.02 C 846.852 1113.46 854.269 1104.7 861.304 1098.24 C 870.407 1089.87 880.98 1082.92 890.208 1074.28 L 891.273 1073.27 C 899.416 1064.75 910.004 1058.46 919.987 1052.34 C 927.036 1050.63 944.288 1040.96 950.456 1034.64 C 957.26 1033.7 973.155 1031.81 977.304 1027.45 C 990.944 1013.09 1002.91 1017.76 1019.78 1012.52 L 1020.96 1012.14 z"/>
<path transform="translate(0,0)" fill="rgb(252,139,22)" d="M 1200.34 1155 C 1215.71 1141.89 1229.32 1126.97 1243.31 1112.44 C 1247 1108.96 1253.78 1107.01 1257.45 1103.7 C 1275.27 1087.57 1293.82 1077.81 1315.78 1068.78 C 1341.04 1058.4 1352.46 1052.35 1380.22 1054.4 C 1380.77 1054.43 1381.33 1054.48 1381.88 1054.54 C 1405.26 1075.78 1401.09 1072.87 1411.21 1103.01 C 1423.1 1138.4 1428.79 1170.31 1430.53 1207.51 C 1430.71 1211.43 1432.31 1246.74 1432.17 1247.26 C 1430.72 1312.81 1428.63 1376.87 1408.9 1439.88 C 1405.97 1449.23 1404.75 1459.64 1401.48 1469 C 1395.25 1489.7 1386.01 1508.81 1377.33 1528.16 C 1357.2 1573.01 1328.63 1611.93 1292.49 1645.31 C 1264.26 1671.38 1229.94 1692.91 1193.77 1706.42 C 1185.59 1709.48 1176.91 1711.6 1169.58 1714.32 C 1169.13 1710.24 1169.63 1705.08 1169.75 1700.83 C 1171.2 1646.02 1171.56 1590.85 1169.56 1536.06 C 1168.3 1501.67 1164.81 1468.01 1163.89 1433.55 C 1177.72 1426.79 1188.95 1422.19 1203.52 1417.4 C 1228.78 1409.09 1255.04 1396.02 1280.79 1389.38 C 1255.94 1318.24 1223.41 1250.15 1187.54 1183.99 C 1185.6 1181.61 1186.19 1182.04 1185.59 1178.57 C 1190.19 1174.37 1194.71 1170.08 1199.13 1165.68 L 1200.34 1155 z"/>
<path transform="translate(0,0)" fill="rgb(254,233,168)" d="M 1200.34 1155 C 1215.71 1141.89 1229.32 1126.97 1243.31 1112.44 C 1247 1108.96 1253.78 1107.01 1257.45 1103.7 C 1275.27 1087.57 1293.82 1077.81 1315.78 1068.78 C 1341.04 1058.4 1352.46 1052.35 1380.22 1054.4 C 1380.77 1054.43 1381.33 1054.48 1381.88 1054.54 C 1405.26 1075.78 1401.09 1072.87 1411.21 1103.01 C 1423.1 1138.4 1428.79 1170.31 1430.53 1207.51 C 1430.71 1211.43 1432.31 1246.74 1432.17 1247.26 C 1422.07 1251.03 1404.82 1272.98 1390.12 1275.89 C 1383.36 1278.38 1372.52 1285.21 1365.71 1285.53 C 1321.08 1287.66 1300.42 1227.38 1297.04 1191.95 C 1270.82 1205.03 1225.34 1220.62 1202.22 1197.11 C 1198.03 1192.85 1191.84 1184.93 1187.54 1183.99 C 1185.6 1181.61 1186.19 1182.04 1185.59 1178.57 C 1190.19 1174.37 1194.71 1170.08 1199.13 1165.68 L 1200.34 1155 z"/>
<path transform="translate(0,0)" fill="rgb(252,139,22)" d="M 408.027 1745.09 C 424.928 1745.14 444.897 1750.51 461.838 1752.3 C 481.582 1754.38 501.25 1756.07 521.046 1757.48 C 619.121 1768.47 718.317 1769.47 816.917 1768.95 C 838.156 1768.84 859.377 1766.92 880.578 1765.65 C 932.853 1763.97 984.352 1757.9 1036.31 1752.66 C 1047.42 1751.54 1058.59 1750.77 1069.63 1749.1 C 1078.17 1747.97 1092.61 1745.13 1100.51 1745.26 C 1082.73 1783.16 1059.36 1817.1 1028.27 1846.13 C 979.411 1890.62 908.404 1923.03 841.954 1924.17 C 805.823 1924.79 782.059 1899.66 772.997 1867.34 C 767.901 1849.16 768.848 1835.44 769.058 1817.03 C 757.988 1816.83 748.247 1817.04 737.174 1817.46 C 750.065 1972.89 593.318 1927.27 513.418 1873.04 C 470.772 1844.09 424.681 1794.52 408.027 1745.09 z"/>
<path transform="translate(0,0)" fill="rgb(89,158,142)" d="M 996.857 1245.81 C 996.828 1249.41 996.305 1253.12 998.086 1256.02 C 1003.83 1258.86 1012.21 1262.08 1017.66 1265.56 C 1059.65 1292.33 1072.05 1343.31 1051.81 1387.58 C 1042.94 1406.99 1018.26 1427.16 997.93 1432.96 C 973.952 1439.76 946.453 1437.81 923.774 1425.72 C 880.034 1402.41 864.646 1344.41 886.979 1301.09 C 896.055 1283.48 920.906 1261.58 939.955 1256.63 C 949.598 1254.2 951.492 1254.86 960.344 1253.59 L 961.466 1251.23 L 962.099 1252.9 C 964.714 1254.4 987.594 1254.71 995.648 1256.21 C 995.919 1252.37 996.286 1249.58 996.857 1245.81 z"/>
<path transform="translate(0,0)" fill="rgb(42,58,50)" d="M 965.993 1292.66 C 994.906 1290.9 1019.78 1312.89 1021.58 1341.8 C 1023.37 1370.72 1001.42 1395.62 972.511 1397.46 C 943.544 1399.3 918.577 1377.29 916.775 1348.32 C 914.974 1319.35 937.021 1294.42 965.993 1292.66 z"/>
<path transform="translate(0,0)" fill="rgb(252,139,22)" d="M 242.525 1400.94 C 266.827 1410.56 295.257 1419.42 317.715 1430.39 C 321.398 1432.47 324.993 1433.96 327.25 1437.38 C 324.005 1455.58 326.788 1457.24 325.482 1471.17 C 322.519 1502.79 322.216 1531.19 321.515 1562.86 C 277.171 1561.67 255.001 1532.9 241.643 1492.39 C 231.753 1462.4 237.589 1431.24 242.525 1400.94 z"/>
<path transform="translate(0,0)" fill="rgb(42,58,50)" d="M 1020.96 1012.14 C 1028.81 1007.53 1047.16 1002.71 1056.18 1001.06 L 1055.72 1024.21 C 1053.58 1047.17 1047.83 1063.57 1041.96 1085.61 C 1027.77 1138.84 1002.51 1190.82 996.857 1245.81 C 996.286 1249.58 995.919 1252.37 995.648 1256.21 C 987.594 1254.71 964.714 1254.4 962.099 1252.9 L 961.466 1251.23 C 963.893 1226.2 968.791 1200.41 975.959 1176.43 C 989.387 1131.5 1021.54 1056.77 1020.96 1012.14 z"/>
<path transform="translate(0,0)" fill="rgb(222,225,218)" d="M 1155.85 1151.11 C 1147.23 1145.43 1143.23 1141.96 1138.94 1132.37 C 1137.55 1129.25 1134.99 1121.4 1139.48 1119.61 L 1140.74 1123.13 C 1141.78 1121.29 1141.38 1121.72 1141.41 1119.24 C 1139.47 1117.65 1137.76 1116.16 1135.9 1114.48 L 1136.11 1113.32 C 1139.06 1115.61 1143.12 1118.55 1145.82 1120.98 C 1146.17 1126.25 1146.44 1134.13 1147.16 1139.17 C 1161.51 1146.65 1161.89 1147.93 1169.51 1162.37 C 1165.24 1160.02 1167.44 1158.95 1163.26 1158.68 C 1158.69 1165.58 1163.74 1164.65 1161.79 1168.97 C 1160.85 1164.15 1157.62 1156 1155.85 1151.11 z"/>
<path transform="translate(0,0)" fill="rgb(222,225,218)" d="M 1020.53 1479.33 L 1029.7 1479 C 1029.81 1489.96 1030.24 1499.25 1031.01 1510.19 C 1020.72 1511.1 1008.95 1514.34 999.078 1514.85 C 954.665 1517.15 909.492 1527.88 865.456 1530.06 C 865.162 1530.19 864.007 1530.05 863.605 1530.03 C 859.055 1522.72 864.957 1508.26 856.033 1498.47 C 858.026 1496.82 926.288 1490.92 937.032 1488.67 C 964.436 1482.92 992.404 1484.75 1020.53 1479.33 z"/>
<path transform="translate(0,0)" fill="rgb(42,58,50)" d="M 444.354 1010.96 C 449.447 1012.46 473.794 1020.19 475.77 1023.87 C 448.771 1104.57 505.625 1177.45 572.075 1215.99 C 589.555 1226.13 653.922 1249.19 608.056 1271.27 C 582.101 1264.71 550.284 1241.8 526.738 1228.3 C 525.593 1239.98 520.425 1255.24 518.506 1268.59 C 521.683 1272.43 524.763 1276.35 527.742 1280.34 C 537.904 1294.01 545.878 1309.18 551.378 1325.31 C 562.166 1357.08 568.835 1425.95 566.172 1461.13 C 564.977 1473.9 556.248 1486.41 545.289 1493.15 C 537.086 1498.19 513.383 1513.98 503.595 1511.14 C 489.89 1507.17 484.23 1496.42 487.577 1482.56 C 492.712 1461.3 515.971 1471.68 527.022 1464.91 C 529.993 1460.73 531.633 1455.26 531.849 1450.07 C 532.426 1436.24 531.689 1421.23 530.361 1407.35 C 526.971 1371.9 522.978 1329.65 500.131 1300.81 C 495.213 1294.6 489.062 1291.97 481.521 1291.5 C 475.81 1291.15 468.055 1294.24 464.481 1298.49 C 431.579 1337.62 430.967 1413.55 430.487 1459.46 C 441.712 1469.29 448.617 1467.04 463.657 1467.53 C 476.951 1479.58 477.907 1484.92 473.61 1502.27 C 459.668 1515.49 450.384 1511.34 434.862 1503.72 C 417.626 1495.26 397.034 1479.83 395.682 1459.03 C 395.033 1449.04 395.456 1435.07 396.196 1424.86 C 400.031 1371.97 404.753 1302.53 448.715 1266.23 C 459.365 1257.44 474.719 1255.7 487.942 1255.02 C 488.162 1239.19 494.047 1218.58 497.289 1202.22 C 471.058 1174.66 464.762 1167.05 448.148 1131.01 C 432.539 1097.16 430.162 1045.68 444.354 1010.96 z"/>
<path transform="translate(0,0)" fill="rgb(222,225,218)" d="M 381.258 1081.93 C 382.343 1087.65 365.412 1101.76 361.704 1107.25 C 370.234 1107.59 382.957 1090.82 390.449 1084.18 C 390.415 1086.05 372.302 1106.29 370.222 1107.44 C 352.119 1116.9 355.165 1128.61 347.137 1143.47 C 329.651 1175.83 306.584 1204.34 290.813 1237.6 C 284.223 1251.5 279.174 1257.24 274.762 1273.34 C 270.897 1287.44 263.088 1303.2 258.399 1317.26 C 251.781 1333.76 241.057 1345.89 236.795 1363.79 C 233.891 1370.72 232.885 1376.4 232.309 1383.8 C 227.103 1389.94 222.259 1392.89 213.054 1388.64 C 211.102 1387.74 210.905 1385.6 210.657 1383.7 C 212.597 1379.79 212.066 1380.97 216.296 1378.27 C 220.449 1358.61 228.08 1341.96 235.698 1323.48 C 243.247 1305.16 255.65 1289.81 264.828 1272.37 C 272.616 1257.58 277.418 1241.74 284.531 1226.76 C 287.17 1221.2 296.486 1214.72 299.034 1208.26 C 304.488 1198.7 306.96 1179.18 312.114 1170.62 C 320.035 1157.46 331.319 1141.4 339.596 1128.22 C 350.565 1110.75 369.065 1099.48 381.258 1081.93 z"/>
<path transform="translate(0,0)" fill="rgb(89,158,142)" d="M 678.25 1515.09 C 691.293 1513.87 695.736 1517.67 702.742 1528.02 C 703.65 1544.39 703.143 1553.44 687.092 1561.39 C 673.729 1563.35 667.396 1553.13 662.552 1542.67 C 662.89 1540.42 663.276 1538.18 663.709 1535.95 C 665.936 1524.67 669.116 1521.23 678.25 1515.09 z"/>
<path transform="translate(0,0)" fill="rgb(89,158,142)" d="M 681.406 1384.04 C 684.863 1384.31 687.211 1384.98 690.382 1386.55 C 695.952 1389.26 700.157 1394.15 702.004 1400.06 C 706.637 1414.48 700.158 1426.79 685.962 1431.36 C 657.285 1428.81 655.316 1393.43 681.406 1384.04 z"/>
<path transform="translate(0,0)" fill="rgb(222,225,218)" d="M 408.894 1049.37 L 409.153 1049.53 C 408.424 1052.36 410.749 1053.51 411.361 1057.07 C 409.832 1059.64 409.722 1060.96 407.527 1061.89 C 404.055 1061.64 400.851 1061.04 398.528 1058.48 L 398.756 1056.48 C 401.258 1052.94 405.052 1051.38 408.894 1049.37 z"/>
</svg>