<svg xmlns="http://www.w3.org/2000/svg" height="1707" preserveAspectRatio="none" style="display: block;" version="1.1" viewBox="0 0 1229 2048" width="1024">
<defs>
	<linearGradient gradientUnits="userSpaceOnUse" id="Gradient1" x1="1228.95" x2="1035.6" y1="944.611" y2="931.533">
		<stop class="stop0" offset="0" stop-color="rgb(181,132,5)" stop-opacity="1"></stop>
		<stop class="stop1" offset="1" stop-color="rgb(216,188,112)" stop-opacity="1"></stop>
	</linearGradient>
	<linearGradient gradientUnits="userSpaceOnUse" id="Gradient2" x1="1022.95" x2="546.246" y1="848.569" y2="1026.76">
		<stop class="stop0" offset="0" stop-color="rgb(175,124,0)" stop-opacity="1"></stop>
		<stop class="stop1" offset="1" stop-color="rgb(200,165,73)" stop-opacity="1"></stop>
	</linearGradient>
	<linearGradient gradientUnits="userSpaceOnUse" id="Gradient3" x1="1251.69" x2="844.609" y1="640.253" y2="714.541">
		<stop class="stop0" offset="0" stop-color="rgb(180,130,0)" stop-opacity="1"></stop>
		<stop class="stop1" offset="1" stop-color="rgb(198,164,65)" stop-opacity="1"></stop>
	</linearGradient>
	<linearGradient gradientUnits="userSpaceOnUse" id="Gradient4" x1="546.628" x2="154.739" y1="632.316" y2="772.986">
		<stop class="stop0" offset="0" stop-color="rgb(173,122,0)" stop-opacity="1"></stop>
		<stop class="stop1" offset="1" stop-color="rgb(199,162,60)" stop-opacity="1"></stop>
	</linearGradient>
	<linearGradient gradientUnits="userSpaceOnUse" id="Gradient5" x1="994.322" x2="512.71" y1="620.383" y2="732.588">
		<stop class="stop0" offset="0" stop-color="rgb(174,124,0)" stop-opacity="1"></stop>
		<stop class="stop1" offset="1" stop-color="rgb(204,174,83)" stop-opacity="1"></stop>
	</linearGradient>
	<linearGradient gradientUnits="userSpaceOnUse" id="Gradient6" x1="1056.16" x2="1065.3" y1="1211.26" y2="1300.07">
		<stop class="stop0" offset="0" stop-color="rgb(234,189,86)" stop-opacity="1"></stop>
		<stop class="stop1" offset="1" stop-color="rgb(255,232,130)" stop-opacity="1"></stop>
	</linearGradient>
	<linearGradient gradientUnits="userSpaceOnUse" id="Gradient7" x1="101.313" x2="109.381" y1="1238.75" y2="1239.08">
		<stop class="stop0" offset="0" stop-color="rgb(58,0,0)" stop-opacity="1"></stop>
		<stop class="stop1" offset="1" stop-color="rgb(106,28,4)" stop-opacity="1"></stop>
	</linearGradient>
	<linearGradient gradientUnits="userSpaceOnUse" id="Gradient8" x1="78.9486" x2="63.1053" y1="1262.8" y2="1300.07">
		<stop class="stop0" offset="0" stop-color="rgb(245,187,73)" stop-opacity="1"></stop>
		<stop class="stop1" offset="1" stop-color="rgb(255,218,103)" stop-opacity="1"></stop>
	</linearGradient>
</defs>
<path d="M 0 0 L 144.001 0 L 155.551 0 L 315.413 0 L 325.683 0 L 457.402 0 L 466.703 0 L 607.991 0 L 616.65 0 L 754.416 0 L 764.446 0 L 901.699 0 L 912.593 0 L 1073.61 0 L 1084.86 0 L 1229 0 L 1229 60.0727 L 1229 75.5364 L 1229 271.907 L 1229 285.187 L 1229 436.423 L 1229 445.903 L 1229 491.826 L 1229 803.068 L 1229 867.39 L 1229 1013.3 L 1229 1040.88 L 1229 1051.16 L 1229 1138 L 1229 1152.11 L 1229 1303.2 L 1229 1314.48 L 1229 1404.2 L 1229 1411.96 L 1229 1503.83 L 1229 1512.84 L 1229 1599.98 L 1229 1610.89 L 1229 1697.04 L 1229 1706.96 L 1229 1792.04 L 1229 1802.7 L 1229 1888.05 L 1229 2048 L 0 2048 L 0 1888.2 L 0 1800.18 L 0 1791.14 L 0 1707.16 L 0 1697 L 0 1610.07 L 0 1599.71 L 0 1512.25 L 0 1503.45 L 0 1412.04 L 0 1404.91 L 0 1316.94 L 0 1307.88 L 0 1242 L 0 1231.69 L 0 1151.92 L 0 1136.77 L 0 1051.1 L 0 1041.79 L 0 1014.4 L 0 903.929 L 0 801.71 L 0 493.066 L 0 443.244 L 0 432.644 L 0 286.583 L 0 273.283 L 0 76.759 L 0 62.7666 L 0 0 z" fill="rgb(26,10,0)" transform="translate(0,0)"></path>
<path d="M 658.227 1039.03 C 695.821 1038.03 733.873 1038.17 771.512 1038.01 C 775.502 1037.99 776.422 1038 777.914 1041.89 C 778.551 1044.13 780.008 1048.76 780.361 1050.8 C 869.014 1051.76 958.041 1050.63 1046.71 1051 L 1149.81 1051.31 C 1174.08 1051.51 1204.91 1052.34 1229 1051.16 L 1229 1138 L 1229 1152.11 L 1229 1303.2 L 1229 1314.48 L 1229 1404.2 L 1229 1411.96 L 1229 1503.83 L 1229 1512.84 L 1229 1599.98 L 1229 1610.89 L 1229 1697.04 L 1229 1706.96 L 1229 1792.04 L 1229 1802.7 L 1229 1888.05 L 1229 2048 L 0 2048 L 0 1888.2 L 0 1800.18 L 0 1791.14 L 0 1707.16 L 0 1697 L 0 1610.07 L 0 1599.71 L 0 1512.25 L 0 1503.45 L 0 1412.04 L 0 1404.91 L 0 1316.94 L 0 1307.88 L 0 1242 L 0 1231.69 L 0 1151.92 L 0 1136.77 L 0 1051.1 L 447.207 1052.02 L 449.78 1041.55 C 450.067 1041.04 450.159 1040.8 450.608 1040.35 C 453.184 1037.74 557.378 1038.88 569.037 1038.85 C 598.767 1038.65 628.498 1038.71 658.227 1039.03 z" fill="rgb(26,107,58)" transform="translate(0,0)"></path>
<path d="M 569.037 1038.85 C 598.767 1038.65 628.498 1038.71 658.227 1039.03 C 664.245 1066.41 674.222 1097.42 679.346 1123.94 C 680.621 1129.02 682.267 1134.94 683.196 1140.03 C 690.935 1163.46 691.92 1176.16 697.496 1197.98 L 698.112 1197.57 C 701.62 1187.77 703.128 1183.77 700.035 1174.19 C 703.987 1174.51 707.814 1175.17 711.537 1173.93 L 711.261 1174.49 C 709.957 1177.05 709.359 1177.78 707.544 1179.99 L 707.683 1183.22 C 707.906 1187.55 708.037 1192.5 708.64 1196.73 C 719.857 1202.48 727.403 1216.34 725.115 1228.73 C 725.103 1228.78 726.572 1245.01 726.684 1246.75 C 725.653 1258.79 724.707 1266.37 722.178 1278.12 C 721.095 1283.15 717.484 1297.19 717.05 1301.5 C 717.084 1307.44 717.142 1309.34 712.882 1313.69 C 712.499 1314.08 712.109 1314.47 711.714 1314.85 C 711.694 1321.68 722.239 1364.35 724.312 1373.82 C 737.674 1434.78 753.997 1495.04 768.952 1555.56 L 829.776 1807.46 C 836.086 1833.31 842.233 1863.7 849.022 1888.71 L 379.39 1888.91 C 427.707 1698.48 474.157 1507.59 518.735 1316.25 L 516.537 1315.07 C 510.201 1315.1 510.312 1307.29 510.332 1302.4 C 510.422 1279.98 498.713 1245.41 503.266 1224.31 C 503.67 1210.36 511.189 1202.04 520.302 1193.09 C 519.374 1186.22 518.995 1180.51 518.584 1173.61 C 516.144 1170.33 516.382 1170.01 516.548 1166.63 C 519.639 1161.04 523.002 1160.87 528.188 1163.51 C 530.76 1167.66 529.994 1166.57 530.007 1172.03 L 528.33 1173.94 C 527.308 1182.94 526.275 1187.93 528.274 1196.86 L 530.471 1198.11 C 532.664 1191.83 536.483 1173.16 538.198 1165.63 C 540.358 1161.77 544.669 1138.04 547.697 1130.29 L 547.842 1128.74 C 549.193 1118.66 554.632 1098.82 557.213 1088.62 C 561.432 1071.94 565.036 1055.51 569.037 1038.85 z" fill="rgb(107,0,0)" transform="translate(0,0)"></path>
<path d="M 700.035 1174.19 C 703.987 1174.51 707.814 1175.17 711.537 1173.93 L 711.261 1174.49 C 709.957 1177.05 709.359 1177.78 707.544 1179.99 L 707.683 1183.22 C 707.906 1187.55 708.037 1192.5 708.64 1196.73 C 719.857 1202.48 727.403 1216.34 725.115 1228.73 C 725.103 1228.78 726.572 1245.01 726.684 1246.75 C 725.653 1258.79 724.707 1266.37 722.178 1278.12 C 721.095 1283.15 717.484 1297.19 717.05 1301.5 C 717.084 1307.44 717.142 1309.34 712.882 1313.69 C 712.499 1314.08 712.109 1314.47 711.714 1314.85 C 708.58 1312.51 708.454 1311.86 707.462 1308.03 L 709.519 1301.06 C 712.915 1290.54 715.395 1274.61 717.501 1263.3 C 714.574 1259.83 712.41 1256.34 707.629 1256.21 C 705.022 1258.43 705.891 1257.42 704.561 1261.19 L 701.071 1261.95 C 699.934 1265.76 700.967 1268.88 700.723 1272.39 C 700.292 1278.6 699.29 1300.12 696.76 1305.16 C 696.714 1307.08 696.596 1309.36 696.661 1311.25 C 694.791 1313.84 695.755 1312.99 692.944 1314.31 L 690.758 1313.27 C 688.145 1309.82 688.077 1308.57 687.161 1304.37 C 688.149 1293.87 681.56 1264.49 680.326 1252.2 C 679.618 1245.15 681.052 1231.62 680.362 1228.12 C 678.214 1227.23 678.077 1227.08 676.158 1225.7 C 673.369 1216.34 684.119 1199.04 696.512 1199.1 L 697.496 1197.98 L 698.112 1197.57 C 701.62 1187.77 703.128 1183.77 700.035 1174.19 z" fill="rgb(245,220,150)" transform="translate(0,0)"></path>
<path d="M 693.402 1258.87 C 696.531 1256.92 695.284 1257.06 698.347 1257.56 C 699.377 1259.05 700.353 1260.29 701.071 1261.95 C 699.934 1265.76 700.967 1268.88 700.723 1272.39 C 700.292 1278.6 699.29 1300.12 696.76 1305.16 L 694.914 1300.34 C 693.818 1293.83 692.738 1287.81 692.166 1281.21 C 691.849 1279.22 691.547 1277.23 691.26 1275.24 C 690.219 1267.96 689.121 1264.56 693.402 1258.87 z" fill="rgb(107,0,0)" transform="translate(0,0)"></path>
<path d="M 697.496 1197.98 L 698.112 1197.57 C 701.673 1202.47 701.855 1205.76 703.019 1211.76 C 700.444 1212.34 696.533 1213.36 694.043 1213.72 L 696.512 1199.1 L 697.496 1197.98 z" fill="rgb(26,10,0)" transform="translate(0,0)"></path>
<path d="M 518.584 1173.61 C 516.144 1170.33 516.382 1170.01 516.548 1166.63 C 519.639 1161.04 523.002 1160.87 528.188 1163.51 C 530.76 1167.66 529.994 1166.57 530.007 1172.03 L 528.33 1173.94 C 527.308 1182.94 526.275 1187.93 528.274 1196.86 L 530.471 1198.11 L 530.859 1199.66 C 544.287 1198.92 548.078 1213.71 551.152 1224.18 L 549.167 1227.63 L 545.688 1226.23 C 549.504 1256.64 542.083 1278.9 540.296 1307.07 C 539.295 1310.13 538.518 1311.79 536.037 1313.52 L 534.415 1312.57 C 531.27 1305.72 532.056 1303.98 533.494 1296.66 C 535.348 1287.68 541.928 1262.37 532.082 1257.85 L 529.922 1258.55 C 528.928 1260.87 528.665 1261.21 528.518 1263.68 C 527.365 1260.66 526.623 1258.27 525.722 1255.21 L 524.666 1255.04 L 523.657 1260.3 L 522.37 1261.02 C 519.529 1258.86 519.106 1257.67 516.249 1257.92 C 506.801 1268.32 522.838 1299.31 516.537 1315.07 C 510.201 1315.1 510.312 1307.29 510.332 1302.4 C 510.422 1279.98 498.713 1245.41 503.266 1224.31 C 503.67 1210.36 511.189 1202.04 520.302 1193.09 C 519.374 1186.22 518.995 1180.51 518.584 1173.61 z" fill="rgb(245,220,150)" transform="translate(0,0)"></path>
<path d="M 528.274 1196.86 L 530.471 1198.11 L 530.859 1199.66 L 530.872 1200.66 C 530.32 1204.9 530.751 1209.85 528.723 1212.45 C 526.467 1212.7 526.407 1212.86 524.226 1211.99 C 525.73 1207.19 526.546 1202.19 528.274 1196.86 z" fill="rgb(26,10,0)" transform="translate(0,0)"></path>
<path d="M 701.071 1261.95 L 704.561 1261.19 C 707.036 1266.31 704.994 1296.39 704.745 1304.1 L 696.661 1311.25 C 696.596 1309.36 696.714 1307.08 696.76 1305.16 C 699.29 1300.12 700.292 1278.6 700.723 1272.39 C 700.967 1268.88 699.934 1265.76 701.071 1261.95 z" fill="rgb(26,10,0)" transform="translate(0,0)"></path>
<path d="M 568.842 1239.94 L 569.829 1240.2 C 571.188 1255.51 571.435 1294.07 567.143 1308.24 C 565.498 1294.41 565.709 1258.23 568.704 1244.67 L 568.842 1239.94 z" fill="rgb(139,69,19)" transform="translate(0,0)"></path>
<path d="M 570.462 1221.86 C 574.746 1224.51 576.78 1224.59 578.076 1228.42 C 577.248 1231.94 572.353 1237.13 569.829 1240.2 L 568.842 1239.94 C 567.053 1234.75 564.06 1235.01 561.657 1228.54 C 563.895 1225.86 564.998 1224.12 568.266 1222.74 L 570.462 1221.86 z" fill="rgb(232,69,7)" transform="translate(0,0)"></path>
<path d="M 569.334 1115.11 C 568.847 1127.61 571.202 1164.93 569.37 1173.67 C 566.862 1168.01 567.458 1128.58 567.436 1119.91 C 560.808 1123.81 554.917 1127.56 547.697 1130.29 L 547.842 1128.74 C 555.972 1125.35 560.402 1119.16 569.334 1115.11 z" fill="rgb(26,10,0)" transform="translate(0,0)"></path>
<path d="M 567.99 1193.37 C 565.596 1191.27 564.245 1190.23 562.364 1187.58 C 562.94 1182.58 565.97 1181.36 568.738 1175.25 L 569.088 1174.47 L 569.402 1175.54 C 570.78 1180.18 571.708 1182.27 575.39 1185.73 C 573.191 1190.76 571.626 1191.35 569.902 1194.8 L 567.99 1193.37 z" fill="rgb(236,26,1)" transform="translate(0,0)"></path>
<path d="M 551.152 1224.18 C 554.884 1225.94 559.571 1226.51 561.657 1228.54 C 564.06 1235.01 567.053 1234.75 568.842 1239.94 L 568.704 1244.67 C 560.125 1240.98 568.613 1230.05 549.167 1227.63 L 551.152 1224.18 z" fill="rgb(26,10,0)" transform="translate(0,0)"></path>
<path d="M 567.99 1193.37 L 569.902 1194.8 C 569.954 1200.38 569.313 1217.94 570.462 1221.86 L 568.266 1222.74 C 568.732 1219.01 568.02 1198.55 567.99 1193.37 z" fill="rgb(139,69,19)" transform="translate(0,0)"></path>
<path d="M 608 1179.66 L 614.808 1180.74 C 614.901 1182.75 615.233 1190.53 615.99 1191.69 C 625.722 1206.61 633.591 1204.77 633.375 1224.98 C 640.966 1232.42 630.675 1286.83 629.729 1299.36 C 630.665 1304.2 631.76 1314.81 624.07 1313.47 C 620.248 1309.22 622.057 1304.6 623.027 1299.37 C 623.58 1290.13 627.308 1264.35 621.216 1258.02 C 618.046 1258.03 617.617 1258.75 614.791 1261.57 L 614.261 1262.11 C 609.947 1259.38 613.427 1257.59 608.498 1257.64 C 605.006 1259.99 604.455 1260.67 601.733 1263.77 C 602.603 1275.23 604.081 1289.01 603.857 1300.24 C 604.403 1304.31 605.408 1308.13 603.734 1311.77 L 601.803 1313.61 C 595.279 1313.26 595.85 1306.46 596.766 1301.59 C 597.19 1290.43 593.725 1265.9 593.891 1253.13 C 593.92 1250.89 590.789 1249.16 590.546 1245.31 C 589.959 1236.01 592.105 1230.48 593.462 1222.62 L 593.56 1222.03 C 593.292 1210.22 599.376 1204.02 606.532 1195.66 L 608 1179.66 z" fill="rgb(245,220,150)" transform="translate(0,0)"></path>
<path d="M 608.844 1214.53 C 609.152 1211.19 609.375 1203.68 612.547 1202.1 C 614.685 1204.84 614.941 1210.31 615.441 1214 L 608.844 1214.53 z" fill="rgb(26,10,0)" transform="translate(0,0)"></path>
<path d="M 655.472 1096.33 C 664.02 1119.1 667.735 1114.69 677.091 1130.48 L 677.009 1130.77 L 676.119 1130.99 C 670.214 1125.68 664.693 1119.04 660.106 1112.56 L 659.142 1115.01 C 659.861 1121.3 664.696 1126.43 668.64 1131.31 L 667.848 1131.54 L 661.094 1127.25 C 659.935 1125.99 659.396 1125.38 658.068 1124.26 C 656.61 1126.05 658.584 1171.83 657.133 1179.03 L 655.434 1174.12 C 654.347 1149.15 657.186 1119.16 655.472 1096.33 z" fill="rgb(26,10,0)" transform="translate(0,0)"></path>
<path d="M 606.315 1176.46 C 605.793 1169.65 604.494 1163.96 612.595 1162.14 C 620.51 1164.56 619.191 1170.13 616.959 1176.36 L 614.808 1180.74 L 608 1179.66 L 606.315 1176.46 z" fill="rgb(245,220,150)" transform="translate(0,0)"></path>
<path d="M 606.315 1176.46 C 610.339 1176.18 612.929 1175.89 616.959 1176.36 L 614.808 1180.74 L 608 1179.66 L 606.315 1176.46 z" fill="rgb(248,242,221)" transform="translate(0,0)"></path>
<path d="M 648.5 1232 C 646.182 1227.49 646.589 1229.36 647.669 1223.99 C 653.405 1217.42 658.617 1224.03 662.832 1228.46 C 658.47 1232.89 656.581 1234.87 653.023 1239.9 C 651.707 1235.75 651.23 1235.26 648.5 1232 z" fill="rgb(232,69,7)" transform="translate(0,0)"></path>
<path d="M 655.434 1174.12 L 657.133 1179.03 C 657.773 1181.63 660.211 1183.68 662.159 1185.75 L 655.64 1195.57 C 652.508 1192.5 646.866 1189.78 647.252 1185.49 C 651.308 1181.25 652.401 1179.22 655.434 1174.12 z" fill="rgb(236,26,1)" transform="translate(0,0)"></path>
<path d="M 677.766 1140.05 C 677.112 1138.49 676.855 1138.42 677.238 1136.82 C 679.768 1137.08 680.295 1138.22 682.531 1140.14 C 680.703 1140.21 679.552 1140.4 677.766 1140.05 z" fill="rgb(26,10,0)" transform="translate(0,0)"></path>
<path d="M 0 1051.1 L 447.207 1052.02 C 439.595 1080.65 431.804 1109.24 423.835 1137.78 C 422.809 1141.98 421.157 1147.96 420.52 1152.09 C 416.532 1165.8 407.502 1195.74 419.175 1207.54 C 421.497 1206.95 420.941 1206.8 422.782 1204.26 C 423.196 1204.81 423.527 1205.11 423.725 1205.72 C 421.272 1211.32 418.26 1217.31 417.367 1223.3 C 413.633 1229.35 411.228 1230.33 413.085 1237.55 C 413.938 1242.36 414.761 1247.66 415.853 1252.38 C 422.637 1258.31 421.223 1260.17 420.936 1268.79 L 419.212 1268.2 L 417.181 1272.3 L 408.657 1306.9 C 407.878 1309.32 406.033 1314.6 405.739 1316.82 L 388.644 1374.45 C 386.149 1382.95 382.54 1396.89 379.719 1404.72 L 377.542 1412.21 C 252.163 1413.44 125.474 1412.03 0 1412.04 L 0 1404.91 L 0 1316.94 L 0 1307.88 L 0 1242 L 0 1231.69 L 0 1151.92 L 0 1136.77 L 0 1051.1 z" fill="rgb(26,10,0)" transform="translate(0,0)"></path>
<path d="M 311.61 1307.02 C 318.107 1306.62 327.25 1308.66 332.594 1305.87 C 334.392 1304.94 334.46 1301.95 334.921 1299.63 C 334.753 1304.2 334.343 1306.45 336.421 1310.52 L 338.157 1311.62 C 341.018 1310.79 341.083 1310.39 342.964 1307.85 C 347.345 1307.88 353.609 1308.11 357.837 1307.85 C 359.661 1310.93 359.843 1311.2 362.655 1312.13 L 364.438 1311.18 C 366.751 1308.05 366.469 1306.53 366.495 1302.73 L 366.924 1302.8 L 367.437 1305.99 C 371.466 1308.48 379.337 1306.96 384.267 1306.89 C 389.9 1307.4 392.727 1307.28 398.416 1306.96 L 408.657 1306.9 C 407.878 1309.32 406.033 1314.6 405.739 1316.82 L 388.644 1374.45 C 386.149 1382.95 382.54 1396.89 379.719 1404.72 L 377.542 1412.21 C 252.163 1413.44 125.474 1412.03 0 1412.04 L 0 1404.91 L 0 1316.94 C 91.9255 1316.8 185.945 1315.74 277.718 1316.62 C 274.331 1313.87 256.366 1314.47 251.493 1314.51 C 253.958 1309.66 255.637 1309.45 260.626 1308.42 C 262.261 1308.14 263.89 1307.83 265.512 1307.48 L 266.447 1305 C 267.817 1309.16 266.811 1307.97 269.926 1310.03 C 273.557 1309.42 272.174 1310.04 275.12 1307.38 C 282.124 1306.54 289.822 1306.83 296.921 1306.89 C 301.747 1307.09 306.822 1307.43 311.61 1307.02 z" fill="rgb(26,10,0)" transform="translate(0,0)"></path>
<path d="M 0 1404.91 L 379.719 1404.72 L 377.542 1412.21 C 252.163 1413.44 125.474 1412.03 0 1412.04 L 0 1404.91 z" fill="rgb(139,69,19)" transform="translate(0,0)"></path>
<path d="M 311.61 1307.02 C 318.107 1306.62 327.25 1308.66 332.594 1305.87 C 334.392 1304.94 334.46 1301.95 334.921 1299.63 C 334.753 1304.2 334.343 1306.45 336.421 1310.52 L 338.157 1311.62 C 341.018 1310.79 341.083 1310.39 342.964 1307.85 C 347.345 1307.88 353.609 1308.11 357.837 1307.85 C 359.661 1310.93 359.843 1311.2 362.655 1312.13 L 364.438 1311.18 C 366.751 1308.05 366.469 1306.53 366.495 1302.73 L 366.924 1302.8 L 367.437 1305.99 C 371.466 1308.48 379.337 1306.96 384.267 1306.89 C 389.9 1307.4 392.727 1307.28 398.416 1306.96 L 408.657 1306.9 C 407.878 1309.32 406.033 1314.6 405.739 1316.82 C 363.194 1316.57 319.997 1317.26 277.718 1316.62 C 274.331 1313.87 256.366 1314.47 251.493 1314.51 C 253.958 1309.66 255.637 1309.45 260.626 1308.42 C 262.261 1308.14 263.89 1307.83 265.512 1307.48 L 266.447 1305 C 267.817 1309.16 266.811 1307.97 269.926 1310.03 C 273.557 1309.42 272.174 1310.04 275.12 1307.38 C 282.124 1306.54 289.822 1306.83 296.921 1306.89 C 301.747 1307.09 306.822 1307.43 311.61 1307.02 z" fill="rgb(139,69,19)" transform="translate(0,0)"></path>
<path d="M 174.435 1320.46 C 177.211 1322.41 176.645 1321.43 177.603 1324.24 L 175.606 1327.38 L 170.942 1325.64 L 170.839 1324.27 L 174.435 1320.46 z" fill="rgb(107,0,0)" transform="translate(0,0)"></path>
<path d="M 81.6487 1321.81 C 82.7212 1323.09 82.3491 1322.62 82.8072 1324.39 L 80.8894 1324.92 L 78.3973 1324.88 L 81.6487 1321.81 z" fill="rgb(107,0,0)" transform="translate(0,0)"></path>
<path d="M 165.101 1166.85 C 166.787 1161.14 168.093 1158.57 174.545 1160.3 C 179.768 1164.89 178.308 1168.82 175.39 1174.42 L 174.631 1182.64 C 174.855 1190.42 178.6 1197.04 186.307 1199.14 C 191.535 1200.47 195.948 1206.8 196.621 1211.97 C 196.243 1212.53 195.486 1213.76 194.995 1214.24 C 194.582 1217.92 194.042 1217.27 195.671 1219.53 C 200.746 1222.2 205.757 1224.99 210.7 1227.89 C 212.195 1219.39 211.639 1213.3 212.691 1205.41 C 214.092 1214.41 213.368 1223.42 214.313 1229.42 C 216.594 1241.66 219.821 1226.87 233.301 1228.46 C 233.798 1230.88 234.528 1235.16 235.418 1237.29 L 235.541 1238.26 C 236.382 1244.55 238.766 1251.03 240.446 1257.27 C 243.892 1270.05 245.506 1291.99 243.604 1304.93 C 243.834 1308.65 243.733 1309.57 246.065 1312.58 L 248.418 1313.62 C 251.738 1311.96 252.119 1310.58 252.597 1306.86 C 252.014 1303.43 251.54 1299.98 251.173 1296.52 C 250.339 1288.24 247.326 1262.27 251.693 1256.95 C 254.551 1258.23 255.166 1260.44 257.138 1263.53 C 259.907 1262.74 257.136 1259.84 261.007 1255.82 C 265.094 1257.71 264.1 1258.19 267.278 1262.39 L 267.768 1261.13 C 270.311 1262.98 270.969 1263.69 273.915 1264.55 C 266.869 1277.91 269.115 1290.22 266.447 1305 L 265.512 1307.48 C 263.89 1307.83 262.261 1308.14 260.626 1308.42 C 255.637 1309.45 253.958 1309.66 251.493 1314.51 C 256.366 1314.47 274.331 1313.87 277.718 1316.62 C 185.945 1315.74 91.9255 1316.8 0 1316.94 L 0 1307.88 L 0 1242 L 0 1231.69 C 16.5454 1231.6 41.3094 1232.35 56.9475 1230.96 C 57.7602 1233.95 57.7952 1239.04 57.2831 1242.04 C 57.3595 1252.07 63.9245 1251.04 68.507 1260.89 C 69.4166 1259.09 69.7683 1256.99 70.2502 1254.99 L 71.9903 1254.21 C 78.4523 1257.12 77.5438 1255.56 80.5865 1260.84 C 83.7802 1258.11 81.2386 1256.21 84.9905 1253.84 L 87.1047 1254.5 C 88.1223 1256.72 88.5496 1257.86 89.9855 1259.81 C 93.4398 1256.93 92.0136 1255.69 95.3111 1254.56 C 97.4508 1256.5 96.7868 1255.57 97.6176 1258.43 L 96.2957 1263.47 C 92.1947 1276.28 93.1066 1293.11 92.6161 1306.94 C 94.7039 1306.93 98.1511 1307.02 100.108 1306.86 C 104.612 1306.95 116.525 1307.63 120.141 1305.88 L 121.886 1306.29 C 124.816 1302.03 120.511 1275.32 121.547 1267.21 C 122.677 1258.37 122.059 1242.59 121.304 1233.58 L 123.104 1232.52 C 125.896 1236.26 122.788 1235.63 125.478 1238.37 L 128.168 1237.01 C 130.395 1233.95 130.275 1232.98 133.363 1232.04 C 137.765 1240.24 139.473 1243.47 146.979 1249.32 C 145.961 1245.71 146.098 1240.55 146.025 1236.68 C 145.823 1233.74 147.083 1226.35 147.553 1223.07 C 148.957 1221.57 150.508 1220.09 151.977 1218.65 C 161.445 1197.37 169.712 1198.15 168.808 1175.08 C 166.175 1171.57 166.014 1171.05 165.101 1166.85 z" fill="rgb(107,0,0)" transform="translate(0,0)"></path>
<path d="M 0 1231.69 C 16.5454 1231.6 41.3094 1232.35 56.9475 1230.96 C 57.7602 1233.95 57.7952 1239.04 57.2831 1242.04 C 57.3595 1252.07 63.9245 1251.04 68.507 1260.89 C 69.8142 1276.09 66.3011 1291.92 67.8452 1306.08 C 62.4428 1309.31 10.5127 1307.95 0 1307.88 L 0 1242 L 0 1231.69 z" fill="rgb(26,10,0)" transform="translate(0,0)"></path>
<path d="M 0 1231.69 C 16.5454 1231.6 41.3094 1232.35 56.9475 1230.96 C 57.7602 1233.95 57.7952 1239.04 57.2831 1242.04 L 0 1242 L 0 1231.69 z" fill="rgb(139,69,19)" transform="translate(0,0)"></path>
<path d="M 165.101 1166.85 C 166.787 1161.14 168.093 1158.57 174.545 1160.3 C 179.768 1164.89 178.308 1168.82 175.39 1174.42 L 174.631 1182.64 C 174.855 1190.42 178.6 1197.04 186.307 1199.14 C 191.535 1200.47 195.948 1206.8 196.621 1211.97 C 196.243 1212.53 195.486 1213.76 194.995 1214.24 C 194.582 1217.92 194.042 1217.27 195.671 1219.53 C 197.295 1227.14 197.91 1237.05 198.214 1244.94 C 198.166 1245.66 198.06 1248.02 197.907 1248.57 L 199.073 1252.41 C 199.477 1257.39 200.6 1262.22 198.094 1266.07 C 194.659 1266.45 192.242 1266.59 189.869 1269.43 C 186.833 1283.95 186.045 1291.76 186.977 1306.2 L 187.028 1306.9 L 179.822 1306.74 C 180.146 1300.47 183.993 1256.86 183.251 1255.47 C 179.44 1255.63 181.011 1257.08 176.681 1259.7 C 175.594 1256.56 176.016 1255.96 173.652 1254.5 C 171.661 1255.62 170.572 1258.85 169.527 1261.09 L 168.58 1261.11 C 167.264 1258.89 166.363 1256.91 165.27 1254.59 L 163.684 1254.37 C 159.768 1260.05 163.946 1297.87 166.709 1305.84 C 163.619 1307.69 160.558 1307.17 156.837 1307.04 C 157.719 1289.86 160.002 1274.68 155.336 1257.85 L 146.979 1249.32 C 145.961 1245.71 146.098 1240.55 146.025 1236.68 C 145.823 1233.74 147.083 1226.35 147.553 1223.07 C 148.957 1221.57 150.508 1220.09 151.977 1218.65 C 161.445 1197.37 169.712 1198.15 168.808 1175.08 C 166.175 1171.57 166.014 1171.05 165.101 1166.85 z" fill="rgb(245,220,150)" transform="translate(0,0)"></path>
<path d="M 194.995 1214.24 C 194.582 1217.92 194.042 1217.27 195.671 1219.53 C 197.295 1227.14 197.91 1237.05 198.214 1244.94 C 198.166 1245.66 198.06 1248.02 197.907 1248.57 L 199.073 1252.41 C 199.477 1257.39 200.6 1262.22 198.094 1266.07 C 194.659 1266.45 192.242 1266.59 189.869 1269.43 C 188.548 1268.31 188.68 1268.15 188.089 1266.47 L 189.691 1263.8 C 189.409 1262.41 188.208 1225.19 188.341 1223.25 L 193.803 1218.96 C 193.514 1216.17 193.541 1217.12 194.995 1214.24 z" fill="rgb(26,10,0)" transform="translate(0,0)"></path>
<path d="M 194.995 1214.24 C 194.582 1217.92 194.042 1217.27 195.671 1219.53 C 197.295 1227.14 197.91 1237.05 198.214 1244.94 C 198.166 1245.66 198.06 1248.02 197.907 1248.57 L 199.073 1252.41 C 199.477 1257.39 200.6 1262.22 198.094 1266.07 C 192.355 1253.54 197.453 1230.85 193.803 1218.96 C 193.514 1216.17 193.541 1217.12 194.995 1214.24 z" fill="rgb(212,175,55)" transform="translate(0,0)"></path>
<path d="M 177.492 1199.86 C 178.566 1203.57 179.577 1207.3 180.525 1211.05 C 177.819 1211.82 177.425 1212.09 174.716 1211.72 C 174.962 1206.96 174.494 1203.78 177.492 1199.86 z" fill="rgb(26,10,0)" transform="translate(0,0)"></path>
<path d="M 68.507 1260.89 C 69.4166 1259.09 69.7683 1256.99 70.2502 1254.99 L 71.9903 1254.21 C 72.8803 1269.79 72.1189 1290.02 76.8883 1304.11 C 73.8187 1306.61 72.6988 1305.8 67.8452 1306.08 C 66.3011 1291.92 69.8142 1276.09 68.507 1260.89 z" fill="url(#Gradient8)" transform="translate(0,0)"></path>
<path d="M 210.7 1227.89 C 212.195 1219.39 211.639 1213.3 212.691 1205.41 C 214.092 1214.41 213.368 1223.42 214.313 1229.42 C 214.422 1233.66 214.372 1240.13 214.72 1244.17 C 215.363 1265.1 214.206 1285 216.116 1306.2 L 212.085 1305.86 C 212.982 1285.72 212.665 1271.7 211.88 1251.66 L 211.621 1246.31 C 211.01 1240.19 210.702 1234.04 210.7 1227.89 z" fill="rgb(193,106,11)" transform="translate(0,0)"></path>
<path d="M 197.907 1248.57 C 201.23 1248.17 207.192 1247.09 210.144 1247.94 L 211.083 1249.13 C 207.945 1252.04 206.327 1252.8 201.986 1252.62 C 201.013 1252.58 200.042 1252.51 199.073 1252.41 L 197.907 1248.57 z" fill="rgb(26,10,0)" transform="translate(0,0)"></path>
<path d="M 342.147 1192.11 C 343.398 1181.56 342.088 1177.87 339.862 1167.77 C 338.873 1163.29 344.256 1160.36 348.751 1160.85 C 355.564 1166.07 350.722 1175.5 348.32 1181.97 L 350.987 1195.9 C 349.044 1203.14 348.486 1208.3 347.572 1215.69 C 349.49 1215.6 352.848 1214.92 354.866 1214.57 C 355.088 1209.06 354.879 1203.43 354.758 1197.9 C 366.764 1198.82 376.644 1212.81 378.648 1223.4 L 374.882 1226.6 L 376.356 1227.37 C 377.844 1232.84 375.546 1262.55 373.611 1265.98 C 375.169 1270.02 375.049 1270.83 374.931 1275.08 C 372.688 1272.77 370.341 1270.67 367.96 1268.5 C 367.252 1280.39 363.888 1291.87 366.495 1302.73 C 366.469 1306.53 366.751 1308.05 364.438 1311.18 L 362.655 1312.13 C 359.843 1311.2 359.661 1310.93 357.837 1307.85 C 353.609 1308.11 347.345 1307.88 342.964 1307.85 C 341.083 1310.39 341.018 1310.79 338.157 1311.62 L 336.421 1310.52 C 334.343 1306.45 334.753 1304.2 334.921 1299.63 C 334.502 1290.52 333.303 1278.33 331.614 1269.43 C 327.938 1250.06 319.554 1241.64 327.348 1222.27 L 328.632 1217.91 C 330.105 1215 330.79 1211.34 331.849 1208.32 C 334.078 1201.95 337.954 1197.21 342.147 1192.11 z" fill="rgb(245,220,150)" transform="translate(0,0)"></path>
<path d="M 342.964 1307.85 C 342.516 1305.97 342.135 1304.08 341.821 1302.17 C 340.783 1295.63 337.433 1263.39 340.443 1259.29 C 343.209 1259.83 343.987 1261.77 346.239 1264.38 C 350.317 1264.19 347.004 1261.19 351.561 1258.92 C 354.522 1260.47 355.146 1262.96 356.6 1266.14 C 359.011 1267.86 359.399 1268.18 362.254 1268.91 L 366.168 1264.87 L 367.96 1268.5 C 367.252 1280.39 363.888 1291.87 366.495 1302.73 C 366.469 1306.53 366.751 1308.05 364.438 1311.18 L 362.655 1312.13 C 359.843 1311.2 359.661 1310.93 357.837 1307.85 C 353.609 1308.11 347.345 1307.88 342.964 1307.85 z" fill="rgb(107,0,0)" transform="translate(0,0)"></path>
<path d="M 366.168 1264.87 L 367.96 1268.5 C 367.252 1280.39 363.888 1291.87 366.495 1302.73 C 366.469 1306.53 366.751 1308.05 364.438 1311.18 L 362.655 1312.13 C 359.843 1311.2 359.661 1310.93 357.837 1307.85 C 358.109 1296.18 358.716 1279.6 362.254 1268.91 L 366.168 1264.87 z" fill="rgb(212,175,55)" transform="translate(0,0)"></path>
<path d="M 369.389 1259.99 C 369.251 1259 369.211 1258.74 369.37 1257.75 C 371.158 1246.61 371.111 1234.43 371.271 1223.08 L 374.882 1226.6 L 376.356 1227.37 C 377.844 1232.84 375.546 1262.55 373.611 1265.98 L 369.389 1259.99 z" fill="rgb(26,10,0)" transform="translate(0,0)"></path>
<path d="M 356.6 1266.14 C 357.35 1262.22 357.207 1260.18 359.961 1258.11 C 363.482 1259.77 363.101 1260.4 365.693 1264.02 L 366.168 1264.87 L 362.254 1268.91 C 359.399 1268.18 359.011 1267.86 356.6 1266.14 z" fill="rgb(26,10,0)" transform="translate(0,0)"></path>
<path d="M 257.453 1187.98 C 256.415 1180.42 247.359 1154.75 264.073 1161.34 C 270.975 1170.26 257.256 1191.34 270.619 1197.3 C 276.732 1199 278.591 1200.14 281.787 1205.87 C 282.483 1207.12 283.106 1208.41 283.653 1209.72 L 287.837 1218.71 L 289.418 1220.85 C 289.755 1231.18 284.671 1248.72 280.907 1258.77 L 281.893 1261.98 L 282.749 1262.33 L 285.801 1269.52 C 284.097 1276.3 282.928 1281.22 281.842 1288.15 C 281.103 1282.52 280.502 1276.29 278.887 1270.9 C 274.445 1278.85 273.997 1298.44 275.12 1307.38 C 272.174 1310.04 273.557 1309.42 269.926 1310.03 C 266.811 1307.97 267.817 1309.16 266.447 1305 C 269.115 1290.22 266.869 1277.91 273.915 1264.55 C 270.969 1263.69 270.311 1262.98 267.768 1261.13 L 267.278 1262.39 C 264.1 1258.19 265.094 1257.71 261.007 1255.82 C 257.136 1259.84 259.907 1262.74 257.138 1263.53 C 255.166 1260.44 254.551 1258.23 251.693 1256.95 C 247.326 1262.27 250.339 1288.24 251.173 1296.52 C 251.54 1299.98 252.014 1303.43 252.597 1306.86 C 252.119 1310.58 251.738 1311.96 248.418 1313.62 L 246.065 1312.58 C 243.733 1309.57 243.834 1308.65 243.604 1304.93 C 245.506 1291.99 243.892 1270.05 240.446 1257.27 C 238.766 1251.03 236.382 1244.55 235.541 1238.26 L 235.418 1237.29 C 234.528 1235.16 233.798 1230.88 233.301 1228.46 C 234.205 1223.12 237.868 1221.8 241.299 1215.27 C 246.14 1204.45 253.082 1198.15 257.453 1187.98 z" fill="rgb(245,220,150)" transform="translate(0,0)"></path>
<path d="M 287.837 1218.71 L 289.418 1220.85 C 289.755 1231.18 284.671 1248.72 280.907 1258.77 C 279.712 1254.36 276.261 1227.46 278.277 1223.33 L 279.865 1223.64 C 283.232 1220.77 283.766 1220.44 287.837 1218.71 z" fill="rgb(107,0,0)" transform="translate(0,0)"></path>
<path d="M 277.888 1222.03 C 278.644 1215.15 277.499 1212.78 283.653 1209.72 L 287.837 1218.71 C 283.766 1220.44 283.232 1220.77 279.865 1223.64 L 278.277 1223.33 L 277.888 1222.03 z" fill="rgb(248,242,221)" transform="translate(0,0)"></path>
<path d="M 267.768 1261.13 L 268.791 1257.04 L 270.538 1256.02 C 274.6 1257.47 275.058 1259.99 275.215 1264 L 273.915 1264.55 C 270.969 1263.69 270.311 1262.98 267.768 1261.13 z" fill="rgb(26,10,0)" transform="translate(0,0)"></path>
<path d="M 260.845 1212.12 C 261.774 1208 262.632 1202.94 264.676 1199.35 L 266.224 1199.05 L 267.683 1201.95 C 267.675 1206.51 267.762 1208.77 266.841 1213.26 C 264.857 1212.78 262.856 1212.47 260.845 1212.12 z" fill="rgb(26,10,0)" transform="translate(0,0)"></path>
<path d="M 84.4354 1179.49 C 83.8231 1177.06 82.7972 1173.32 81.7228 1171.06 C 77.7309 1162.69 83.5234 1156.13 92.3335 1160.62 C 93.8149 1162.94 94.726 1164.37 93.8767 1167.56 C 89.4704 1184.1 87.0658 1181.41 95.1077 1196.85 C 104.57 1199.22 106.585 1208.58 109.785 1216.86 C 111.712 1219.93 109.065 1260.85 105.676 1263.96 C 101.359 1265.56 101.283 1265.15 100.04 1269.8 C 100.864 1272.55 99.8262 1300.43 100.108 1306.86 C 98.1511 1307.02 94.7039 1306.93 92.6161 1306.94 C 93.1066 1293.11 92.1947 1276.28 96.2957 1263.47 L 97.6176 1258.43 C 96.7868 1255.57 97.4508 1256.5 95.3111 1254.56 C 92.0136 1255.69 93.4398 1256.93 89.9855 1259.81 C 88.5496 1257.86 88.1223 1256.72 87.1047 1254.5 L 84.9905 1253.84 C 81.2386 1256.21 83.7802 1258.11 80.5865 1260.84 C 77.5438 1255.56 78.4523 1257.12 71.9903 1254.21 L 70.2502 1254.99 C 69.7683 1256.99 69.4166 1259.09 68.507 1260.89 C 63.9245 1251.04 57.3595 1252.07 57.2831 1242.04 C 57.7952 1239.04 57.7602 1233.95 56.9475 1230.96 C 57.2228 1221.57 62.6126 1225.26 65.1156 1220.37 L 65.5209 1218.79 C 67.5306 1216.39 69.6224 1216.31 72.7709 1215.55 C 77.4824 1210.35 83.933 1187.55 84.4354 1179.49 z" fill="rgb(245,220,150)" transform="translate(0,0)"></path>
<path d="M 109.785 1216.86 C 111.712 1219.93 109.065 1260.85 105.676 1263.96 C 105.269 1263.48 104.07 1261.96 103.874 1261.55 C 101.655 1256.87 99.7816 1225.3 100.553 1222.14 C 101.867 1219.87 102.392 1218.73 104.174 1216.83 L 109.785 1216.86 z" fill="url(#Gradient7)" transform="translate(0,0)"></path>
<path d="M 106.276 1137.09 L 106.718 1136.27 C 111.067 1127.97 105.796 1126.02 107.763 1120.25 L 108.509 1121.7 C 113.534 1119.17 107.131 1117.9 115.923 1117.38 C 114.47 1113.32 112.054 1113 108.02 1111.54 L 108.192 1110.22 C 112.926 1108.83 108.994 1111.64 116.147 1110.27 C 116.911 1115.09 116.993 1132.39 116.458 1137.43 L 116.978 1151.42 C 110.698 1152.65 87.4247 1152.07 79.7272 1152.05 C 53.1519 1151.85 26.5757 1151.81 2.13163e-14 1151.92 L 0 1136.77 L 106.276 1137.09 z" fill="rgb(107,0,0)" transform="translate(0,0)"></path>
<path d="M 388.801 1236.91 C 389.895 1237.84 393.233 1240.8 394.373 1241.25 C 395.701 1245.21 395.971 1277.16 394.942 1281.29 C 391.109 1296.69 397.191 1296.06 398.416 1306.96 C 392.727 1307.28 389.9 1307.4 384.267 1306.89 C 386.975 1306.65 387.429 1306.64 389.978 1305.78 C 390.348 1304.85 388.826 1244.01 388.801 1236.91 z" fill="rgb(107,0,0)" transform="translate(0,0)"></path>
<path d="M 367.96 1268.5 C 370.341 1270.67 372.688 1272.77 374.931 1275.08 C 375.647 1272.1 376.17 1271.54 377.814 1268.88 C 378.781 1276.48 380.654 1292.59 376.679 1299.01 C 373.159 1301.54 372.894 1301.78 368.368 1301.01 L 366.924 1302.8 L 366.495 1302.73 C 363.888 1291.87 367.252 1280.39 367.96 1268.5 z" fill="rgb(107,0,0)" transform="translate(0,0)"></path>
<path d="M 400.645 1136.4 C 407.56 1137.39 419.54 1136.48 423.835 1137.78 C 422.809 1141.98 421.157 1147.96 420.52 1152.09 L 400.31 1152.39 C 400.021 1146.22 400.179 1142.57 400.645 1136.4 z" fill="rgb(107,0,0)" transform="translate(0,0)"></path>
<path d="M 120.141 1305.88 C 118.332 1302.3 117.428 1204.09 120.506 1199.3 C 121.392 1210.04 121.206 1222.67 121.304 1233.58 C 122.059 1242.59 122.677 1258.37 121.547 1267.21 C 120.511 1275.32 124.816 1302.03 121.886 1306.29 L 120.141 1305.88 z" fill="rgb(139,69,19)" transform="translate(0,0)"></path>
<path d="M 390.917 1225.1 C 391.267 1220.62 392.39 1218.22 393.97 1214.03 C 395.113 1215.24 395.242 1221.98 395.421 1224.22 C 398.488 1227.91 399.456 1228.77 403.229 1231.77 C 398.818 1235.42 397.329 1236.44 394.373 1241.25 C 393.233 1240.8 389.895 1237.84 388.801 1236.91 C 387.167 1233.47 384.539 1235.13 384.527 1228.71 C 386.877 1226.21 387.596 1226.12 390.917 1225.1 z" fill="rgb(139,69,19)" transform="translate(0,0)"></path>
<path d="M 378.648 1223.4 C 381.564 1234.78 378.844 1256.69 377.814 1268.88 C 376.17 1271.54 375.647 1272.1 374.931 1275.08 C 375.049 1270.83 375.169 1270.02 373.611 1265.98 C 375.546 1262.55 377.844 1232.84 376.356 1227.37 L 374.882 1226.6 L 378.648 1223.4 z" fill="rgb(139,69,19)" transform="translate(0,0)"></path>
<path d="M 296.921 1306.89 C 302.993 1295.93 303.872 1298.17 304.826 1285 C 306.407 1294.1 307.524 1298.38 311.61 1307.02 C 306.822 1307.43 301.747 1307.09 296.921 1306.89 z" fill="rgb(107,0,0)" transform="translate(0,0)"></path>
<path d="M 289.418 1220.85 L 292.339 1228.18 L 292.163 1227.81 C 289.618 1240.79 287.844 1250.17 282.749 1262.33 L 281.893 1261.98 L 280.907 1258.77 C 284.671 1248.72 289.755 1231.18 289.418 1220.85 z" fill="rgb(139,69,19)" transform="translate(0,0)"></path>
<path d="M 415.853 1252.38 C 411.15 1255.9 412.856 1257.9 409.023 1260.4 C 406.596 1255.18 410.819 1242.59 413.085 1237.55 C 413.938 1242.36 414.761 1247.66 415.853 1252.38 z" fill="rgb(107,0,0)" transform="translate(0,0)"></path>
<path d="M 133.363 1232.04 L 134.472 1228.73 C 136.932 1232.96 140.387 1240.56 144.499 1241.87 C 145.817 1239.97 145.74 1238.96 146.025 1236.68 C 146.098 1240.55 145.961 1245.71 146.979 1249.32 C 139.473 1243.47 137.765 1240.24 133.363 1232.04 z" fill="rgb(212,175,55)" transform="translate(0,0)"></path>
<path d="M 417.181 1272.3 C 415.417 1269.73 415.182 1269.24 414.193 1266.28 C 415.065 1262.76 414.293 1263.57 416.7 1262.08 L 418.608 1263.43 L 419.212 1268.2 L 417.181 1272.3 z" fill="rgb(107,0,0)" transform="translate(0,0)"></path>
<path d="M 128.168 1237.01 C 129.343 1232.93 132.479 1226.15 135.229 1222.92 C 136.193 1224.88 135.257 1226.1 134.472 1228.73 L 133.363 1232.04 C 130.275 1232.98 130.395 1233.95 128.168 1237.01 z" fill="rgb(139,69,19)" transform="translate(0,0)"></path>
<path d="M 207.768 1137.67 L 210.219 1137.03 C 246.204 1137.34 282.191 1137.39 318.178 1137.17 C 344.785 1137.22 371.139 1137.84 397.755 1137.12 C 397.416 1139.85 396.84 1143.56 396.751 1146.23 C 396.76 1150.12 397.112 1154.38 395.752 1157.95 L 394.447 1157.59 L 392.632 1153.07 C 388.812 1152.39 372.174 1152.45 367.473 1152.4 C 347.532 1152.15 327.59 1152.06 307.648 1152.12 L 119.972 1152.14 L 119.918 1151.32 L 120.04 1137.91 L 134.443 1137.94 C 153.702 1138.53 182.66 1138.04 202.01 1137.26 L 207.768 1137.67 z" fill="rgb(107,0,0)" transform="translate(0,0)"></path>
<path d="M 303.989 1215.46 L 305.108 1215.08 C 305.837 1224.23 308.146 1223.53 313.872 1232.82 C 310.349 1236.29 308.913 1238.03 305.916 1241.99 C 301.448 1238.24 298.126 1234.87 294.049 1230.76 C 297.48 1227.4 299.898 1224.94 302.977 1221.28 C 303.243 1219 303.489 1217.69 303.989 1215.46 z" fill="rgb(236,26,1)" transform="translate(0,0)"></path>
<path d="M 393.658 1173.83 C 394.431 1175.17 394.95 1177.97 395.874 1179.33 C 403.752 1190.96 396.54 1186.75 393.43 1201.02 C 391.574 1192.8 389.421 1190.94 383.469 1184.74 C 389.763 1181.36 390.459 1179.91 393.658 1173.83 z" fill="rgb(236,26,1)" transform="translate(0,0)"></path>
<path d="M 303.945 1176.57 C 307.004 1180.22 310.451 1183.66 313.773 1187.09 C 308.865 1191.24 307.752 1191.73 304.39 1197.23 C 300.812 1192.45 299.345 1190.77 294.977 1186.71 C 299.66 1182.68 300.799 1181.79 303.945 1176.57 z" fill="rgb(236,26,1)" transform="translate(0,0)"></path>
<path d="M 120.242 1174.95 C 128.335 1185.29 126.752 1185.79 120.709 1196.42 L 119.465 1196.87 C 116.909 1189.43 117.672 1189.55 109.924 1185.77 L 108.805 1185.23 C 112.97 1182.83 118.077 1180.49 119.976 1175.94 L 120.242 1174.95 z" fill="rgb(236,26,1)" transform="translate(0,0)"></path>
<path d="M 203.67 1185.57 C 208.756 1182.82 209.398 1181.86 211.797 1176.6 C 214.194 1179.14 217.45 1183.52 219.437 1186.42 C 216.869 1190.39 214.986 1190.27 212.743 1194.81 L 211.448 1195.73 C 209.223 1191.05 207.27 1189.35 203.67 1185.57 z" fill="rgb(236,26,1)" transform="translate(0,0)"></path>
<path d="M 303.989 1215.46 C 305.707 1206.75 298.587 1206.84 303.741 1200.14 L 305.365 1200.24 C 306.886 1205.16 304.197 1208.95 305.108 1215.08 L 303.989 1215.46 z" fill="rgb(139,69,19)" transform="translate(0,0)"></path>
<path d="M 212.743 1194.81 L 212.817 1195.37 C 213.218 1198.57 213.676 1200.9 211.875 1203.25 C 210.42 1200.2 211.095 1199.44 211.448 1195.73 L 212.743 1194.81 z" fill="rgb(193,106,11)" transform="translate(0,0)"></path>
<path d="M 780.361 1050.8 C 869.014 1051.76 958.041 1050.63 1046.71 1051 L 1149.81 1051.31 C 1174.08 1051.51 1204.91 1052.34 1229 1051.16 L 1229 1138 L 1229 1152.11 L 1229 1303.2 L 1229 1314.48 L 1229 1404.2 L 1229 1411.96 L 853.448 1412.26 C 853.06 1410.27 852.105 1407.14 851.549 1405.08 C 842.948 1373.98 834.333 1344 826.273 1312.73 L 824.876 1306.12 C 822.457 1295.12 819.165 1283.6 816.235 1272.66 C 820.908 1263.71 824.425 1256.69 827.553 1247.1 L 823.866 1231 L 823.633 1230.07 C 821.605 1225.19 820.618 1221.17 819.276 1216.11 C 811.373 1208.79 814.726 1200.55 809.378 1191.56 C 807.99 1189.23 806.509 1189.5 803.5 1188.76 C 803.776 1187.1 804.835 1185.79 805.761 1184.34 C 810.099 1172.02 807.42 1167.34 806.343 1155.01 C 806.201 1153.39 807.893 1145.74 808.339 1143.79 L 807.319 1139.97 C 805.497 1130.35 799.086 1111.22 796.057 1101.69 L 780.361 1050.8 z" fill="rgb(26,10,0)" transform="translate(0,0)"></path>
<path d="M 881.929 1264.97 C 883.294 1260.44 882.344 1261.45 885.561 1258.47 C 891.029 1258.14 891.687 1261.48 894.174 1265.73 L 903.069 1262 C 901.683 1271.23 898.224 1293.36 895.306 1302.01 L 896.311 1306.65 L 895.195 1313.13 C 900.676 1312.96 910.301 1313.09 915.264 1312.65 C 926.335 1312.7 946.521 1312.25 956.894 1313.15 C 961.324 1313.24 979.932 1313.52 983.884 1313.01 C 996.955 1312.52 1010.03 1312.26 1023.11 1312.25 C 1027.78 1313.87 1066.34 1315.17 1070.71 1314.1 L 1068.98 1312.86 C 1068.82 1309.99 1068.65 1308.57 1067.57 1305.9 L 1069.91 1303.76 C 1079.31 1303.27 1121.7 1305.01 1126.38 1303.26 L 1127.57 1300.31 C 1129.19 1305.42 1130.66 1304.41 1135.75 1303.93 C 1139.78 1304.2 1151.49 1305.19 1154.52 1303.25 L 1159.42 1302.95 C 1176.37 1304.85 1211 1303.12 1229 1303.2 L 1229 1314.48 L 1229 1404.2 L 1229 1411.96 L 853.448 1412.26 C 853.06 1410.27 852.105 1407.14 851.549 1405.08 C 842.948 1373.98 834.333 1344 826.273 1312.73 C 832.895 1312.73 862.013 1312.38 866.822 1313.71 L 868.609 1314.82 C 871.977 1314.69 871.98 1313.75 875.018 1311.16 C 878.696 1302.01 886.44 1307.71 883.148 1291.89 L 883.317 1287.62 L 884.176 1286.38 C 884.906 1280.04 885.194 1270.62 881.929 1264.97 z" fill="rgb(26,10,0)" transform="translate(0,0)"></path>
<path d="M 1229 1404.2 L 1229 1411.96 L 853.448 1412.26 C 853.06 1410.27 852.105 1407.14 851.549 1405.08 L 1011.4 1404.53 C 1082.8 1404.76 1157.72 1405.97 1229 1404.2 z" fill="rgb(139,69,19)" transform="translate(0,0)"></path>
<path d="M 1127.57 1300.31 C 1129.19 1305.42 1130.66 1304.41 1135.75 1303.93 C 1139.78 1304.2 1151.49 1305.19 1154.52 1303.25 L 1159.42 1302.95 C 1176.37 1304.85 1211 1303.12 1229 1303.2 L 1229 1314.48 C 1191.88 1314.41 1154.75 1314.58 1117.63 1314.98 C 1108.42 1315.01 1078.34 1315.7 1070.71 1314.1 L 1068.98 1312.86 C 1068.82 1309.99 1068.65 1308.57 1067.57 1305.9 L 1069.91 1303.76 C 1079.31 1303.27 1121.7 1305.01 1126.38 1303.26 L 1127.57 1300.31 z" fill="rgb(139,69,19)" transform="translate(0,0)"></path>
<path d="M 894.174 1265.73 L 903.069 1262 C 901.683 1271.23 898.224 1293.36 895.306 1302.01 C 894.395 1300.64 894.177 1300.78 892.579 1300.19 L 889.576 1302 C 890.079 1299.14 889.778 1296.06 890.192 1293.03 C 891.436 1283.93 892.806 1274.82 894.174 1265.73 z" fill="rgb(212,175,55)" transform="translate(0,0)"></path>
<path d="M 889.576 1302 L 892.579 1300.19 C 894.177 1300.78 894.395 1300.64 895.306 1302.01 L 896.311 1306.65 L 895.195 1313.13 L 892.184 1314.39 C 888.833 1313.85 889.926 1314.54 888.11 1312.05 C 887.4 1307.81 888.245 1306.08 889.576 1302 z" fill="rgb(245,220,150)" transform="translate(0,0)"></path>
<path d="M 861.085 1388.94 C 861.974 1388.45 863.069 1388.54 863.861 1389.18 C 864.653 1389.81 864.986 1390.86 864.706 1391.83 C 864.426 1392.81 863.587 1393.52 862.579 1393.63 C 861.386 1393.77 860.263 1393.04 859.899 1391.9 C 859.535 1390.76 860.032 1389.51 861.085 1388.94 z" fill="rgb(107,0,0)" transform="translate(0,0)"></path>
<path d="M 875.849 1171.65 C 874.105 1164.22 877.11 1159.16 885.165 1160.56 C 889.486 1163.71 890.318 1166.24 888.141 1171.73 L 886.646 1172.04 C 886.012 1175.3 885.932 1176.5 884.4 1179.52 C 884.523 1181.54 885.005 1187.37 884.923 1189.11 C 888.11 1198.42 895.652 1199.08 903.274 1211.72 C 905.215 1217.62 905.58 1221.56 900.724 1226.47 C 905.773 1229.34 906.927 1230.69 909.148 1236.46 C 908.674 1238.65 908.095 1240.61 908.271 1242.84 C 905.236 1251.55 903.528 1252.42 903.069 1262 L 894.174 1265.73 C 891.687 1261.48 891.029 1258.14 885.561 1258.47 C 882.344 1261.45 883.294 1260.44 881.929 1264.97 C 885.194 1270.62 884.906 1280.04 884.176 1286.38 L 883.317 1287.62 L 883.148 1291.89 C 886.44 1307.71 878.696 1302.01 875.018 1311.16 C 871.98 1313.75 871.977 1314.69 868.609 1314.82 L 866.822 1313.71 C 862.013 1312.38 832.895 1312.73 826.273 1312.73 L 824.876 1306.12 C 822.457 1295.12 819.165 1283.6 816.235 1272.66 C 820.908 1263.71 824.425 1256.69 827.553 1247.1 L 823.866 1231 L 823.633 1230.07 C 826.719 1225.76 827.962 1224.18 829.914 1219.32 L 831.169 1219.05 C 834.165 1221.72 837.991 1224.75 839.911 1228.17 L 841.701 1228.94 C 839.972 1236.1 845.657 1240.6 849.728 1246.58 L 850.125 1232.02 L 849.479 1226.85 L 849.801 1222.27 L 850.926 1221.34 C 853.173 1222.7 854.574 1223.44 857.131 1224.06 C 853.933 1209.12 863.987 1201.45 875.581 1193.67 C 879.363 1183.98 880.755 1181.16 875.849 1171.65 z" fill="rgb(245,220,150)" transform="translate(0,0)"></path>
<path d="M 831.169 1219.05 C 834.165 1221.72 837.991 1224.75 839.911 1228.17 L 841.701 1228.94 C 839.972 1236.1 845.657 1240.6 849.728 1246.58 L 850.125 1232.02 L 849.479 1226.85 L 849.801 1222.27 L 850.926 1221.34 C 853.173 1222.7 854.574 1223.44 857.131 1224.06 L 859.312 1227.3 C 860.353 1234.48 859.907 1242.3 859.753 1249.6 C 859.957 1269.3 860.319 1279.33 865.611 1298.82 L 866.023 1302.57 C 866.037 1306.49 865.86 1309.9 866.822 1313.71 C 862.013 1312.38 832.895 1312.73 826.273 1312.73 L 824.876 1306.12 C 822.457 1295.12 819.165 1283.6 816.235 1272.66 C 820.908 1263.71 824.425 1256.69 827.553 1247.1 L 823.866 1231 L 823.633 1230.07 C 826.719 1225.76 827.962 1224.18 829.914 1219.32 L 831.169 1219.05 z" fill="rgb(107,0,0)" transform="translate(0,0)"></path>
<path d="M 865.611 1298.82 L 866.023 1302.57 C 866.037 1306.49 865.86 1309.9 866.822 1313.71 C 862.013 1312.38 832.895 1312.73 826.273 1312.73 L 824.876 1306.12 C 834.253 1306.15 856.019 1306.97 864.099 1305.96 C 865.982 1303.04 865.422 1302.58 865.611 1298.82 z" fill="rgb(139,69,19)" transform="translate(0,0)"></path>
<path d="M 831.169 1219.05 C 834.165 1221.72 837.991 1224.75 839.911 1228.17 C 836.56 1231.88 836.259 1232.79 834.303 1237.4 C 833.217 1241.09 833.719 1244.79 832.117 1246.84 C 828.529 1237.14 835.628 1240.31 823.866 1231 L 823.633 1230.07 C 826.719 1225.76 827.962 1224.18 829.914 1219.32 L 831.169 1219.05 z" fill="rgb(236,26,1)" transform="translate(0,0)"></path>
<path d="M 832.117 1246.84 C 833.719 1244.79 833.217 1241.09 834.303 1237.4 C 834.794 1240.96 835.948 1248.81 834.118 1251.91 C 832.579 1249.68 832.587 1249.56 832.117 1246.84 z" fill="rgb(232,69,7)" transform="translate(0,0)"></path>
<path d="M 871.576 1300.04 C 870.658 1291.72 866.243 1263.39 872.395 1258.16 C 875.341 1257.97 875.73 1257.95 878.304 1259.36 C 878.566 1261.37 878.58 1261.8 879.231 1263.78 L 881.929 1264.97 C 885.194 1270.62 884.906 1280.04 884.176 1286.38 L 883.317 1287.62 L 883.148 1291.89 C 886.44 1307.71 878.696 1302.01 875.018 1311.16 C 874.171 1305.82 873.868 1304.96 871.576 1300.04 z" fill="rgb(107,0,0)" transform="translate(0,0)"></path>
<path d="M 880.209 1196.7 C 881.056 1201.66 882 1206.59 883.039 1211.51 L 873.778 1213.2 C 875.199 1206.08 875.686 1202.33 880.209 1196.7 z" fill="rgb(26,10,0)" transform="translate(0,0)"></path>
<path d="M 836.659 1137.77 C 845.842 1135.09 934.625 1137.7 949.061 1137.77 L 1229 1138 L 1229 1152.11 C 1100.74 1152.06 968.943 1150.29 840.92 1152.17 C 839.568 1146.25 838.854 1143.38 836.659 1137.77 z" fill="rgb(107,0,0)" transform="translate(0,0)"></path>
<path d="M 964.586 1171.64 C 962.636 1169.53 962.706 1169.32 962.253 1166.36 C 963.953 1161.34 966.912 1159.42 972.412 1160.71 C 980.267 1167.09 972.417 1171.43 970.988 1177.46 C 972.368 1183.57 973.439 1189.6 974.558 1195.76 C 980.993 1200.16 991.83 1210.56 987.889 1219.12 L 992.826 1223.93 L 993.533 1224.61 C 997.418 1224.23 997.871 1224.28 1001.25 1226.22 L 1003.02 1229.26 C 1003 1233.38 1003.67 1234.49 1001.81 1237.63 C 1000.52 1238 999.26 1238.43 997.942 1238.61 C 997.221 1240.38 997.143 1241.56 995.849 1242.38 C 995.744 1242.68 992.972 1250.92 993.174 1250.76 C 990.167 1253.05 988.078 1252.17 987.115 1256.47 C 983.673 1271.81 988.831 1286.45 985.17 1301.75 C 982.069 1310.08 988.437 1308.12 983.965 1312.36 L 983.884 1313.01 C 979.932 1313.52 961.324 1313.24 956.894 1313.15 C 946.521 1312.25 926.335 1312.7 915.264 1312.65 C 920.206 1309.22 931.426 1314.75 935.139 1310.43 L 932.708 1306.58 C 938.091 1306.84 949.847 1307.1 954.672 1307.84 C 953.369 1285.15 957.072 1259.98 954.004 1236.66 C 952.495 1225.19 943.906 1221.82 946.038 1211.51 C 945.48 1205.54 950.159 1202.09 954.507 1199.28 C 967.191 1189.34 966.942 1186.99 964.586 1171.64 z" fill="rgb(245,220,150)" transform="translate(0,0)"></path>
<path d="M 958.254 1306.88 C 957.792 1301.41 961.495 1298.32 961.921 1293.06 C 962.852 1281.55 960.12 1267.67 962.684 1256.62 C 963.188 1254.45 964.317 1254.32 966.074 1253.5 C 971.661 1254.5 975.746 1253.48 978.069 1253.97 C 982.354 1261.57 978.649 1288.78 979.231 1299.82 C 978.684 1305.21 979.936 1308.6 983.965 1312.36 L 983.884 1313.01 C 979.932 1313.52 961.324 1313.24 956.894 1313.15 C 946.521 1312.25 926.335 1312.7 915.264 1312.65 C 920.206 1309.22 931.426 1314.75 935.139 1310.43 L 932.708 1306.58 C 938.091 1306.84 949.847 1307.1 954.672 1307.84 L 956.679 1308.58 L 958.254 1306.88 z" fill="rgb(107,0,0)" transform="translate(0,0)"></path>
<path d="M 963.676 1203.64 C 964.163 1200.97 964.217 1199.03 965.899 1196.96 C 969.941 1199.12 969.148 1208.23 970.78 1211.86 C 967.915 1212.52 964.729 1212.13 961.74 1211.97 L 963.676 1203.64 z" fill="rgb(26,10,0)" transform="translate(0,0)"></path>
<path d="M 1136.72 1172.49 C 1134.25 1170.17 1132.8 1169.24 1132.21 1165.84 C 1133.99 1158.1 1142.77 1157.17 1145.91 1164.86 C 1145.8 1168.73 1145.13 1169.51 1143.19 1172.7 C 1140.17 1187.58 1146.52 1199.63 1151.62 1213.61 C 1155.4 1215.28 1157.7 1215.5 1159.68 1218.47 L 1158.83 1222.04 C 1164.33 1224.51 1167.48 1225.47 1169.29 1231.51 C 1171.98 1240.52 1169.03 1247.17 1161.03 1251.33 C 1160.98 1258.09 1161.2 1266.74 1160.13 1273.27 C 1160.09 1282.3 1160.35 1294.21 1159.42 1302.95 L 1154.52 1303.25 C 1151.49 1305.19 1139.78 1304.2 1135.75 1303.93 L 1135.67 1297.89 C 1135.8 1289.67 1135.96 1257.19 1139.07 1251.91 C 1136.52 1247.07 1130.91 1247.29 1125.61 1245.79 C 1122.89 1236.65 1131.14 1226.02 1119.04 1220.45 C 1117.87 1218.86 1117.08 1212.76 1117.16 1210.62 C 1117.43 1203.64 1127.43 1198.78 1132.24 1193.9 C 1137.47 1188.58 1136.64 1179.68 1136.72 1172.49 z" fill="rgb(245,220,150)" transform="translate(0,0)"></path>
<path d="M 1139.07 1251.91 C 1145.15 1253.24 1148.65 1250.58 1152.17 1251.78 C 1153.65 1254.64 1153.22 1256.58 1153.07 1259.84 L 1153.74 1259.98 C 1153.77 1270.11 1153.33 1294.43 1154.52 1303.25 C 1151.49 1305.19 1139.78 1304.2 1135.75 1303.93 L 1135.67 1297.89 C 1135.8 1289.67 1135.96 1257.19 1139.07 1251.91 z" fill="rgb(26,10,0)" transform="translate(0,0)"></path>
<path d="M 1153.07 1259.84 L 1153.74 1259.98 C 1153.77 1270.11 1153.33 1294.43 1154.52 1303.25 C 1151.49 1305.19 1139.78 1304.2 1135.75 1303.93 L 1135.67 1297.89 C 1142.21 1297.78 1146.43 1298.18 1152.83 1298.84 C 1152.74 1287.73 1152.11 1270.43 1153.07 1259.84 z" fill="rgb(107,0,0)" transform="translate(0,0)"></path>
<path d="M 1137.72 1196.61 L 1139.26 1210.43 C 1135.96 1211.01 1135.47 1211.13 1132.28 1210.16 L 1137.72 1196.61 z" fill="rgb(26,10,0)" transform="translate(0,0)"></path>
<path d="M 1052.88 1210.11 C 1057.13 1212.49 1067.86 1219.41 1071.98 1218.85 C 1077.89 1219.77 1076.54 1223.59 1080.05 1223.93 C 1079.88 1228.32 1083.42 1236.52 1086.01 1239.93 C 1078.71 1243.84 1083.51 1245.55 1078.87 1250.8 L 1073.29 1251.72 C 1069.07 1257.89 1070.74 1292.95 1069.91 1303.76 L 1067.57 1305.9 C 1068.65 1308.57 1068.82 1309.99 1068.98 1312.86 L 1070.71 1314.1 C 1066.34 1315.17 1027.78 1313.87 1023.11 1312.25 L 1023.34 1311.34 L 1022.45 1307.39 C 1025.6 1307.27 1028.87 1307.21 1032 1307.06 C 1038.04 1306.79 1038.01 1306.83 1040 1301.89 C 1042.46 1286.63 1041.01 1267.6 1040.9 1251.93 C 1040.86 1244.76 1042.6 1227.39 1037.84 1222.69 C 1039.52 1219.34 1043.17 1212.93 1046.23 1210.94 C 1048.16 1210.91 1050.92 1210.4 1052.88 1210.11 z" fill="url(#Gradient6)" transform="translate(0,0)"></path>
<path d="M 1040 1301.89 L 1041.94 1304.38 L 1043.76 1304.33 C 1050.25 1294.94 1043.79 1252.87 1050.68 1252.38 C 1055.19 1252.06 1059.95 1253.27 1064.56 1253.07 C 1064.03 1269.81 1063.48 1286.54 1063.58 1303.28 C 1063.62 1308.89 1064.29 1309.84 1068.98 1312.86 L 1070.71 1314.1 C 1066.34 1315.17 1027.78 1313.87 1023.11 1312.25 L 1023.34 1311.34 L 1022.45 1307.39 C 1025.6 1307.27 1028.87 1307.21 1032 1307.06 C 1038.04 1306.79 1038.01 1306.83 1040 1301.89 z" fill="rgb(107,0,0)" transform="translate(0,0)"></path>
<path d="M 807.319 1139.97 C 810.551 1134.31 822.067 1136.11 827.608 1137.66 C 830.303 1140.2 829.511 1139.49 830.314 1143.74 L 831.24 1139.44 C 834.031 1141.13 832.622 1144.39 836.146 1147.37 C 837.415 1151.84 838.509 1156.36 839.424 1160.92 L 841.194 1161.48 C 848.147 1169.07 852.066 1177.03 857.863 1183.76 C 855.726 1185.78 841.331 1189.04 838.686 1188.34 C 835.039 1190.37 834.649 1190.9 831.995 1194.07 C 830.625 1198.88 831.28 1213.01 831.169 1219.05 L 829.914 1219.32 C 827.962 1224.18 826.719 1225.76 823.633 1230.07 C 821.605 1225.19 820.618 1221.17 819.276 1216.11 C 811.373 1208.79 814.726 1200.55 809.378 1191.56 C 807.99 1189.23 806.509 1189.5 803.5 1188.76 C 803.776 1187.1 804.835 1185.79 805.761 1184.34 C 810.099 1172.02 807.42 1167.34 806.343 1155.01 C 806.201 1153.39 807.893 1145.74 808.339 1143.79 L 807.319 1139.97 z" fill="rgb(107,0,0)" transform="translate(0,0)"></path>
<path d="M 831.078 1177.99 C 833.817 1182.28 834.695 1182.79 838.856 1185.83 L 838.686 1188.34 C 835.039 1190.37 834.649 1190.9 831.995 1194.07 L 829.581 1193.79 C 827.523 1190.95 824.596 1188.67 821.924 1186.33 C 825.248 1183.85 828.108 1180.89 831.078 1177.99 z" fill="rgb(236,26,1)" transform="translate(0,0)"></path>
<path d="M 829.581 1193.79 L 831.995 1194.07 C 830.625 1198.88 831.28 1213.01 831.169 1219.05 L 829.914 1219.32 C 828.558 1212.02 829.178 1201.21 829.581 1193.79 z" fill="rgb(139,69,19)" transform="translate(0,0)"></path>
<path d="M 1010.73 1232.73 L 1011.89 1228.63 C 1012.29 1229.31 1013.56 1231.56 1013.98 1232.03 C 1014.34 1240.43 1013.75 1302.16 1016.61 1304.56 C 1018.17 1305.87 1020.58 1306.62 1022.45 1307.39 L 1023.34 1311.34 L 1023.11 1312.25 C 1010.03 1312.26 996.955 1312.52 983.884 1313.01 L 983.965 1312.36 C 988.437 1308.12 982.069 1310.08 985.17 1301.75 C 988.831 1286.45 983.673 1271.81 987.115 1256.47 C 988.078 1252.17 990.167 1253.05 993.174 1250.76 C 992.972 1250.92 995.744 1242.68 995.849 1242.38 C 997.143 1241.56 997.221 1240.38 997.942 1238.61 C 999.26 1238.43 1000.52 1238 1001.81 1237.63 C 1003.67 1234.49 1003 1233.38 1003.02 1229.26 C 1006.28 1230.25 1007.99 1230.57 1010.73 1232.73 z" fill="rgb(107,0,0)" transform="translate(0,0)"></path>
<path d="M 1010.73 1232.73 L 1011.89 1228.63 C 1012.29 1229.31 1013.56 1231.56 1013.98 1232.03 C 1014.34 1240.43 1013.75 1302.16 1016.61 1304.56 C 1018.17 1305.87 1020.58 1306.62 1022.45 1307.39 L 1023.34 1311.34 L 1023.11 1312.25 C 1010.03 1312.26 996.955 1312.52 983.884 1313.01 L 983.965 1312.36 C 988.437 1308.12 982.069 1310.08 985.17 1301.75 C 989.845 1311.32 1004.54 1305.19 1011.77 1307.04 C 1015.24 1298.48 1011.78 1244.34 1010.73 1232.73 z" fill="rgb(139,69,19)" transform="translate(0,0)"></path>
<path d="M 1051.69 1178.74 C 1049.09 1171.7 1044.05 1163.67 1052.7 1158.85 C 1056.5 1158.63 1055 1158.26 1058.36 1160.41 C 1062.54 1167.2 1059.69 1173.93 1056.49 1180.62 C 1058.35 1184.54 1058.21 1188.49 1058.45 1192.84 C 1064.13 1200.79 1069.77 1209.1 1071.98 1218.85 C 1067.86 1219.41 1057.13 1212.49 1052.88 1210.11 C 1050.92 1210.4 1048.16 1210.91 1046.23 1210.94 C 1043.17 1212.93 1039.52 1219.34 1037.84 1222.69 C 1033.57 1218.75 1033.54 1210.71 1032.9 1204.72 C 1042.44 1193.67 1052.44 1196.63 1051.69 1178.74 z" fill="rgb(245,220,150)" transform="translate(0,0)"></path>
<path d="M 1046.23 1210.94 C 1047.52 1207.82 1048.92 1199.68 1051.99 1198.61 C 1053.5 1201.93 1052.99 1206.36 1052.88 1210.11 C 1050.92 1210.4 1048.16 1210.91 1046.23 1210.94 z" fill="rgb(26,10,0)" transform="translate(0,0)"></path>
<path d="M 1125.61 1245.79 C 1130.91 1247.29 1136.52 1247.07 1139.07 1251.91 C 1135.96 1257.19 1135.8 1289.67 1135.67 1297.89 L 1135.75 1303.93 C 1130.66 1304.41 1129.19 1305.42 1127.57 1300.31 C 1129.32 1285.9 1125.03 1261.7 1125.61 1245.79 z" fill="rgb(212,175,55)" transform="translate(0,0)"></path>
<path d="M 929.096 1242.29 L 931.626 1244.76 C 930.19 1261.44 930.977 1287.73 930.408 1305.49 L 932.708 1306.58 L 935.139 1310.43 C 931.426 1314.75 920.206 1309.22 915.264 1312.65 C 910.301 1313.09 900.676 1312.96 895.195 1313.13 L 896.311 1306.65 C 906.79 1307.18 919.142 1307.37 929.469 1305.69 C 928.27 1295.12 928.481 1252.96 929.096 1242.29 z" fill="rgb(139,69,19)" transform="translate(0,0)"></path>
<path d="M 1011.63 1197.8 L 1011.24 1196.82 C 1007.88 1188.44 1002.95 1189.27 1004.62 1184.71 C 1011.56 1179.73 1009.27 1181.42 1012.96 1174.79 C 1019.42 1182.09 1015.09 1181.46 1025.82 1184.74 C 1019.22 1189.42 1016.83 1190.98 1013.16 1198.09 L 1011.63 1197.8 z" fill="rgb(236,26,1)" transform="translate(0,0)"></path>
<path d="M 928.754 1199.3 L 928.29 1198.22 C 925.43 1191.65 921.014 1190.66 919.971 1185.63 C 922.674 1184.67 924.652 1184.25 926.685 1182.26 C 927.597 1179.77 928.352 1177.33 929.697 1175.04 C 932.469 1181.58 933.107 1183.66 939.679 1187.1 C 936.677 1191.72 933.411 1194.78 930.488 1199.76 L 928.754 1199.3 z" fill="rgb(236,26,1)" transform="translate(0,0)"></path>
<path d="M 1013.23 1217.87 L 1013.73 1218.75 C 1015.89 1222.45 1016.5 1222.96 1020.13 1225.15 L 1020.63 1227.35 L 1020.2 1227.75 C 1018.56 1229.34 1018.41 1229.42 1017.43 1231.41 L 1017.43 1233.62 L 1013.98 1232.03 C 1013.56 1231.56 1012.29 1229.31 1011.89 1228.63 L 1010.73 1232.73 C 1007.99 1230.57 1006.28 1230.25 1003.02 1229.26 L 1001.25 1226.22 C 1008.01 1224.27 1009.94 1224.95 1011.95 1218.2 L 1013.23 1217.87 z" fill="rgb(236,26,1)" transform="translate(0,0)"></path>
<path d="M 928.826 1219.29 L 930.508 1218.71 L 931.008 1222.44 C 930.921 1226.87 930.883 1231.3 930.894 1235.73 C 931.261 1238.28 932.092 1242.38 931.626 1244.76 L 929.096 1242.29 C 929.444 1233.2 923.631 1232.15 923.538 1226.99 C 926.676 1224.25 927.806 1223.48 928.826 1219.29 z" fill="rgb(236,26,1)" transform="translate(0,0)"></path>
<path d="M 910.006 1219.12 C 913.008 1223.02 915.088 1230.06 916.807 1234.89 C 912.866 1237.53 910.505 1238.66 908.271 1242.84 C 908.095 1240.61 908.674 1238.65 909.148 1236.46 L 910.289 1236.33 C 911.876 1232.68 909.845 1225.91 909.979 1220.1 L 910.006 1219.12 z" fill="rgb(193,106,11)" transform="translate(0,0)"></path>
<path d="M 931.008 1222.44 C 933.276 1224.39 936.186 1226.77 938.295 1228.79 C 935.957 1230.88 932.923 1233.42 930.894 1235.73 C 930.883 1231.3 930.921 1226.87 931.008 1222.44 z" fill="rgb(236,26,1)" transform="translate(0,0)"></path>
<path d="M 1080.05 1223.93 C 1086.51 1228.17 1087.24 1232.69 1086.01 1239.93 C 1083.42 1236.52 1079.88 1228.32 1080.05 1223.93 z" fill="rgb(245,220,150)" transform="translate(0,0)"></path>
<path d="M 1011.63 1197.8 L 1013.16 1198.09 L 1013.23 1217.87 L 1011.95 1218.2 C 1011.2 1213.95 1011.23 1202.15 1011.63 1197.8 z" fill="rgb(107,0,0)" transform="translate(0,0)"></path>
<path d="M 928.754 1199.3 L 930.488 1199.76 C 930.113 1207.1 929.932 1211.29 930.508 1218.71 L 928.826 1219.29 C 928.19 1216.67 928.684 1202.88 928.754 1199.3 z" fill="rgb(107,0,0)" transform="translate(0,0)"></path>
<path d="M 1103.67 1233.3 C 1103.44 1242.43 1105.8 1298.13 1103.31 1301.82 C 1098.88 1292.53 1100.22 1246.56 1100.38 1234.05 L 1103.67 1233.3 z" fill="rgb(232,69,7)" transform="translate(0,0)"></path>
<path d="M 1117.98 1236.55 C 1121.06 1242.96 1120.95 1290.68 1120.16 1300.42 L 1118.03 1298.47 C 1116 1292.49 1115.52 1244.15 1117.98 1236.55 z" fill="rgb(245,220,150)" transform="translate(0,0)"></path>
<path d="M 946.399 1235.69 C 948.003 1240.56 949.164 1262.17 949.182 1268.12 C 949.199 1273.44 948.787 1273.68 945.588 1276.72 C 938.68 1270.5 942.985 1243.26 946.399 1235.69 z" fill="rgb(212,175,55)" transform="translate(0,0)"></path>
<path d="M 1100.13 1196.69 L 1099.72 1195.7 C 1096.72 1188.54 1090.47 1185.87 1091.16 1183.1 C 1098.16 1179.52 1097.49 1180.3 1100.79 1173.33 C 1101.71 1175.16 1102.77 1177.24 1103.66 1179.04 C 1106 1183.72 1110.03 1181.62 1110.12 1186.27 C 1106.87 1191.21 1105.71 1189.37 1101.33 1196.82 L 1100.13 1196.69 z" fill="rgb(236,26,1)" transform="translate(0,0)"></path>
<path d="M 1028.83 1245.06 L 1031.89 1244.12 C 1034.08 1251.68 1037.76 1269.09 1032.92 1275.69 L 1031.41 1275.19 C 1027.43 1267.64 1028.64 1254 1028.83 1245.06 z" fill="rgb(245,220,150)" transform="translate(0,0)"></path>
<path d="M 1100.1 1215.99 L 1102.05 1217.96 C 1104.03 1225.48 1109.61 1223.05 1106.17 1231.7 L 1103.67 1233.3 L 1100.38 1234.05 C 1097.49 1232.09 1092.81 1229.62 1092.58 1226.06 C 1093.8 1225.33 1095.01 1224.59 1096.2 1223.82 C 1099.71 1221.56 1099.24 1220.12 1100.1 1215.99 z" fill="rgb(236,26,1)" transform="translate(0,0)"></path>
<path d="M 1100.13 1196.69 L 1101.33 1196.82 C 1101.56 1203.06 1102.15 1211.92 1102.05 1217.96 L 1100.1 1215.99 C 1099.58 1210.07 1099.98 1202.74 1100.13 1196.69 z" fill="rgb(107,0,0)" transform="translate(0,0)"></path>
<path d="M 857.41 1059.76 L 858.58 1061.44 C 858.899 1064.92 858.967 1063.6 856.779 1067.41 L 855.82 1066.6 C 854.984 1063.56 855.886 1063.22 857.41 1059.76 z" fill="rgb(107,0,0)" transform="translate(0,0)"></path>
<path d="M 1028.83 1245.06 C 1028.98 1242.89 1028.7 1240.13 1029.96 1239 C 1030.79 1240.9 1031.36 1242.07 1031.89 1244.12 L 1028.83 1245.06 z" fill="rgb(212,175,55)" transform="translate(0,0)"></path>
<path d="M 0 1412.04 C 125.474 1412.03 252.163 1413.44 377.542 1412.21 C 369.484 1443.2 359.965 1473.09 351.726 1503.72 L 349.548 1512.03 L 0 1512.25 L 0 1503.45 L 0 1412.04 z" fill="rgb(26,10,0)" transform="translate(0,0)"></path>
<path d="M 0 1503.45 C 94.684 1504.47 190.938 1502.25 285.708 1503.24 C 294.709 1503.33 347.133 1502.36 351.726 1503.72 L 349.548 1512.03 L 0 1512.25 L 0 1503.45 z" fill="rgb(107,0,0)" transform="translate(0,0)"></path>
<path d="M 853.448 1412.26 L 1229 1411.96 L 1229 1503.83 L 1229 1512.84 C 1114.65 1510.37 994.28 1512.06 879.536 1512.17 L 877.413 1503.17 C 872.962 1479.67 859.777 1437.41 853.448 1412.26 z" fill="rgb(26,10,0)" transform="translate(0,0)"></path>
<path d="M 877.413 1503.17 C 960.53 1504.13 1043.65 1504.27 1126.77 1503.59 C 1160.21 1503.55 1195.67 1502.96 1229 1503.83 L 1229 1512.84 C 1114.65 1510.37 994.28 1512.06 879.536 1512.17 L 877.413 1503.17 z" fill="rgb(107,0,0)" transform="translate(0,0)"></path>
<path d="M 879.536 1512.17 C 994.28 1512.06 1114.65 1510.37 1229 1512.84 L 1229 1599.98 L 1229 1610.89 L 1014.35 1610.21 C 977.707 1610.47 941.064 1610.4 904.425 1609.99 L 902.001 1600.49 C 895.042 1570.38 886.437 1541.87 879.536 1512.17 z" fill="rgb(26,10,0)" transform="translate(0,0)"></path>
<path d="M 902.001 1600.49 C 913.409 1599.77 928.824 1600.2 940.608 1600.19 L 1006.85 1600.02 L 1229 1599.98 L 1229 1610.89 L 1014.35 1610.21 C 977.707 1610.47 941.064 1610.4 904.425 1609.99 L 902.001 1600.49 z" fill="rgb(107,0,0)" transform="translate(0,0)"></path>
<path d="M 0 1512.25 L 349.548 1512.03 C 344.452 1527.91 339.961 1545.33 335.486 1561.55 C 332.219 1573.38 327.46 1588.49 325.064 1600.07 L 322.628 1609.97 C 215.087 1610.75 107.542 1610.79 0 1610.07 L 0 1599.71 L 0 1512.25 z" fill="rgb(26,10,0)" transform="translate(0,0)"></path>
<path d="M 0 1599.71 L 325.064 1600.07 L 322.628 1609.97 C 215.087 1610.75 107.542 1610.79 0 1610.07 L 0 1599.71 z" fill="rgb(107,0,0)" transform="translate(0,0)"></path>
<path d="M 904.425 1609.99 C 941.064 1610.4 977.707 1610.47 1014.35 1610.21 L 1229 1610.89 L 1229 1697.04 L 1229 1706.96 C 1192.31 1706.37 1153.21 1707.09 1116.36 1707.16 L 932.3 1707.01 L 929.512 1697.27 C 921.391 1668.11 913.028 1639.01 904.425 1609.99 z" fill="rgb(26,10,0)" transform="translate(0,0)"></path>
<path d="M 1229 1697.04 L 1229 1706.96 C 1192.31 1706.37 1153.21 1707.09 1116.36 1707.16 L 932.3 1707.01 L 929.512 1697.27 C 944.13 1698.02 959.792 1697.53 974.535 1697.56 C 1005.44 1697.83 1036.35 1697.72 1067.26 1697.21 L 1229 1697.04 z" fill="rgb(107,0,0)" transform="translate(0,0)"></path>
<path d="M 0 1610.07 C 107.542 1610.79 215.087 1610.75 322.628 1609.97 C 314.623 1635.66 303.305 1671.83 297.466 1697.67 L 294.649 1706.9 C 197.275 1705.77 97.6631 1707.33 0 1707.16 L 0 1697 L 0 1610.07 z" fill="rgb(26,10,0)" transform="translate(0,0)"></path>
<path d="M 0 1697 L 185.05 1697.06 C 221.796 1697.19 260.977 1698.34 297.466 1697.67 L 294.649 1706.9 C 197.275 1705.77 97.6631 1707.33 0 1707.16 L 0 1697 z" fill="rgb(107,0,0)" transform="translate(0,0)"></path>
<path d="M 932.3 1707.01 L 1116.36 1707.16 C 1153.21 1707.09 1192.31 1706.37 1229 1706.96 L 1229 1792.04 L 1229 1802.7 C 1164.04 1804.15 1096.63 1801.97 1031.49 1802.28 C 1007.86 1802.4 981.575 1801.44 958.23 1802.75 L 955.474 1793.05 C 948.847 1768.35 936.837 1730.8 932.3 1707.01 z" fill="rgb(26,10,0)" transform="translate(0,0)"></path>
<path d="M 1229 1792.04 L 1229 1802.7 C 1164.04 1804.15 1096.63 1801.97 1031.49 1802.28 C 1007.86 1802.4 981.575 1801.44 958.23 1802.75 L 955.474 1793.05 C 1045.31 1794.8 1138.88 1792.36 1229 1792.04 z" fill="rgb(139,69,19)" transform="translate(0,0)"></path>
<path d="M 1173.17 1730.92 C 1174.61 1731.02 1175.7 1732.27 1175.61 1733.72 C 1175.53 1735.16 1174.29 1736.27 1172.84 1736.19 C 1171.38 1736.11 1170.26 1734.86 1170.35 1733.39 C 1170.44 1731.93 1171.7 1730.82 1173.17 1730.92 z" fill="rgb(107,0,0)" transform="translate(0,0)"></path>
<path d="M 0 1707.16 C 97.6631 1707.33 197.275 1705.77 294.649 1706.9 C 289.463 1728.33 278.942 1771.93 271.728 1791.79 L 268.72 1800.52 C 235.824 1799.52 200.312 1800.07 167.265 1800.08 L 0 1800.18 L 0 1791.14 L 0 1707.16 z" fill="rgb(26,10,0)" transform="translate(0,0)"></path>
<path d="M 0 1791.14 L 186.83 1791.36 L 245.901 1791.1 C 250.285 1791.11 268.623 1791.06 271.728 1791.79 L 268.72 1800.52 C 235.824 1799.52 200.312 1800.07 167.265 1800.08 L 0 1800.18 L 0 1791.14 z" fill="rgb(107,0,0)" transform="translate(0,0)"></path>
<path d="M 0 1800.18 L 167.265 1800.08 C 200.312 1800.07 235.824 1799.52 268.72 1800.52 C 267.321 1805.05 265.346 1810.6 264.993 1815.22 L 263.592 1818.25 C 258.72 1838.36 250.601 1868 244.287 1887.74 L 0 1888.2 L 0 1800.18 z" fill="rgb(26,10,0)" transform="translate(0,0)"></path>
<path d="M 263.592 1818.25 C 259.944 1817.91 261.055 1818.53 258.614 1816.38 L 258.946 1814.61 L 261.189 1813.67 L 264.993 1815.22 L 263.592 1818.25 z" fill="rgb(107,0,0)" transform="translate(0,0)"></path>
<path d="M 958.23 1802.75 C 981.575 1801.44 1007.86 1802.4 1031.49 1802.28 C 1096.63 1801.97 1164.04 1804.15 1229 1802.7 L 1229 1888.05 L 981.357 1888.01 C 972.349 1859.01 965.894 1831.98 958.23 1802.75 z" fill="rgb(26,10,0)" transform="translate(0,0)"></path>
<path d="M 1121.76 1875.67 C 1123.22 1880.21 1120.51 1885.93 1116.15 1887.73 L 1115.68 1885.37 C 1117.19 1880.81 1118.71 1879.35 1121.76 1875.67 z" fill="rgb(107,0,0)" transform="translate(0,0)"></path>
<path d="M 783.983 1178.15 C 781.391 1171.73 778.795 1166.79 784.994 1161.34 C 795.175 1158.64 791.746 1173.04 791.31 1177.75 C 790.448 1182.07 789.794 1184.68 791.597 1188.96 C 794.693 1198.88 799.009 1197.7 805.382 1205.48 C 807.196 1209.22 809.113 1213.04 810.85 1216.8 L 813.735 1225.27 L 815.281 1229.34 C 817.864 1239 808.336 1286.49 806.27 1299.63 C 806.821 1305.01 807.363 1310.81 801.906 1313.58 C 795.85 1311.18 797.965 1304.76 799.356 1299.8 C 800.629 1293.36 801.771 1279.08 802.563 1271.99 C 797.775 1270.75 795.165 1271.51 790.241 1272.32 C 789.209 1281.36 787.497 1295.26 783.673 1303.23 C 784.989 1307.65 785.732 1309.82 782.319 1313.1 C 774.77 1312.56 775.64 1304.71 775.497 1298.97 C 770.762 1276.98 768.764 1259.68 769.013 1237.14 C 769.05 1233.81 769.15 1228.76 767.923 1225.86 C 765.719 1224.43 766.43 1224.99 765.251 1222.16 C 763.605 1224.29 763.331 1224.52 761.199 1226.23 L 760.651 1226.67 C 759.556 1217.67 765.803 1205.09 772.714 1199.22 C 774.605 1198.08 778.627 1196.13 780.724 1195.05 C 782.636 1190.46 784.229 1183.15 783.983 1178.15 z" fill="rgb(245,220,150)" transform="translate(0,0)"></path>
<path d="M 781.887 1300.46 C 782.7 1287.6 775.462 1268.67 781.764 1257.74 C 784.462 1256.08 783.046 1256.35 786.148 1256.88 C 789.193 1258.95 789.761 1261.38 791.22 1264.84 C 792.139 1261.5 792.289 1259.74 795.101 1257.62 C 803.666 1256.41 803.791 1265.98 802.563 1271.99 C 797.775 1270.75 795.165 1271.51 790.241 1272.32 C 789.209 1281.36 787.497 1295.26 783.673 1303.23 L 781.887 1300.46 z" fill="rgb(107,0,0)" transform="translate(0,0)"></path>
<path d="M 810.85 1216.8 L 813.735 1225.27 L 811.476 1225.83 C 808.011 1224.4 807.247 1222.91 805.066 1219.97 L 810.85 1216.8 z" fill="rgb(255,254,254)" transform="translate(0,0)"></path>
<path d="M 781.168 1201.92 C 782.089 1199.87 783.214 1199.19 784.931 1197.76 C 785.942 1202 787.162 1207.95 788.4 1211.98 C 785.173 1212.72 783.881 1212.91 780.577 1213.12 L 781.168 1201.92 z" fill="rgb(26,10,0)" transform="translate(0,0)"></path>
<path d="M 436.721 1181.53 C 436.678 1176.76 436.465 1176.49 434.34 1172.33 C 430.255 1164.31 437.192 1156.33 445.636 1162.75 C 449.436 1170.3 443.913 1171.27 443.906 1179.53 L 443.979 1180.48 C 444.356 1185.63 443.163 1191.29 444.358 1195.02 L 445.998 1196.41 C 457.172 1197.23 467.876 1215.7 464.204 1224.08 C 461.474 1225.4 462.72 1225.24 459.537 1224.39 C 458.474 1231.72 459.116 1244.94 458.963 1252.86 C 458.673 1267.9 455.979 1284.78 451.751 1299.14 C 453.153 1304.98 455.005 1312.23 447.803 1314.53 C 441.85 1311.12 443.922 1305.67 445.493 1300.1 C 446.466 1295.43 446.704 1292.99 447.021 1288.21 C 446.748 1283.82 447.745 1278.97 446.314 1274.78 C 443.86 1267.61 433.104 1270.02 427.828 1272.36 C 428.385 1281.03 429.126 1290.23 429.303 1298.86 C 430.663 1304.2 432.1 1308.92 429.388 1314.1 C 425.192 1315.44 424.167 1312.74 422.025 1309.51 C 422.067 1306.19 422.995 1302.26 422.896 1298.32 C 422.652 1288.48 421.741 1278.59 420.936 1268.79 C 421.223 1260.17 422.637 1258.31 415.853 1252.38 C 414.761 1247.66 413.938 1242.36 413.085 1237.55 C 411.228 1230.33 413.633 1229.35 417.367 1223.3 C 418.26 1217.31 421.272 1211.32 423.725 1205.72 C 432.047 1196.25 435.305 1193.94 436.721 1181.53 z" fill="rgb(245,220,150)" transform="translate(0,0)"></path>
<path d="M 431.99 1256.62 C 433.526 1258.81 436.346 1263.48 438.462 1264.56 L 439.418 1260.33 L 441.727 1261.4 C 444.322 1259.08 444.6 1257.98 447.526 1257.77 C 452.647 1263.35 448.649 1281.14 447.021 1288.21 C 446.748 1283.82 447.745 1278.97 446.314 1274.78 C 443.86 1267.61 433.104 1270.02 427.828 1272.36 C 428.001 1265.95 429.214 1262.45 431.99 1256.62 z" fill="rgb(26,10,0)" transform="translate(0,0)"></path>
<path d="M 445.963 1196.87 C 446.966 1201.92 445.817 1208.18 444.347 1213.08 C 440.59 1212.74 441.694 1213.38 439.233 1211.19 C 440.217 1204.89 439.601 1199.14 445.963 1196.87 z" fill="rgb(26,10,0)" transform="translate(0,0)"></path>
<path d="M 738.938 1134.71 C 741.45 1138.12 744.02 1141.99 746.453 1145.49 C 752.096 1152.04 753.18 1158.43 760.161 1165.38 L 760.002 1166.68 C 758.118 1165.74 757.374 1165.21 755.704 1164.03 C 751.785 1165.52 753.018 1165.72 749.708 1164.7 C 745.201 1159.72 743.33 1152.07 745.046 1145.56 L 742.999 1143.66 C 741.033 1147.24 743.681 1158.13 744.761 1162.17 C 745.956 1162.97 747.135 1163.8 748.299 1164.64 C 745.829 1164.74 745.91 1164.63 743.606 1163.56 C 744.222 1168.1 744.943 1171.49 743.324 1175.9 C 744.56 1183.89 746.008 1182.95 753.555 1186.27 C 752.403 1188.75 750.357 1189.02 747.344 1190.52 L 741.917 1195.7 C 742.111 1204.48 741.989 1212.52 741.754 1221.3 C 744.653 1223.24 745.402 1223.86 748.842 1224.78 L 747.772 1228.61 C 748.628 1229.68 749.434 1230.76 750.374 1231.76 C 740.551 1237.98 743.205 1235.26 742.704 1246.55 L 739.641 1246.64 L 738.938 1246.65 C 729.762 1240.67 738.176 1234.46 727.587 1229.24 C 727.299 1233.06 728.096 1244.58 726.684 1246.75 C 726.572 1245.01 725.103 1228.78 725.115 1228.73 C 727.403 1216.34 719.857 1202.48 708.64 1196.73 C 708.037 1192.5 707.906 1187.55 707.683 1183.22 L 707.544 1179.99 C 709.359 1177.78 709.957 1177.05 711.261 1174.49 L 711.537 1173.93 L 712.35 1173 C 714.695 1174.59 713.43 1174.17 716.29 1174.28 C 718.836 1172.13 719.881 1170.96 723.191 1170.13 L 729.637 1166.31 C 730.836 1163.69 736.604 1160.13 739.181 1158.51 L 738.938 1134.71 z" fill="rgb(26,10,0)" transform="translate(0,0)"></path>
<path d="M 739.764 1220.71 L 741.754 1221.3 C 744.653 1223.24 745.402 1223.86 748.842 1224.78 L 747.772 1228.61 C 748.628 1229.68 749.434 1230.76 750.374 1231.76 C 740.551 1237.98 743.205 1235.26 742.704 1246.55 L 739.641 1246.64 L 738.938 1246.65 C 739.266 1237.34 739.053 1235.24 731.829 1229.21 C 734.047 1227.36 737.707 1223.02 739.764 1220.71 z" fill="rgb(236,26,1)" transform="translate(0,0)"></path>
<path d="M 740.682 1176.6 L 743.324 1175.9 C 744.56 1183.89 746.008 1182.95 753.555 1186.27 C 752.403 1188.75 750.357 1189.02 747.344 1190.52 L 741.917 1195.7 L 740.157 1194.58 L 730.124 1186.24 C 737.053 1183.74 738.1 1183.57 740.682 1176.6 z" fill="rgb(236,26,1)" transform="translate(0,0)"></path>
<path d="M 740.157 1194.58 L 741.917 1195.7 C 742.111 1204.48 741.989 1212.52 741.754 1221.3 L 739.764 1220.71 L 740.157 1194.58 z" fill="rgb(139,69,19)" transform="translate(0,0)"></path>
<path d="M 747.344 1190.52 C 747.229 1198.27 745.689 1210.96 749.81 1217.37 C 753.014 1220.47 756.807 1223.95 759.634 1227.32 C 754.871 1230.94 754.4 1228.17 750.374 1231.76 C 749.434 1230.76 748.628 1229.68 747.772 1228.61 L 748.842 1224.78 C 745.402 1223.86 744.653 1223.24 741.754 1221.3 C 741.989 1212.52 742.111 1204.48 741.917 1195.7 L 747.344 1190.52 z" fill="rgb(26,10,0)" transform="translate(0,0)"></path>
<path d="M 803.5 1188.76 C 806.509 1189.5 807.99 1189.23 809.378 1191.56 C 814.726 1200.55 811.373 1208.79 819.276 1216.11 L 815.164 1216.67 C 813.084 1222.75 816.615 1222.81 815.281 1229.34 L 813.735 1225.27 L 810.85 1216.8 C 809.113 1213.04 807.196 1209.22 805.382 1205.48 L 806.901 1205.1 L 807.774 1203.22 C 807.996 1199.05 805.098 1192.88 803.5 1188.76 z" fill="rgb(26,10,0)" transform="translate(0,0)"></path>
<path d="M 700.035 1174.19 C 697.753 1169.72 697.854 1168.65 699.996 1164.51 C 706.852 1159.47 714.711 1163.47 712.35 1173 L 711.537 1173.93 C 707.814 1175.17 703.987 1174.51 700.035 1174.19 z" fill="rgb(248,242,221)" transform="translate(0,0)"></path>
<path d="M 474.051 1186.04 C 480.596 1181.53 479.719 1179.08 484.804 1175.56 L 486.334 1175.94 L 488.275 1180.56 C 489.416 1184.68 491.088 1184.49 495.366 1185.84 C 494.217 1188.34 492.993 1188.62 490.525 1190.39 C 488.861 1202.36 488.926 1211.57 489.267 1223.67 C 490.946 1225.37 491.554 1225.94 492.878 1227.9 C 492.328 1233.79 486.624 1236.13 484.919 1246.42 C 484.839 1250.51 484.145 1259.07 482.464 1262.7 L 481.439 1263.04 L 479.827 1259.38 C 478.323 1249.07 476.586 1241.15 474.2 1230.97 L 473.345 1229.31 C 470.515 1216.89 468.027 1203.16 472.801 1190.84 C 473.762 1188.35 473.891 1189.37 474.051 1186.04 z" fill="rgb(26,10,0)" transform="translate(0,0)"></path>
<path d="M 485.453 1218.99 L 489.267 1223.67 C 490.946 1225.37 491.554 1225.94 492.878 1227.9 C 492.328 1233.79 486.624 1236.13 484.919 1246.42 C 483.834 1238.82 480.78 1235.25 475.004 1230.38 C 477.781 1225.85 480.956 1221.84 485.453 1218.99 z" fill="rgb(236,26,1)" transform="translate(0,0)"></path>
<path d="M 474.051 1186.04 C 480.596 1181.53 479.719 1179.08 484.804 1175.56 L 486.334 1175.94 L 488.275 1180.56 C 489.416 1184.68 491.088 1184.49 495.366 1185.84 C 494.217 1188.34 492.993 1188.62 490.525 1190.39 C 487.887 1192.68 486.279 1193.69 484.762 1196.85 C 480.025 1192.02 480.153 1191.29 474.051 1186.04 z" fill="rgb(236,26,1)" transform="translate(0,0)"></path>
<path d="M 474.051 1186.04 C 475.393 1174.68 475.386 1129.4 477.976 1122.56 C 480.585 1132.36 476.158 1160.65 481.039 1176.08 C 486.419 1171.95 483.883 1128.71 486.349 1122.43 C 487.521 1127.56 487.301 1169.84 488.275 1180.56 L 486.334 1175.94 L 484.804 1175.56 C 479.719 1179.08 480.596 1181.53 474.051 1186.04 z" fill="rgb(26,10,0)" transform="translate(0,0)"></path>
<path d="M 616.65 0 L 754.416 0 L 764.446 0 L 901.699 0 L 912.593 0 L 1073.61 0 L 1084.86 0 L 1229 0 L 1229 60.0727 L 1229 75.5364 L 1229 271.907 L 1229 285.187 L 1229 436.423 L 1229 445.903 L 1229 491.826 C 1211.62 492.546 1196.06 492.764 1178.97 496.927 C 1136.71 507.224 1104.13 537.328 1070.82 563.441 C 1052.21 578.031 1032.23 594.393 1013.06 608.075 L 998.215 619.586 L 983.13 608.02 C 967.494 595.542 951.612 583.377 935.491 571.532 L 927.291 565.991 C 923.119 564.34 908.425 553.906 903.89 550.794 C 900.678 546.889 891.758 539.164 887.619 536.306 L 880.42 531.165 C 865.421 522.318 855.423 514.673 839.196 506.643 L 832.233 502.719 C 817.603 494.713 804.099 488.912 788.85 482.482 L 780.817 479.661 C 774.654 478.586 740.492 467.424 732.385 465.01 L 724.699 463.089 C 721.106 462.958 685.214 456.046 680.289 455.031 L 672.185 453.503 C 662.086 452.732 623.25 451.821 617.352 449.808 L 616.482 447.201 C 617.622 429.206 616.948 404.79 616.939 386.289 L 616.841 278.932 C 616.735 186.413 617.823 92.382 616.65 0 z" fill="rgb(248,242,221)" transform="translate(0,0)"></path>
<path d="M 1229 75.5364 L 1229 271.907 L 1229 285.187 L 1229 436.423 L 1229 445.903 L 1229 491.826 C 1211.62 492.546 1196.06 492.764 1178.97 496.927 C 1136.71 507.224 1104.13 537.328 1070.82 563.441 C 1052.21 578.031 1032.23 594.393 1013.06 608.075 L 998.215 619.586 L 983.13 608.02 C 967.494 595.542 951.612 583.377 935.491 571.532 L 927.291 565.991 C 923.119 564.34 908.425 553.906 903.89 550.794 C 900.678 546.889 891.758 539.164 887.619 536.306 L 880.42 531.165 C 865.421 522.318 855.423 514.673 839.196 506.643 C 920.313 419.908 1000.35 332.167 1079.28 243.441 L 1190.76 118.677 C 1203.18 104.561 1217.14 89.759 1229 75.5364 z" fill="rgb(248,242,221)" transform="translate(0,0)"></path>
<path d="M 887.619 536.306 L 1131.51 358.589 C 1163.87 334.577 1197.47 310.209 1229 285.187 L 1229 436.423 L 1229 445.903 L 1229 491.826 C 1211.62 492.546 1196.06 492.764 1178.97 496.927 C 1136.71 507.224 1104.13 537.328 1070.82 563.441 C 1052.21 578.031 1032.23 594.393 1013.06 608.075 L 998.215 619.586 L 983.13 608.02 C 967.494 595.542 951.612 583.377 935.491 571.532 L 927.291 565.991 C 923.119 564.34 908.425 553.906 903.89 550.794 C 900.678 546.889 891.758 539.164 887.619 536.306 z" fill="rgb(248,242,221)" transform="translate(0,0)"></path>
<path d="M 1229 445.903 L 1229 491.826 C 1211.62 492.546 1196.06 492.764 1178.97 496.927 C 1136.71 507.224 1104.13 537.328 1070.82 563.441 C 1052.21 578.031 1032.23 594.393 1013.06 608.075 L 998.215 619.586 L 983.13 608.02 C 967.494 595.542 951.612 583.377 935.491 571.532 C 986.846 550.096 1038.02 528.225 1089 505.919 L 1229 445.903 z" fill="rgb(248,242,221)" transform="translate(0,0)"></path>
<path d="M 983.13 608.02 L 1013.06 608.075 L 998.215 619.586 L 983.13 608.02 z" fill="rgb(26,107,58)" transform="translate(0,0)"></path>
<path d="M 927.291 565.991 L 1229 436.423 L 1229 445.903 L 1089 505.919 C 1038.02 528.225 986.846 550.096 935.491 571.532 L 927.291 565.991 z" fill="rgb(26,107,58)" transform="translate(0,0)"></path>
<path d="M 1229 271.907 L 1229 285.187 C 1197.47 310.209 1163.87 334.577 1131.51 358.589 L 887.619 536.306 L 880.42 531.165 C 904.782 514.657 930.843 494.541 955.101 477.166 C 1047.57 410.316 1138.88 341.887 1229 271.907 z" fill="rgb(26,107,58)" transform="translate(0,0)"></path>
<path d="M 616.65 0 L 754.416 0 L 764.446 0 L 901.699 0 C 894.264 24.2408 878.851 61.0167 869.605 86.2068 C 839.59 167.484 808.889 248.505 777.505 329.263 L 743.916 414.038 C 737.843 429.264 729.891 447.828 724.699 463.089 C 721.106 462.958 685.214 456.046 680.289 455.031 L 672.185 453.503 C 662.086 452.732 623.25 451.821 617.352 449.808 L 616.482 447.201 C 617.622 429.206 616.948 404.79 616.939 386.289 L 616.841 278.932 C 616.735 186.413 617.823 92.382 616.65 0 z" fill="rgb(248,242,221)" transform="translate(0,0)"></path>
<path d="M 616.65 0 L 754.416 0 C 745.603 44.086 737.81 93.2557 730.212 137.723 L 704.085 283.683 C 698.117 317.779 691.786 351.81 685.093 385.772 C 681.501 403.812 674.084 435.911 672.185 453.503 C 662.086 452.732 623.25 451.821 617.352 449.808 L 616.482 447.201 C 617.622 429.206 616.948 404.79 616.939 386.289 L 616.841 278.932 C 616.735 186.413 617.823 92.382 616.65 0 z" fill="rgb(248,242,221)" transform="translate(0,0)"></path>
<path d="M 754.416 0 L 764.446 0 C 754.786 47.6681 746.952 96.2898 738.485 144.257 L 701.23 347.129 C 694.968 379.974 687.959 422.977 680.289 455.031 L 672.185 453.503 C 674.084 435.911 681.501 403.812 685.093 385.772 C 691.786 351.81 698.117 317.779 704.085 283.683 L 730.212 137.723 C 737.81 93.2557 745.603 44.086 754.416 0 z" fill="rgb(26,107,58)" transform="translate(0,0)"></path>
<path d="M 901.699 0 L 912.593 0 L 1073.61 0 L 875.034 327.909 C 844.181 378.019 810.896 429.452 780.817 479.661 C 774.654 478.586 740.492 467.424 732.385 465.01 L 724.699 463.089 C 729.891 447.828 737.843 429.264 743.916 414.038 L 777.505 329.263 C 808.889 248.505 839.59 167.484 869.605 86.2068 C 878.851 61.0167 894.264 24.2408 901.699 0 z" fill="rgb(248,242,221)" transform="translate(0,0)"></path>
<path d="M 901.699 0 L 912.593 0 C 869.972 114.613 826.207 228.798 781.304 342.536 C 765.28 382.585 749.526 425.74 732.385 465.01 L 724.699 463.089 C 729.891 447.828 737.843 429.264 743.916 414.038 L 777.505 329.263 C 808.889 248.505 839.59 167.484 869.605 86.2068 C 878.851 61.0167 894.264 24.2408 901.699 0 z" fill="rgb(26,107,58)" transform="translate(0,0)"></path>
<path d="M 832.233 502.719 C 965.889 356.431 1098.15 208.876 1229 60.0727 L 1229 75.5364 C 1217.14 89.759 1203.18 104.561 1190.76 118.677 L 1079.28 243.441 C 1000.35 332.167 920.313 419.908 839.196 506.643 L 832.233 502.719 z" fill="rgb(26,107,58)" transform="translate(0,0)"></path>
<path d="M 1073.61 0 L 1084.86 0 C 1078.05 13.4421 1067.05 30.5349 1059.11 43.6634 L 1011.23 122.411 C 964.712 199.694 917.513 276.568 869.641 353.021 C 853.002 379.232 836.363 406.214 820.091 432.645 C 814.06 442.442 792.45 473.952 788.85 482.482 L 780.817 479.661 C 810.896 429.452 844.181 378.019 875.034 327.909 L 1073.61 0 z" fill="rgb(26,107,58)" transform="translate(0,0)"></path>
<path d="M 0 0 L 144.001 0 L 155.551 0 L 315.413 0 L 325.683 0 L 457.402 0 L 466.703 0 L 607.991 0 L 616.65 0 C 617.823 92.382 616.735 186.413 616.841 278.932 L 616.939 386.289 C 616.948 404.79 617.622 429.206 616.482 447.201 L 615.707 449.77 C 612.574 451.016 611.319 450.68 607.976 450.464 C 590.549 451.396 573.294 452.953 556.074 453.904 C 553.285 454.103 550.529 454.188 547.736 454.291 C 542.609 455.376 506.474 462.275 502.844 462.267 L 495.116 464.518 C 477.448 468.481 464.916 472.447 447.504 477.987 L 439.455 481.226 C 426.754 485.367 405.969 495.251 396.659 497.812 L 389.081 501.687 C 373.839 508.924 358.93 517.854 344.351 526.399 L 335.72 531.475 C 325.473 539.102 302.632 557.528 292.892 563.681 C 290.161 565.808 287.466 567.982 284.809 570.2 C 275.171 564.737 254.816 556.266 244.328 551.686 L 173.552 520.82 C 116.455 495.714 56.8136 467.327 0 443.244 L 0 432.644 L 0 286.583 L 0 273.283 L 0 76.759 L 0 62.7666 L 0 0 z" fill="rgb(248,242,221)" transform="translate(0,0)"></path>
<path d="M 155.551 0 L 315.413 0 L 325.683 0 L 457.402 0 L 466.703 0 L 607.991 0 L 616.65 0 C 617.823 92.382 616.735 186.413 616.841 278.932 L 616.939 386.289 C 616.948 404.79 617.622 429.206 616.482 447.201 L 615.707 449.77 C 612.574 451.016 611.319 450.68 607.976 450.464 C 590.549 451.396 573.294 452.953 556.074 453.904 C 553.285 454.103 550.529 454.188 547.736 454.291 C 542.609 455.376 506.474 462.275 502.844 462.267 L 495.116 464.518 C 477.448 468.481 464.916 472.447 447.504 477.987 C 412.612 417.902 369.353 352.93 332.33 293.158 C 272.815 195.795 213.887 98.074 155.551 1.81899e-12 z" fill="rgb(248,242,221)" transform="translate(0,0)"></path>
<path d="M 466.703 0 L 607.991 0 L 616.65 0 C 617.823 92.382 616.735 186.413 616.841 278.932 L 616.939 386.289 C 616.948 404.79 617.622 429.206 616.482 447.201 L 615.707 449.77 C 612.574 451.016 611.319 450.68 607.976 450.464 C 590.549 451.396 573.294 452.953 556.074 453.904 C 553.573 434.861 548.581 412.766 544.737 393.753 L 526.13 300.751 L 466.703 0 z" fill="rgb(248,242,221)" transform="translate(0,0)"></path>
<path d="M 607.991 0 L 616.65 0 C 617.823 92.382 616.735 186.413 616.841 278.932 L 616.939 386.289 C 616.948 404.79 617.622 429.206 616.482 447.201 L 615.707 449.77 C 612.574 451.016 611.319 450.68 607.976 450.464 C 607.403 395.667 607.929 339.994 607.943 285.121 L 607.991 0 z" fill="rgb(26,107,58)" transform="translate(0,0)"></path>
<path d="M 325.683 0 L 457.402 0 L 466.703 0 L 526.13 300.751 L 544.737 393.753 C 548.581 412.766 553.573 434.861 556.074 453.904 C 553.285 454.103 550.529 454.188 547.736 454.291 C 542.609 455.376 506.474 462.275 502.844 462.267 C 487.772 420.889 467.303 373.984 450.779 332.447 C 419.538 254.266 389.441 175.633 360.497 96.5721 C 348.56 63.9428 336.712 33.0415 325.683 0 z" fill="rgb(248,242,221)" transform="translate(0,0)"></path>
<path d="M 457.402 0 L 466.703 0 L 526.13 300.751 L 544.737 393.753 C 548.581 412.766 553.573 434.861 556.074 453.904 C 553.285 454.103 550.529 454.188 547.736 454.291 C 526.413 352.947 506.149 251.383 486.949 149.616 C 477.649 101.806 465.22 47.7351 457.402 0 z" fill="rgb(26,107,58)" transform="translate(0,0)"></path>
<path d="M 315.413 0 L 325.683 0 C 336.712 33.0415 348.56 63.9428 360.497 96.5721 C 389.441 175.633 419.538 254.266 450.779 332.447 C 467.303 373.984 487.772 420.889 502.844 462.267 L 495.116 464.518 C 444.811 347.979 400.187 227.339 354.96 108.692 C 341.442 73.2318 327.281 35.9789 315.413 0 z" fill="rgb(26,107,58)" transform="translate(0,0)"></path>
<path d="M 0 0 L 144.001 0 L 155.551 0 C 213.887 98.074 272.815 195.795 332.33 293.158 C 369.353 352.93 412.612 417.902 447.504 477.987 L 439.455 481.226 C 426.754 485.367 405.969 495.251 396.659 497.812 L 389.081 501.687 C 301.907 413.888 223.332 326.722 140.985 234.989 L 58.2088 141.995 C 39.2012 120.832 18.0386 98.5163 0 76.759 L 0 62.7666 L 0 0 z" fill="rgb(248,242,221)" transform="translate(0,0)"></path>
<path d="M 0 62.7666 L 282.671 377.399 C 320.043 418.252 358.73 457.491 396.659 497.812 L 389.081 501.687 C 301.907 413.888 223.332 326.722 140.985 234.989 L 58.2088 141.995 C 39.2012 120.832 18.0386 98.5163 0 76.759 L 0 62.7666 z" fill="rgb(26,107,58)" transform="translate(0,0)"></path>
<path d="M 144.001 0 L 155.551 0 C 213.887 98.074 272.815 195.795 332.33 293.158 C 369.353 352.93 412.612 417.902 447.504 477.987 L 439.455 481.226 C 429.53 463.712 416.728 444.584 405.83 427.389 L 341.66 326.341 C 298.839 257.275 256.538 187.886 214.762 118.183 L 169.029 42.7317 C 161.696 30.5888 149.979 12.1807 144.001 0 z" fill="rgb(26,107,58)" transform="translate(0,0)"></path>
<path d="M 0 286.583 C 79.529 346.28 159.607 405.241 240.225 463.459 C 260.781 478.494 281.512 493.287 302.415 507.835 C 311.146 513.957 328.173 525.15 335.72 531.475 C 325.473 539.102 302.632 557.528 292.892 563.681 C 290.161 565.808 287.466 567.982 284.809 570.2 C 275.171 564.737 254.816 556.266 244.328 551.686 L 173.552 520.82 C 116.455 495.714 56.8136 467.327 0 443.244 L 0 432.644 L 0 286.583 z" fill="rgb(248,242,221)" transform="translate(0,0)"></path>
<path d="M 0 432.644 C 30.3526 445.347 61.0268 459.567 90.9283 473.347 C 157.76 504.146 226.262 532.606 292.892 563.681 C 290.161 565.808 287.466 567.982 284.809 570.2 C 275.171 564.737 254.816 556.266 244.328 551.686 L 173.552 520.82 C 116.455 495.714 56.8136 467.327 0 443.244 L 0 432.644 z" fill="rgb(26,107,58)" transform="translate(0,0)"></path>
<path d="M 0 273.283 C 10.0711 279.719 23.0839 290.649 33.0333 298.172 L 97.2442 346.316 C 176.539 405.4 262.982 471.048 344.351 526.399 L 335.72 531.475 C 328.173 525.15 311.146 513.957 302.415 507.835 C 281.512 493.287 260.781 478.494 240.225 463.459 C 159.607 405.241 79.529 346.28 0 286.583 L 0 273.283 z" fill="rgb(26,107,58)" transform="translate(0,0)"></path>
<path d="M 0 443.244 C 56.8136 467.327 116.455 495.714 173.552 520.82 L 244.328 551.686 C 254.816 556.266 275.171 564.737 284.809 570.2 C 287.466 567.982 290.161 565.808 292.892 563.681 C 302.632 557.528 325.473 539.102 335.72 531.475 L 344.351 526.399 C 358.93 517.854 373.839 508.924 389.081 501.687 L 396.659 497.812 C 405.969 495.251 426.754 485.367 439.455 481.226 L 447.504 477.987 C 464.916 472.447 477.448 468.481 495.116 464.518 L 502.844 462.267 C 506.474 462.275 542.609 455.376 547.736 454.291 C 550.529 454.188 553.285 454.103 556.074 453.904 C 573.294 452.953 590.549 451.396 607.976 450.464 C 611.319 450.68 612.574 451.016 615.707 449.77 L 616.482 447.201 L 617.352 449.808 C 623.25 451.821 662.086 452.732 672.185 453.503 L 680.289 455.031 C 685.214 456.046 721.106 462.958 724.699 463.089 L 732.385 465.01 C 740.492 467.424 774.654 478.586 780.817 479.661 L 788.85 482.482 C 804.099 488.912 817.603 494.713 832.233 502.719 L 839.196 506.643 C 855.423 514.673 865.421 522.318 880.42 531.165 L 887.619 536.306 C 891.758 539.164 900.678 546.889 903.89 550.794 C 908.425 553.906 923.119 564.34 927.291 565.991 L 935.491 571.532 C 951.612 583.377 967.494 595.542 983.13 608.02 L 998.215 619.586 C 964.861 644.534 931.939 670.397 898.434 695.211 C 894.795 697.907 878.341 709.7 876.473 712.175 L 875.977 715.135 C 878.895 718.434 878.904 717.406 879.068 721.03 C 875.321 730.994 863.743 733.14 859.205 742.201 C 858.549 743.512 854.67 766.899 854.657 766.833 L 856.697 767.544 L 855.33 768.468 C 832.407 764.366 822.988 766.168 801.262 772.429 C 781.095 781.233 770.957 788.79 758.532 807.026 C 720.602 754.155 648.566 751.34 614.572 809.759 C 596.813 779.056 562.171 762.435 527.017 767.264 C 526.575 766.247 525.806 763.897 525.857 762.845 C 526.219 755.363 518.308 753.949 517.751 748.571 C 498.101 763.663 477.499 779.109 458.772 795.226 C 439.507 777.503 419.18 765.856 391.775 766.961 C 369.101 767.736 347.736 777.77 332.661 794.724 C 327.634 800.273 324.454 804.983 321.017 811.557 C 309.223 790.531 290.587 776.557 267.497 770.123 C 245.768 764.146 222.547 767.171 203.075 778.516 C 188.884 786.704 179.558 796.747 171.175 810.647 C 168.323 806.508 165.409 802.131 162.409 798.121 L 161.67 797.223 C 143.776 775.583 124.911 768.309 97.6556 765.809 C 68.406 768.336 51.6491 776.242 32.5069 798.916 C 31.793 799.762 31.086 800.615 30.386 801.473 L 0 801.71 L 0 493.066 L 0 443.244 z" fill="rgb(212,175,55)" transform="translate(0,0)"></path>
<path d="M 575.394 703.586 C 585.399 696.968 606.914 678.51 617.537 670.098 C 647.777 646.391 677.829 622.447 707.691 598.266 C 735.436 575.587 755.825 553.728 789.591 540.796 C 832.946 524.19 863.6 533.277 903.89 550.794 C 908.425 553.906 923.119 564.34 927.291 565.991 L 935.491 571.532 C 951.612 583.377 967.494 595.542 983.13 608.02 L 998.215 619.586 C 964.861 644.534 931.939 670.397 898.434 695.211 C 894.795 697.907 878.341 709.7 876.473 712.175 L 875.977 715.135 C 878.895 718.434 878.904 717.406 879.068 721.03 C 875.321 730.994 863.743 733.14 859.205 742.201 C 858.549 743.512 854.67 766.899 854.657 766.833 L 856.697 767.544 L 855.33 768.468 C 832.407 764.366 822.988 766.168 801.262 772.429 C 781.095 781.233 770.957 788.79 758.532 807.026 C 720.602 754.155 648.566 751.34 614.572 809.759 C 596.813 779.056 562.171 762.435 527.017 767.264 C 526.575 766.247 525.806 763.897 525.857 762.845 C 526.219 755.363 518.308 753.949 517.751 748.571 C 525.242 740.558 564.46 712.05 575.394 703.586 z" fill="url(#Gradient5)" transform="translate(0,0)"></path>
<path d="M 876.473 712.175 L 875.977 715.135 C 878.895 718.434 878.904 717.406 879.068 721.03 C 875.321 730.994 863.743 733.14 859.205 742.201 C 858.549 743.512 854.67 766.899 854.657 766.833 L 856.697 767.544 L 855.33 768.468 C 832.407 764.366 822.988 766.168 801.262 772.429 C 803.253 766.76 867.338 719.003 876.473 712.175 z" fill="rgb(212,175,55)" transform="translate(0,0)"></path>
<path d="M 244.615 643.128 C 288.622 605.471 314.518 572.157 377.976 577.154 C 393.699 578.248 409.035 582.53 423.05 589.74 C 438.065 597.462 452.269 609.183 465.669 619.572 L 508.091 652.262 C 529.689 668.87 554.799 686.247 575.394 703.586 C 564.46 712.05 525.242 740.558 517.751 748.571 C 498.101 763.663 477.499 779.109 458.772 795.226 C 439.507 777.503 419.18 765.856 391.775 766.961 C 369.101 767.736 347.736 777.77 332.661 794.724 C 327.634 800.273 324.454 804.983 321.017 811.557 C 309.223 790.531 290.587 776.557 267.497 770.123 C 245.768 764.146 222.547 767.171 203.075 778.516 C 188.884 786.704 179.558 796.747 171.175 810.647 C 168.323 806.508 165.409 802.131 162.409 798.121 C 163.345 793.4 166.155 790.416 167.771 786.132 C 170.414 779.12 161.877 778.484 158.645 771.98 C 158.739 771.092 158.915 768.299 158.652 767.555 C 154.674 756.299 149.231 745.714 146.098 734.093 C 146.098 734.093 143.032 731.651 142.727 731.409 C 143.192 729.077 143.494 728.55 144.493 726.363 C 148.724 720.093 235.473 649.983 244.615 643.128 z" fill="url(#Gradient4)" transform="translate(0,0)"></path>
<path d="M 0 443.244 C 56.8136 467.327 116.455 495.714 173.552 520.82 L 244.328 551.686 C 254.816 556.266 275.171 564.737 284.809 570.2 C 278.236 576.12 241.74 611.84 238.045 612.688 C 228.116 610.404 217.769 609.01 207.675 607.495 C 200.133 602.193 189.364 591.614 182.171 584.997 C 163.98 567.955 145.66 551.053 127.21 534.292 C 118.964 526.805 110.848 519.426 102.368 512.205 C 73.6438 487.744 35.5161 486.305 0 493.066 L 0 443.244 z" fill="rgb(248,242,221)" transform="translate(0,0)"></path>
<path d="M 207.675 607.495 C 217.769 609.01 228.116 610.404 238.045 612.688 C 240.473 620.047 226.389 621.058 221.479 620.291 C 219.962 618.032 210.548 610.241 207.675 607.495 z" fill="rgb(26,107,58)" transform="translate(0,0)"></path>
<path d="M 1013.06 608.075 C 1032.23 594.393 1052.21 578.031 1070.82 563.441 C 1104.13 537.328 1136.71 507.224 1178.97 496.927 C 1196.06 492.764 1211.62 492.546 1229 491.826 L 1229 803.068 L 1229 867.39 C 1174.33 847.933 1156.23 866.195 1117.85 900.313 C 1101.31 915.019 1080.83 932.417 1063.36 945.915 C 1030.47 919.278 997.972 892.164 965.873 864.58 C 941.24 843.155 918.965 819.946 890.762 803.09 C 812.611 756.381 754.454 812.013 696.95 858.95 L 623.423 918.82 C 588.932 899.176 555.812 878.937 520.725 860.071 C 486.141 841.475 463.122 824.213 423.163 816.701 C 363.659 805.514 307.85 836.162 260.284 868.985 C 234.279 851.866 208.973 832.747 178.237 828.39 C 116.375 819.621 90.2456 837.666 44.2026 872.181 C 29.5799 882.918 14.8449 893.501 0 903.929 L 0 801.71 L 30.386 801.473 C 31.086 800.615 31.793 799.762 32.5069 798.916 C 51.6491 776.242 68.406 768.336 97.6556 765.809 C 124.911 768.309 143.776 775.583 161.67 797.223 L 162.409 798.121 C 165.409 802.131 168.323 806.508 171.175 810.647 C 179.558 796.747 188.884 786.704 203.075 778.516 C 222.547 767.171 245.768 764.146 267.497 770.123 C 290.587 776.557 309.223 790.531 321.017 811.557 C 324.454 804.983 327.634 800.273 332.661 794.724 C 347.736 777.77 369.101 767.736 391.775 766.961 C 419.18 765.856 439.507 777.503 458.772 795.226 C 477.499 779.109 498.101 763.663 517.751 748.571 C 518.308 753.949 526.219 755.363 525.857 762.845 C 525.806 763.897 526.575 766.247 527.017 767.264 C 562.171 762.435 596.813 779.056 614.572 809.759 C 648.566 751.34 720.602 754.155 758.532 807.026 C 770.957 788.79 781.095 781.233 801.262 772.429 C 822.988 766.168 832.407 764.366 855.33 768.468 L 856.697 767.544 L 854.657 766.833 C 854.67 766.899 858.549 743.512 859.205 742.201 C 863.743 733.14 875.321 730.994 879.068 721.03 C 878.904 717.406 878.895 718.434 875.977 715.135 L 876.473 712.175 C 878.341 709.7 894.795 697.907 898.434 695.211 C 931.939 670.397 964.861 644.534 998.215 619.586 L 1013.06 608.075 z" fill="rgb(26,10,0)" transform="translate(0,0)"></path>
<path d="M 1013.06 608.075 C 1032.23 594.393 1052.21 578.031 1070.82 563.441 C 1104.13 537.328 1136.71 507.224 1178.97 496.927 C 1196.06 492.764 1211.62 492.546 1229 491.826 L 1229 803.068 L 1203.16 803.079 C 1195.48 794.067 1186.5 786.24 1176.53 779.853 C 1137.49 755.034 1081.3 767.526 1056.65 806.635 C 1041.5 784.364 1011.98 766.853 984.752 766.784 C 951.234 766.7 931.482 780.509 908.396 803.003 C 893.251 783.532 877.646 776.42 855.33 768.468 L 856.697 767.544 L 854.657 766.833 C 854.67 766.899 858.549 743.512 859.205 742.201 C 863.743 733.14 875.321 730.994 879.068 721.03 C 878.904 717.406 878.895 718.434 875.977 715.135 L 876.473 712.175 C 878.341 709.7 894.795 697.907 898.434 695.211 C 931.939 670.397 964.861 644.534 998.215 619.586 L 1013.06 608.075 z" fill="url(#Gradient3)" transform="translate(0,0)"></path>
<path d="M 517.751 748.571 C 518.308 753.949 526.219 755.363 525.857 762.845 C 525.806 763.897 526.575 766.247 527.017 767.264 C 504.521 771.956 484.502 781.244 471.324 801.244 C 469.978 803.324 468.694 805.445 467.476 807.603 C 464.207 802.059 462.965 800.022 458.772 795.226 C 477.499 779.109 498.101 763.663 517.751 748.571 z" fill="rgb(212,175,55)" transform="translate(0,0)"></path>
<path d="M 260.284 868.985 C 307.85 836.162 363.659 805.514 423.163 816.701 C 463.122 824.213 486.141 841.475 520.725 860.071 C 555.812 878.937 588.932 899.176 623.423 918.82 C 602.173 936.363 580.725 953.666 559.083 970.723 C 552.272 976.186 536.161 987.953 531.067 993.833 C 514.459 979.444 495.53 971.916 473.241 973.476 C 453.004 974.945 434.194 984.442 420.997 999.854 C 416.242 1005.36 412.342 1011.55 409.427 1018.21 C 403.428 1006.52 399.723 1000.11 389.522 991.062 C 352.47 958.181 294.003 969.822 274.137 1016.43 C 261.016 995.565 246.599 981.21 221.461 975.305 C 202.752 970.803 183.017 974.05 166.736 984.307 C 152.549 993.268 143.571 1005.55 136.932 1020.71 C 133.123 1013.65 129.896 1007.45 124.596 1001.33 C 87.2475 958.239 27.4971 965.768 0 1014.4 L 0 903.929 C 14.8449 893.501 29.5799 882.918 44.2026 872.181 C 90.2456 837.666 116.375 819.621 178.237 828.39 C 208.973 832.747 234.279 851.866 260.284 868.985 z" fill="rgb(212,175,55)" transform="translate(0,0)"></path>
<path d="M 623.423 918.82 L 696.95 858.95 C 754.454 812.013 812.611 756.381 890.762 803.09 C 918.965 819.946 941.24 843.155 965.873 864.58 C 997.972 892.164 1030.47 919.278 1063.36 945.915 C 1057.88 950.076 1033.19 968.339 1030.44 972.182 C 1030.96 972.956 1031.02 973.302 1031.71 973.713 C 996.968 972.084 971.28 988.051 956.769 1019.52 C 926.161 959.78 850.542 958.137 820.739 1019.11 C 788.778 958.462 710.368 957.218 680.041 1019.21 C 670.877 998.959 659.562 985.643 637.836 977.588 C 620.224 970.898 600.644 971.689 583.629 979.778 C 566.425 987.982 555.782 1000.09 548.396 1017.34 C 542.697 1007.06 539.213 1002.4 531.067 993.833 C 536.161 987.953 552.272 976.186 559.083 970.723 C 580.725 953.666 602.173 936.363 623.423 918.82 z" fill="url(#Gradient2)" transform="translate(0,0)"></path>
<path d="M 1063.36 945.915 C 1080.83 932.417 1101.31 915.019 1117.85 900.313 C 1156.23 866.195 1174.33 847.933 1229 867.39 L 1229 1013.3 C 1201.93 964.518 1137.7 958.657 1103.52 1004.04 C 1098.92 1010.16 1096.46 1016.03 1093.39 1022.96 C 1084.66 994.802 1060.86 976.457 1031.71 973.713 C 1031.02 973.302 1030.96 972.956 1030.44 972.182 C 1033.19 968.339 1057.88 950.076 1063.36 945.915 z" fill="url(#Gradient1)" transform="translate(0,0)"></path>
<path d="M 0 1041.79 L 295.151 1041.03 L 402.338 1041.26 C 414.774 1041.29 438.033 1042.17 449.78 1041.55 L 447.207 1052.02 L 0 1051.1 L 0 1041.79 z" fill="rgb(107,0,0)" transform="translate(0,0)"></path>
<path d="M 777.914 1041.89 C 820.677 1041.1 863.439 1041.91 906.165 1041.86 L 1229 1040.88 L 1229 1051.16 C 1204.91 1052.34 1174.08 1051.51 1149.81 1051.31 L 1046.71 1051 C 958.041 1050.63 869.014 1051.76 780.361 1050.8 C 780.008 1048.76 778.551 1044.13 777.914 1041.89 z" fill="rgb(107,0,0)" transform="translate(0,0)"></path>
<metadata><recraft-signature>{"signed_by": "recraft", "signature_b64": "DzoryVdACpDXCclTs5tAO/lQOPacx/RLlbxjhPbwgNxQOivc4oOfPS2U8SCkp/tIY5YwYRje4ggxW8weYdS+Aw==", "signing_algo": "Ed25519", "generation_timestamp": 1773628366, "identifier": "cf22ca16-f13d-4f0a-ab06-2f956ce766ca"}</recraft-signature></metadata></svg>