<svg xmlns="http://www.w3.org/2000/svg" height="1707" preserveAspectRatio="none" style="display: block;" version="1.1" viewBox="0 0 1229 2048" width="1024">
<defs>
	<linearGradient gradientUnits="userSpaceOnUse" id="Gradient1" x1="310.701" x2="198.923" y1="1793.26" y2="1730.54">
		<stop class="stop0" offset="0" stop-color="rgb(255,201,69)" stop-opacity="1"></stop>
		<stop class="stop1" offset="1" stop-color="rgb(255,241,82)" stop-opacity="1"></stop>
	</linearGradient>
	<linearGradient gradientUnits="userSpaceOnUse" id="Gradient2" x1="1038.37" x2="1067.2" y1="1799.63" y2="1778.72">
		<stop class="stop0" offset="0" stop-color="rgb(255,200,67)" stop-opacity="1"></stop>
		<stop class="stop1" offset="1" stop-color="rgb(255,234,84)" stop-opacity="1"></stop>
	</linearGradient>
</defs>
<path d="M 0 0 L 34.2061 0 L 159.984 0 L 183.024 0 L 1046.48 0 L 1069.38 0 L 1195.51 0 L 1229 0 L 1229 208.171 L 1229 212.04 L 1229 275.037 L 1229 329.074 L 1229 445.942 L 1229 457.816 L 1229 484.407 L 1229 497.052 L 1229 647.899 L 1229 659.682 L 1229 687.711 L 1229 699.099 L 1229 862.643 L 1229 873.888 L 1229 903.184 L 1229 913.006 L 1229 1050.75 L 1229 1065.73 L 1229 1076.36 L 1229 1106.07 L 1229 1117.05 L 1229 1264.09 L 1229 1275.03 L 1229 1303.68 L 1229 1315.86 L 1229 1469.17 L 1229 1480.79 L 1229 1507.32 L 1229 1518.91 L 1229 1670.94 L 1229 1682.95 L 1229 1713.26 L 1229 1725.01 L 1229 1822.15 L 1229 1867.07 L 1229 2030.2 L 1229 2048 L 1225.37 2048 L 1171.68 2048 L 1151.88 2048 L 1106.77 2048 L 1090.95 2048 L 136.66 2048 L 121.053 2048 L 77.7084 2048 L 74.2983 2048 L 56.0236 2048 L 2.82928 2048 L 0 2048 L 0 2029.92 L 0 1867.1 L 0 1819.89 L 0 1724.13 L 0 1712.43 L 0 1682.81 L 0 1670.71 L 0 1518.16 L 0 1506.72 L 0 1479.96 L 0 1468.19 L 0 1319.48 L 0 1308.58 L 0 1278.3 L 0 1268.17 L 0 1116.95 L 0 1107.39 L 0 1077.78 L 0 1067.05 L 0 912.948 L 0 900.857 L 0 872.604 L 0 860.772 L 0 699.929 L 0 689.18 L 0 659.791 L 0 648.9 L 0 495.223 L 0 484.053 L 0 452.353 L 0 440.975 L 0 329.163 L 0 274.982 L 0 212.122 L 0 208.576 L 0 0 z" fill="rgb(26,10,0)" transform="translate(0,0)"></path>
<path d="M 877.788 1464.69 C 887.774 1464.17 898.741 1464.42 908.819 1464.46 L 908.936 1510.92 C 908.222 1512.98 907.277 1514.75 907.784 1516.77 C 909.861 1519.72 910.804 1531.52 906.086 1533.29 C 903.336 1537.41 904.254 1542.73 904.551 1547.97 C 895.518 1547.95 862.57 1547.32 854.893 1548.5 C 866.42 1549.42 896.387 1546.91 903.728 1550.17 L 904.973 1552.13 L 904.372 1554.71 C 903.338 1555.04 902.223 1555.45 901.17 1555.6 L 904.31 1556.38 C 905.599 1559.1 905.512 1559.45 905.741 1562.52 C 910.541 1566.09 985.137 1563.3 997.129 1564.04 C 997.661 1564.07 998.943 1563.62 999.489 1563.43 C 999.845 1561.98 1000.83 1555.85 1000.86 1555.77 C 1026.6 1555.52 1052.34 1555.43 1078.09 1555.49 C 1096.21 1555.57 1118.04 1556.15 1135.77 1555.17 C 1137.86 1560.71 1136.59 1666.53 1136.58 1679.41 L 1136.99 1822.67 C 1143.97 1821.16 1155.65 1823.39 1161.21 1820.94 L 1162.62 1818.76 C 1166.73 1821.84 1164.84 1821.15 1169.74 1821.6 C 1181.69 1823.04 1215.98 1822.17 1229 1822.15 L 1229 1867.07 L 1229 2030.2 L 1229 2048 L 1225.37 2048 L 1171.68 2048 L 1151.88 2048 L 1106.77 2048 L 1090.95 2048 L 136.66 2048 L 121.053 2048 L 77.7084 2048 L 74.2983 2048 L 56.0236 2048 L 2.82928 2048 L 0 2048 L 0 2029.92 L 0 1867.1 L 103.971 1867 C 104.024 1859.81 104.949 1823.29 103.01 1819.55 C 99.4744 1818.31 96.6685 1818.88 92.9781 1819.27 L 93.1484 1555.92 C 92.9677 1548.07 92.6766 1540.95 93.3373 1533.11 C 96.0761 1532.71 99.9401 1531.7 102.73 1531.06 C 104.891 1530.61 105.32 1530.33 107.033 1528.93 C 109.029 1529.56 108.874 1529.58 110.223 1531.22 L 111.097 1530.73 C 118.775 1535.13 121.827 1536.04 130.793 1533.59 C 133.556 1532.8 136.313 1531.99 139.063 1531.16 C 142.244 1531.11 145.904 1530.63 148.842 1531.13 L 149.154 1530.99 C 153.473 1532.71 158.012 1534.19 162.422 1535.69 C 168.555 1534.15 171.13 1533.42 176.885 1530.88 L 177.968 1531.95 C 181.931 1530.46 182.363 1529.52 186.39 1531.41 C 191.41 1533.76 195.861 1535.93 201.136 1537.74 C 208.823 1536.07 216.042 1534.14 222.574 1529.41 L 225.975 1529.66 L 226.72 1532.66 C 225.912 1536.59 226.51 1545.93 224.226 1547.42 C 226.937 1549.5 226.191 1552.31 225.949 1555.7 C 225.795 1558.88 225.441 1560.26 226.839 1563.11 C 236.288 1564.03 253.216 1563.51 263.444 1563.53 C 284.202 1563.57 305.542 1563.88 326.251 1563.47 C 328.964 1560.82 327.433 1560.47 328.572 1555.56 L 328.693 1555.05 C 328.88 1553.57 328.757 1551.44 328.733 1549.89 C 327.843 1547.69 328.038 1536.19 328.025 1532.99 L 327.171 1530.22 C 324.235 1529.83 323.911 1529.92 321.489 1528.37 C 319.117 1525.25 319.689 1521.18 319.689 1517.1 L 319.618 1511 C 319.743 1496.38 319.785 1481.76 319.745 1467.15 L 348.528 1466.9 C 348.814 1477.89 348.978 1488.89 349.022 1499.89 L 877.004 1500.04 C 878.123 1490.38 877.745 1474.83 877.788 1464.69 z" fill="rgb(107,0,0)" transform="translate(0,0)"></path>
<path d="M 854.893 1548.5 C 866.42 1549.42 896.387 1546.91 903.728 1550.17 L 904.973 1552.13 L 904.372 1554.71 C 903.338 1555.04 902.223 1555.45 901.17 1555.6 L 904.31 1556.38 C 905.599 1559.1 905.512 1559.45 905.741 1562.52 C 910.541 1566.09 985.137 1563.3 997.129 1564.04 C 997.661 1564.07 998.943 1563.62 999.489 1563.43 C 999.845 1561.98 1000.83 1555.85 1000.86 1555.77 C 1026.6 1555.52 1052.34 1555.43 1078.09 1555.49 C 1096.21 1555.57 1118.04 1556.15 1135.77 1555.17 C 1137.86 1560.71 1136.59 1666.53 1136.58 1679.41 L 1136.99 1822.67 C 1143.97 1821.16 1155.65 1823.39 1161.21 1820.94 L 1162.62 1818.76 C 1166.73 1821.84 1164.84 1821.15 1169.74 1821.6 C 1181.69 1823.04 1215.98 1822.17 1229 1822.15 L 1229 1867.07 L 1229 2030.2 L 1229 2048 L 1225.37 2048 C 1216.13 2033.56 1195.22 2007.22 1183.87 1992.01 L 1096.07 1874.98 L 854.893 1548.5 z" fill="rgb(107,0,0)" transform="translate(0,0)"></path>
<path d="M 854.893 1548.5 C 866.42 1549.42 896.387 1546.91 903.728 1550.17 L 904.973 1552.13 L 904.372 1554.71 C 903.338 1555.04 902.223 1555.45 901.17 1555.6 L 871.5 1556.05 C 895.183 1589.09 920.93 1621.27 945.323 1653.86 C 997.631 1724.73 1050.49 1795.19 1103.89 1865.24 L 1186.2 1973.61 C 1197.83 1989.02 1217 2016.3 1229 2030.2 L 1229 2048 L 1225.37 2048 C 1216.13 2033.56 1195.22 2007.22 1183.87 1992.01 L 1096.07 1874.98 L 854.893 1548.5 z" fill="url(#Gradient2)" transform="translate(0,0)"></path>
<path d="M 1161.21 1820.94 L 1162.62 1818.76 C 1166.73 1821.84 1164.84 1821.15 1169.74 1821.6 C 1181.69 1823.04 1215.98 1822.17 1229 1822.15 L 1229 1867.07 L 1125.65 1867.03 L 1125.31 1823.86 C 1129.61 1823.82 1132.9 1824.03 1136.99 1822.67 C 1143.97 1821.16 1155.65 1823.39 1161.21 1820.94 z" fill="rgb(139,69,19)" transform="translate(0,0)"></path>
<path d="M 102.73 1531.06 C 104.891 1530.61 105.32 1530.33 107.033 1528.93 C 109.029 1529.56 108.874 1529.58 110.223 1531.22 L 111.097 1530.73 C 118.775 1535.13 121.827 1536.04 130.793 1533.59 C 133.556 1532.8 136.313 1531.99 139.063 1531.16 C 142.244 1531.11 145.904 1530.63 148.842 1531.13 L 149.154 1530.99 C 153.473 1532.71 158.012 1534.19 162.422 1535.69 C 168.555 1534.15 171.13 1533.42 176.885 1530.88 L 177.968 1531.95 C 181.931 1530.46 182.363 1529.52 186.39 1531.41 C 191.41 1533.76 195.861 1535.93 201.136 1537.74 C 208.823 1536.07 216.042 1534.14 222.574 1529.41 L 225.975 1529.66 L 226.72 1532.66 C 225.912 1536.59 226.51 1545.93 224.226 1547.42 C 226.937 1549.5 226.191 1552.31 225.949 1555.7 C 225.795 1558.88 225.441 1560.26 226.839 1563.11 C 236.288 1564.03 253.216 1563.51 263.444 1563.53 C 284.202 1563.57 305.542 1563.88 326.251 1563.47 C 328.964 1560.82 327.433 1560.47 328.572 1555.56 L 328.693 1555.05 L 360.108 1555.11 C 349.613 1567.5 340.549 1580.68 330.757 1593.64 L 275.798 1666.23 L 112.397 1881.95 L 54.9975 1957.87 C 37.4868 1981.28 18.5546 2007.43 0 2029.92 L 0 1867.1 L 103.971 1867 C 104.024 1859.81 104.949 1823.29 103.01 1819.55 C 99.4744 1818.31 96.6685 1818.88 92.9781 1819.27 L 93.1484 1555.92 C 92.9677 1548.07 92.6766 1540.95 93.3373 1533.11 C 96.0761 1532.71 99.9401 1531.7 102.73 1531.06 z" fill="rgb(107,0,0)" transform="translate(0,0)"></path>
<path d="M 102.73 1531.06 C 104.891 1530.61 105.32 1530.33 107.033 1528.93 C 109.029 1529.56 108.874 1529.58 110.223 1531.22 L 111.097 1530.73 C 118.775 1535.13 121.827 1536.04 130.793 1533.59 C 133.556 1532.8 136.313 1531.99 139.063 1531.16 C 142.244 1531.11 145.904 1530.63 148.842 1531.13 L 149.154 1530.99 C 153.473 1532.71 158.012 1534.19 162.422 1535.69 C 168.555 1534.15 171.13 1533.42 176.885 1530.88 L 177.968 1531.95 C 181.931 1530.46 182.363 1529.52 186.39 1531.41 C 191.41 1533.76 195.861 1535.93 201.136 1537.74 C 208.823 1536.07 216.042 1534.14 222.574 1529.41 L 225.975 1529.66 L 226.72 1532.66 C 225.912 1536.59 226.51 1545.93 224.226 1547.42 C 226.937 1549.5 226.191 1552.31 225.949 1555.7 L 136.28 1555.81 C 125.451 1555.82 102.735 1555.11 93.1484 1555.92 C 92.9677 1548.07 92.6766 1540.95 93.3373 1533.11 C 96.0761 1532.71 99.9401 1531.7 102.73 1531.06 z" fill="rgb(107,0,0)" transform="translate(0,0)"></path>
<path d="M 93.1484 1555.92 C 92.9677 1548.07 92.6766 1540.95 93.3373 1533.11 C 93.5281 1538.02 93.7429 1542.73 93.6351 1547.66 C 132.291 1546.74 185.708 1545.82 224.226 1547.42 C 226.937 1549.5 226.191 1552.31 225.949 1555.7 L 136.28 1555.81 C 125.451 1555.82 102.735 1555.11 93.1484 1555.92 z" fill="rgb(245,220,150)" transform="translate(0,0)"></path>
<path d="M 438.296 1516.94 C 442.648 1520.04 448.986 1524.86 453.474 1527.39 C 376.4 1645.53 302.802 1764.87 226.815 1883.55 L 153.969 1996.37 C 146.473 2007.95 126.219 2036.98 121.053 2048 L 77.7084 2048 L 74.2983 2048 L 56.0236 2048 L 2.82928 2048 L 0 2048 L 0 2029.92 C 18.5546 2007.43 37.4868 1981.28 54.9975 1957.87 L 112.397 1881.95 L 275.798 1666.23 L 330.757 1593.64 C 340.549 1580.68 349.613 1567.5 360.108 1555.11 L 328.693 1555.05 C 328.88 1553.57 328.757 1551.44 328.733 1549.89 C 327.843 1547.69 328.038 1536.19 328.025 1532.99 L 327.171 1530.22 C 324.235 1529.83 323.911 1529.92 321.489 1528.37 C 319.117 1525.25 319.689 1521.18 319.689 1517.1 C 358.993 1517.07 399.056 1517.46 438.296 1516.94 z" fill="rgb(107,0,0)" transform="translate(0,0)"></path>
<path d="M 328.733 1549.89 C 343.221 1549.89 358.87 1549.61 373.238 1550.2 C 365.422 1562.67 354.824 1576.09 345.863 1588.01 L 301.456 1647.18 L 165.763 1830.39 L 53.3782 1981.61 C 39.8631 1999.59 16.9787 2032.07 2.82928 2048 L 0 2048 L 0 2029.92 C 18.5546 2007.43 37.4868 1981.28 54.9975 1957.87 L 112.397 1881.95 L 275.798 1666.23 L 330.757 1593.64 C 340.549 1580.68 349.613 1567.5 360.108 1555.11 L 328.693 1555.05 C 328.88 1553.57 328.757 1551.44 328.733 1549.89 z" fill="rgb(212,175,55)" transform="translate(0,0)"></path>
<path d="M 113.193 1964.79 C 114.878 1962.11 115.511 1960.66 118.335 1959.08 C 121.949 1958.45 127.377 1961.49 130.963 1963.11 C 128.03 1967.55 110.428 1993.63 109.216 1996.93 C 109.086 1999.4 107.06 2000.95 104.675 2001.41 C 100.246 1999.53 94.5369 1998.4 89.7728 1997.28 L 89.6212 1996.8 C 91.0191 1993.87 91.0838 1993.52 93.3128 1991.24 L 93.4712 1992.68 C 96.9935 1989.48 110.359 1969.38 113.193 1964.79 z" fill="rgb(212,175,55)" transform="translate(0,0)"></path>
<path d="M 89.7728 1997.28 L 89.6212 1996.8 C 91.0191 1993.87 91.0838 1993.52 93.3128 1991.24 L 93.4712 1992.68 C 99.8573 1995.09 102.594 1995.67 109.216 1996.93 C 109.086 1999.4 107.06 2000.95 104.675 2001.41 C 100.246 1999.53 94.5369 1998.4 89.7728 1997.28 z" fill="rgb(26,10,0)" transform="translate(0,0)"></path>
<path d="M 89.7728 1997.28 C 94.5369 1998.4 100.246 1999.53 104.675 2001.41 C 101.072 2006.66 89.4666 2023.94 86.5822 2029.18 L 81.0476 2036.29 L 66.0657 2033.23 C 69.2959 2028.43 72.51 2023.2 75.6427 2018.3 C 78.3626 2015.8 88.1278 2001.02 89.7728 1997.28 z" fill="rgb(212,175,55)" transform="translate(0,0)"></path>
<path d="M 144.06 1918.99 C 148.685 1918.63 154.295 1921.04 158.535 1922.97 C 154.221 1929.46 136.027 1954.9 133.985 1958.72 C 129.671 1957.46 123.948 1956.61 121.589 1953.16 L 122.761 1949.51 C 125.97 1948.07 141.391 1923.46 144.06 1918.99 z" fill="rgb(212,175,55)" transform="translate(0,0)"></path>
<path d="M 216.874 1814.94 C 217.427 1813.75 218.608 1811.78 219.291 1810.57 L 220.482 1810.49 C 223.543 1813.11 227.299 1813.69 231.242 1814.71 L 231.841 1815.82 L 228.881 1819.1 C 226.063 1827.78 214.283 1840.4 210.364 1848.18 C 209.583 1851.12 209.587 1851.25 207.306 1853.09 L 206.149 1852.34 L 194.667 1848.53 L 194.382 1848.23 C 194.107 1845.85 194.26 1846.55 196.183 1843.96 L 197.197 1844.04 C 201.773 1838.59 213.919 1820.92 216.874 1814.94 z" fill="rgb(212,175,55)" transform="translate(0,0)"></path>
<path d="M 194.667 1848.53 L 194.382 1848.23 C 194.107 1845.85 194.26 1846.55 196.183 1843.96 L 197.197 1844.04 L 210.364 1848.18 C 209.583 1851.12 209.587 1851.25 207.306 1853.09 L 206.149 1852.34 L 194.667 1848.53 z" fill="rgb(26,10,0)" transform="translate(0,0)"></path>
<path d="M 216.874 1814.94 C 217.427 1813.75 218.608 1811.78 219.291 1810.57 L 220.482 1810.49 C 223.543 1813.11 227.299 1813.69 231.242 1814.71 L 231.841 1815.82 L 228.881 1819.1 L 216.874 1814.94 z" fill="rgb(26,10,0)" transform="translate(0,0)"></path>
<path d="M 148.412 1914.69 C 155.063 1905.03 163.418 1891.73 170.617 1883.13 C 175.736 1884.51 179.129 1884.82 182.493 1888.54 C 179.084 1893.78 165.008 1913.24 163.249 1916.95 C 159.719 1918 152.289 1915.67 148.412 1914.69 z" fill="rgb(212,175,55)" transform="translate(0,0)"></path>
<path d="M 194.667 1848.53 L 206.149 1852.34 C 203.664 1857.79 189.427 1881 184.189 1882.72 L 172.334 1880.45 C 174.461 1877.42 176.565 1874.37 178.645 1871.31 C 182.351 1867.35 189.278 1855.02 194.667 1848.53 z" fill="rgb(212,175,55)" transform="translate(0,0)"></path>
<path d="M 277.788 1729.4 C 280.441 1730.28 286.428 1732 288.314 1733.53 C 285.599 1737.57 274.349 1753.65 273.211 1756.64 C 273.055 1758.83 271.73 1759.87 270.235 1761.59 L 269.564 1761.47 C 267.316 1760.07 259.878 1758.33 256.906 1757.54 C 258.052 1755.2 258.575 1754.78 260.339 1752.81 C 265.015 1747.89 271.443 1736.44 277.788 1729.4 z" fill="rgb(212,175,55)" transform="translate(0,0)"></path>
<path d="M 256.906 1757.54 C 258.052 1755.2 258.575 1754.78 260.339 1752.81 C 265.114 1755.38 267.844 1755.63 273.211 1756.64 C 273.055 1758.83 271.73 1759.87 270.235 1761.59 L 269.564 1761.47 C 267.316 1760.07 259.878 1758.33 256.906 1757.54 z" fill="rgb(26,10,0)" transform="translate(0,0)"></path>
<path d="M 294.882 1702.21 C 298.879 1702.99 303.978 1703.85 307.833 1704.83 C 304.832 1708.75 294.784 1722.9 293.039 1726.9 C 292.76 1729.23 290.666 1731.35 289.15 1733.29 L 288.314 1733.53 C 286.428 1732 280.441 1730.28 277.788 1729.4 C 277.262 1728.9 277.436 1728.66 277.264 1727.61 L 279.259 1725.73 C 282.176 1722.78 293.272 1706.01 294.882 1702.21 z" fill="rgb(212,175,55)" transform="translate(0,0)"></path>
<path d="M 277.788 1729.4 C 277.262 1728.9 277.436 1728.66 277.264 1727.61 L 279.259 1725.73 C 283.098 1726.95 287.155 1728.67 291.061 1728.19 L 293.039 1726.9 C 292.76 1729.23 290.666 1731.35 289.15 1733.29 L 288.314 1733.53 C 286.428 1732 280.441 1730.28 277.788 1729.4 z" fill="rgb(26,10,0)" transform="translate(0,0)"></path>
<path d="M 237.426 1785.45 L 250.325 1789.02 C 247.208 1794 236.197 1813.05 231.242 1814.71 C 227.299 1813.69 223.543 1813.11 220.482 1810.49 C 223.388 1807.39 235.885 1789.15 237.426 1785.45 z" fill="rgb(212,175,55)" transform="translate(0,0)"></path>
<path d="M 313.071 1677.13 C 316.897 1676.78 321.079 1678.68 324.812 1679.98 C 322.302 1683.28 313.498 1695.35 312.099 1698.87 C 311.556 1701.77 310.18 1702.35 307.833 1704.83 C 303.978 1703.85 298.879 1702.99 294.882 1702.21 C 295.352 1700.65 296.128 1699.41 296.893 1697.95 L 298.104 1698.19 C 302.321 1693.04 309.665 1682.72 313.071 1677.13 z" fill="rgb(212,175,55)" transform="translate(0,0)"></path>
<path d="M 294.882 1702.21 C 295.352 1700.65 296.128 1699.41 296.893 1697.95 L 298.104 1698.19 C 303.035 1699.69 307.609 1702.1 312.099 1698.87 C 311.556 1701.77 310.18 1702.35 307.833 1704.83 C 303.978 1703.85 298.879 1702.99 294.882 1702.21 z" fill="rgb(26,10,0)" transform="translate(0,0)"></path>
<path d="M 256.906 1757.54 C 259.878 1758.33 267.316 1760.07 269.564 1761.47 C 265.526 1766.8 256.414 1782.13 252.135 1784.76 L 240.578 1781.64 C 246.001 1774.98 252.76 1765.07 256.906 1757.54 z" fill="rgb(212,175,55)" transform="translate(0,0)"></path>
<path d="M 61.895 2038.09 L 61.7212 2037.77 C 62.4484 2033.19 71.4317 2020.19 75.6427 2018.3 C 72.51 2023.2 69.2959 2028.43 66.0657 2033.23 L 81.0476 2036.29 L 86.5822 2029.18 C 86.1601 2034.1 79.8637 2041.93 77.7084 2048 L 74.2983 2048 L 56.0236 2048 C 58.7614 2044.14 59.7596 2042.33 61.895 2038.09 z" fill="rgb(26,10,0)" transform="translate(0,0)"></path>
<path d="M 61.895 2038.09 C 66.124 2038.63 72.5084 2038.88 75.6053 2041.31 C 76.6283 2044.42 75.8864 2044.33 74.2983 2048 L 56.0236 2048 C 58.7614 2044.14 59.7596 2042.33 61.895 2038.09 z" fill="rgb(212,175,55)" transform="translate(0,0)"></path>
<path d="M 328.743 1654.03 C 332.811 1653.39 336.858 1654.92 340.898 1656.03 C 337.716 1660.39 330.356 1670.37 328.16 1675.02 C 323.307 1675.22 321.197 1674.05 316.948 1671.99 C 320.978 1666.13 325.246 1660.2 328.743 1654.03 z" fill="rgb(212,175,55)" transform="translate(0,0)"></path>
<path d="M 144.06 1918.99 L 143.617 1918.02 C 149.623 1910.18 173.098 1873.76 178.645 1871.31 C 176.565 1874.37 174.461 1877.42 172.334 1880.45 L 184.189 1882.72 L 186.266 1883.46 C 185.638 1886.39 185.366 1886.45 182.991 1888.52 L 182.493 1888.54 C 179.129 1884.82 175.736 1884.51 170.617 1883.13 C 163.418 1891.73 155.063 1905.03 148.412 1914.69 C 152.289 1915.67 159.719 1918 163.249 1916.95 C 161.866 1919.93 160.852 1920.71 158.535 1922.97 C 154.295 1921.04 148.685 1918.63 144.06 1918.99 z" fill="rgb(26,10,0)" transform="translate(0,0)"></path>
<path d="M 354.031 1617.08 L 353.673 1616.41 C 354.849 1614.32 355.562 1612.35 357.733 1611.49 C 361.752 1613.82 364.228 1613.79 368.113 1615.36 L 367.477 1617.9 L 365.909 1618.42 C 363.906 1621.66 359.247 1628.75 357.87 1631.91 C 354.698 1633.27 348.434 1631.02 345.44 1629.48 C 349.064 1625.56 351.611 1621.8 354.031 1617.08 z" fill="rgb(212,175,55)" transform="translate(0,0)"></path>
<path d="M 354.031 1617.08 L 353.673 1616.41 C 354.849 1614.32 355.562 1612.35 357.733 1611.49 C 361.752 1613.82 364.228 1613.79 368.113 1615.36 L 367.477 1617.9 L 365.909 1618.42 C 360.671 1617.22 359.349 1616.93 354.031 1617.08 z" fill="rgb(26,10,0)" transform="translate(0,0)"></path>
<path d="M 368.828 1596.54 L 379.416 1598.49 C 375.919 1603.29 370.734 1610.21 368.113 1615.36 C 364.228 1613.79 361.752 1613.82 357.733 1611.49 C 360.732 1608.68 364.554 1600.99 368.828 1596.54 z" fill="rgb(212,175,55)" transform="translate(0,0)"></path>
<path d="M 343.764 1634.26 C 346.278 1634.85 352.772 1636.03 354.251 1637.58 C 350.904 1641.52 347.609 1646.16 345.285 1650.78 C 342.031 1652.67 336.93 1650.28 333.355 1649.19 C 336.16 1645.06 338.048 1641.68 340.462 1637.29 L 343.764 1634.26 z" fill="rgb(212,175,55)" transform="translate(0,0)"></path>
<path d="M 380.903 1577.74 C 384.441 1578.27 388.562 1578.78 392.022 1579.46 C 389.486 1583.32 384.375 1590.6 382.353 1594.38 L 371.125 1592.46 C 374.41 1588 378.662 1582.69 380.903 1577.74 z" fill="rgb(212,175,55)" transform="translate(0,0)"></path>
<path d="M 397.431 1552.46 C 402.486 1546.55 405.125 1542.49 413.309 1540.9 L 415.07 1541.56 C 416.433 1546.98 411.58 1554.11 407.198 1556.49 C 403.49 1556.19 400.759 1556.32 397.548 1554.52 L 397.431 1552.46 z" fill="rgb(212,175,55)" transform="translate(0,0)"></path>
<path d="M 390.31 1564.84 L 394.036 1560.46 C 397.433 1558.65 401.827 1559.77 405.774 1560.29 C 402.227 1564.9 397.918 1570.03 395.426 1575.2 L 384.105 1573.58 C 385.814 1571.55 388.676 1567.18 390.31 1564.84 z" fill="rgb(212,175,55)" transform="translate(0,0)"></path>
<path d="M 113.193 1964.79 C 113.144 1961.5 119.904 1951 122.761 1949.51 L 121.589 1953.16 C 123.948 1956.61 129.671 1957.46 133.985 1958.72 C 133.166 1961.4 133.15 1961.5 130.963 1963.11 C 127.377 1961.49 121.949 1958.45 118.335 1959.08 C 115.511 1960.66 114.878 1962.11 113.193 1964.79 z" fill="rgb(26,10,0)" transform="translate(0,0)"></path>
<path d="M 328.743 1654.03 C 329.541 1651.1 337.501 1638.67 340.462 1637.29 C 338.048 1641.68 336.16 1645.06 333.355 1649.19 C 336.93 1650.28 342.031 1652.67 345.285 1650.78 C 344.027 1653.68 343.862 1654.25 341.524 1656.33 L 340.898 1656.03 C 336.858 1654.92 332.811 1653.39 328.743 1654.03 z" fill="rgb(26,10,0)" transform="translate(0,0)"></path>
<path d="M 390.31 1564.84 C 390.155 1560.83 393.976 1555.72 396.245 1552.57 L 397.431 1552.46 L 397.548 1554.52 C 400.759 1556.32 403.49 1556.19 407.198 1556.49 L 408.057 1557.98 L 406.93 1560.1 L 405.774 1560.29 C 401.827 1559.77 397.433 1558.65 394.036 1560.46 L 390.31 1564.84 z" fill="rgb(26,10,0)" transform="translate(0,0)"></path>
<path d="M 237.426 1785.45 C 237.643 1783.39 238.953 1782.04 240.209 1780.3 L 240.578 1781.64 L 252.135 1784.76 L 253.569 1785.4 C 252.311 1787.65 252.442 1787.63 250.325 1789.02 L 237.426 1785.45 z" fill="rgb(26,10,0)" transform="translate(0,0)"></path>
<path d="M 343.764 1634.26 L 343.015 1634.04 L 342.493 1632.75 C 343.944 1630.17 343.4 1630.07 345.44 1629.48 C 348.434 1631.02 354.698 1633.27 357.87 1631.91 C 358.006 1634.28 357.051 1634.73 355.419 1637.05 L 354.251 1637.58 C 352.772 1636.03 346.278 1634.85 343.764 1634.26 z" fill="rgb(26,10,0)" transform="translate(0,0)"></path>
<path d="M 313.071 1677.13 L 312.696 1676.44 L 315.911 1671.98 L 316.948 1671.99 C 321.197 1674.05 323.307 1675.22 328.16 1675.02 C 327.141 1677.79 326.974 1677.87 324.812 1679.98 C 321.079 1678.68 316.897 1676.78 313.071 1677.13 z" fill="rgb(26,10,0)" transform="translate(0,0)"></path>
<path d="M 380.903 1577.74 C 382.379 1574.62 381.728 1574.6 384.105 1573.58 L 395.426 1575.2 C 394.606 1578.02 394.614 1578.17 392.703 1580.32 L 392.022 1579.46 C 388.562 1578.78 384.441 1578.27 380.903 1577.74 z" fill="rgb(26,10,0)" transform="translate(0,0)"></path>
<path d="M 368.828 1596.54 L 368.614 1596.24 C 368.621 1593.61 368.63 1594.42 370.278 1591.84 L 371.125 1592.46 L 382.353 1594.38 C 381.529 1596.92 381.527 1596.77 379.416 1598.49 L 368.828 1596.54 z" fill="rgb(26,10,0)" transform="translate(0,0)"></path>
<path d="M 345.88 1536.37 C 343.409 1533.74 344.082 1529.99 345.815 1527.2 C 352.801 1523.76 387.787 1526.21 398.24 1526.47 C 393.441 1526.65 388.648 1526.96 383.866 1527.42 L 382.217 1529.35 L 381.383 1533.2 L 380.983 1529.47 C 378.103 1527.26 370.301 1528.08 366.438 1528.21 C 366.336 1530.99 366.65 1535.09 365.012 1537.03 C 359.137 1537.07 351.51 1537.43 345.88 1536.37 z" fill="rgb(245,220,150)" transform="translate(0,0)"></path>
<path d="M 345.88 1536.37 C 343.409 1533.74 344.082 1529.99 345.815 1527.2 C 352.801 1523.76 387.787 1526.21 398.24 1526.47 C 393.441 1526.65 388.648 1526.96 383.866 1527.42 L 382.217 1529.35 L 381.383 1533.2 L 380.983 1529.47 C 378.103 1527.26 370.301 1528.08 366.438 1528.21 C 366.336 1530.99 366.65 1535.09 365.012 1537.03 C 364.292 1533.93 363.917 1531.86 363.47 1528.73 C 358.372 1524.68 353.094 1526.43 347.773 1528.77 C 345.398 1531.85 346.14 1531.77 345.88 1536.37 z" fill="rgb(26,10,0)" transform="translate(0,0)"></path>
<path d="M 383.866 1527.42 C 389.304 1527.64 394.273 1527.84 399.732 1527.76 C 399.388 1530.36 398.934 1534.74 398.448 1537.17 C 393.474 1537.27 387.01 1538.34 383.409 1535.7 C 382.34 1532.88 382.406 1532.42 382.217 1529.35 L 383.866 1527.42 z" fill="rgb(245,220,150)" transform="translate(0,0)"></path>
<path d="M 907.784 1516.77 C 909.861 1519.72 910.804 1531.52 906.086 1533.29 C 903.336 1537.41 904.254 1542.73 904.551 1547.97 C 895.518 1547.95 862.57 1547.32 854.893 1548.5 L 1096.07 1874.98 L 1183.87 1992.01 C 1195.22 2007.22 1216.13 2033.56 1225.37 2048 L 1171.68 2048 L 1151.88 2048 L 1106.77 2048 C 1047.04 1950.88 980.925 1853.32 919.458 1756.64 L 825.725 1606.92 C 808.874 1579.88 792.101 1551.52 774.302 1525.18 L 787.211 1524.93 C 790.41 1525.16 790.784 1525.26 793.86 1524.57 L 794.523 1523.12 C 793.169 1521.02 792.656 1520.3 791.734 1518.01 C 794.252 1516.21 895.628 1517.12 907.784 1516.77 z" fill="rgb(107,0,0)" transform="translate(0,0)"></path>
<path d="M 1107.54 1953.52 C 1109.49 1954.09 1111.39 1957.25 1111.66 1959.15 C 1115.67 1965.98 1133.75 1988.84 1134.37 1993.8 L 1133.27 1994.74 C 1137.12 1994.59 1135.88 1994.07 1138.38 1996.19 L 1138.32 1997.92 L 1137.32 1998.48 C 1131.99 1999.07 1127.01 1999.42 1121.86 2001.02 L 1119.77 2001.1 L 1119.56 1998.92 C 1112.93 1992.12 1101.28 1974.76 1095.4 1966.19 C 1095.2 1963.36 1095.37 1961.7 1093.8 1959.36 L 1092.78 1957.49 C 1097.65 1956.67 1101.96 1956.61 1106.87 1955.24 L 1107.54 1953.52 z" fill="rgb(212,175,55)" transform="translate(0,0)"></path>
<path d="M 1107.54 1953.52 C 1109.49 1954.09 1111.39 1957.25 1111.66 1959.15 C 1106.28 1959.97 1100.75 1960.7 1095.48 1961.99 C 1103.25 1975.01 1109.45 1984.25 1118.96 1996.08 C 1123.53 1995.53 1128.73 1994.76 1133.27 1994.74 C 1137.12 1994.59 1135.88 1994.07 1138.38 1996.19 L 1138.32 1997.92 L 1137.32 1998.48 C 1131.99 1999.07 1127.01 1999.42 1121.86 2001.02 L 1119.77 2001.1 L 1119.56 1998.92 C 1112.93 1992.12 1101.28 1974.76 1095.4 1966.19 C 1095.2 1963.36 1095.37 1961.7 1093.8 1959.36 L 1092.78 1957.49 C 1097.65 1956.67 1101.96 1956.61 1106.87 1955.24 L 1107.54 1953.52 z" fill="rgb(26,10,0)" transform="translate(0,0)"></path>
<path d="M 1080.29 1915.62 L 1081.57 1914.45 C 1083.37 1916.44 1083.36 1916.6 1084.17 1919.22 C 1085.29 1922.07 1104.57 1950.51 1107.54 1953.52 L 1106.87 1955.24 C 1101.96 1956.61 1097.65 1956.67 1092.78 1957.49 C 1088.06 1953.52 1072.32 1928.46 1068.18 1922.03 L 1066.41 1921.48 L 1064.41 1917.26 L 1080.29 1915.62 z" fill="rgb(212,175,55)" transform="translate(0,0)"></path>
<path d="M 1080.29 1915.62 L 1081.57 1914.45 C 1083.37 1916.44 1083.36 1916.6 1084.17 1919.22 L 1068.18 1922.03 L 1066.41 1921.48 L 1064.41 1917.26 L 1080.29 1915.62 z" fill="rgb(26,10,0)" transform="translate(0,0)"></path>
<path d="M 1137.32 1998.48 C 1144.02 2001.52 1156.05 2025.29 1161.44 2031.63 L 1160.24 2033.36 C 1156.31 2035.07 1150.72 2035.24 1146.33 2035.62 C 1141.9 2030.71 1135.49 2021.62 1131.33 2016.06 C 1128.25 2011 1125.1 2005.98 1121.86 2001.02 C 1127.01 1999.42 1131.99 1999.07 1137.32 1998.48 z" fill="rgb(212,175,55)" transform="translate(0,0)"></path>
<path d="M 1035.25 1851.38 C 1042.17 1857.38 1050.63 1873.4 1056.58 1879.37 C 1058.54 1880.21 1059.83 1882.45 1061.16 1884.25 L 1060.8 1885.07 C 1056.74 1883.29 1047.47 1885.38 1044.49 1888.49 L 1043.81 1888.77 C 1040.4 1884.47 1037.91 1880.68 1034.93 1876.13 L 1035.52 1874.78 C 1030.98 1867.79 1026.34 1860.88 1021.59 1854.03 C 1025.43 1852.89 1031.15 1852.08 1035.25 1851.38 z" fill="rgb(212,175,55)" transform="translate(0,0)"></path>
<path d="M 1044.49 1888.49 L 1043.81 1888.77 C 1040.4 1884.47 1037.91 1880.68 1034.93 1876.13 L 1035.52 1874.78 L 1041.48 1882.85 C 1046.27 1882.13 1052.42 1881.57 1056.58 1879.37 C 1058.54 1880.21 1059.83 1882.45 1061.16 1884.25 L 1060.8 1885.07 C 1056.74 1883.29 1047.47 1885.38 1044.49 1888.49 z" fill="rgb(26,10,0)" transform="translate(0,0)"></path>
<path d="M 1000.45 1822.62 L 1000.84 1820.6 C 1004.5 1818.77 1009.2 1818.45 1013.33 1817.91 L 1021.79 1829.73 C 1024.4 1833.98 1030.76 1843.97 1033.97 1847.79 L 1035.47 1847.97 L 1036.64 1850.24 C 1035.96 1850.95 1035.94 1851.24 1035.25 1851.38 C 1031.15 1852.08 1025.43 1852.89 1021.59 1854.03 L 1021.57 1854.99 L 1020.94 1855.34 C 1019.71 1853.44 1017.72 1851.02 1017.85 1848.93 C 1016.34 1844.81 1003.63 1826.47 1000.45 1822.62 z" fill="rgb(212,175,55)" transform="translate(0,0)"></path>
<path d="M 1033.97 1847.79 L 1035.47 1847.97 L 1036.64 1850.24 C 1035.96 1850.95 1035.94 1851.24 1035.25 1851.38 C 1031.15 1852.08 1025.43 1852.89 1021.59 1854.03 L 1021.57 1854.99 L 1020.94 1855.34 C 1019.71 1853.44 1017.72 1851.02 1017.85 1848.93 C 1023.23 1850.7 1028.51 1849.15 1033.97 1847.79 z" fill="rgb(26,10,0)" transform="translate(0,0)"></path>
<path d="M 1044.49 1888.49 C 1047.47 1885.38 1056.74 1883.29 1060.8 1885.07 C 1064.39 1891.16 1079.21 1911.6 1080.29 1915.62 L 1064.41 1917.26 C 1063.19 1914.35 1047.17 1891.77 1044.49 1888.49 z" fill="rgb(212,175,55)" transform="translate(0,0)"></path>
<path d="M 989.922 1783.87 L 991.442 1784.04 C 991.724 1784.6 993.194 1787.46 993.271 1787.85 C 997.803 1795.65 1005.73 1806.12 1011.15 1813.71 C 1004.82 1815.3 1002.46 1815.84 995.991 1816.16 C 994.394 1812.31 981.394 1794.12 978.402 1790.48 L 977.458 1790.54 L 975.985 1787.96 L 976.828 1786.65 L 989.922 1783.87 z" fill="rgb(212,175,55)" transform="translate(0,0)"></path>
<path d="M 989.922 1783.87 L 991.442 1784.04 C 991.724 1784.6 993.194 1787.46 993.271 1787.85 C 988.868 1788.38 982.333 1788.87 978.402 1790.48 L 977.458 1790.54 L 975.985 1787.96 L 976.828 1786.65 L 989.922 1783.87 z" fill="rgb(26,10,0)" transform="translate(0,0)"></path>
<path d="M 930.539 1698.55 C 932.764 1699.13 934.376 1702.11 936.129 1704.35 L 935.867 1705.1 C 938.251 1709.16 947.704 1723.49 950.609 1726.5 C 945.335 1727.75 942.557 1728.19 937.162 1728.71 C 935.416 1725.75 933.554 1723.44 931.475 1720.72 C 927.274 1719.24 920.099 1706.71 917.887 1702.53 L 918.769 1701.02 C 923.162 1700.06 926.01 1700.53 930.539 1698.55 z" fill="rgb(212,175,55)" transform="translate(0,0)"></path>
<path d="M 930.539 1698.55 C 932.764 1699.13 934.376 1702.11 936.129 1704.35 L 935.867 1705.1 C 931.575 1702.39 926.304 1703.91 920.747 1704.62 C 924.121 1709.63 928.398 1715.65 931.475 1720.72 C 927.274 1719.24 920.099 1706.71 917.887 1702.53 L 918.769 1701.02 C 923.162 1700.06 926.01 1700.53 930.539 1698.55 z" fill="rgb(26,10,0)" transform="translate(0,0)"></path>
<path d="M 958.689 1761.19 C 963.479 1760.11 969.659 1758.2 973.879 1760.08 C 976.211 1764.21 986.745 1780.22 989.922 1783.87 L 976.828 1786.65 C 974.327 1782.86 972.412 1780.24 969.593 1776.68 C 966.316 1771.72 962.161 1766.11 958.689 1761.19 z" fill="rgb(212,175,55)" transform="translate(0,0)"></path>
<path d="M 940.32 1732.67 L 953.294 1730.01 C 955.917 1735.1 966.198 1750.19 970.262 1754.52 C 967.203 1756.24 960.088 1756.91 956.29 1757.48 L 940.32 1732.67 z" fill="rgb(212,175,55)" transform="translate(0,0)"></path>
<path d="M 1143.54 2037.18 C 1141.55 2030.05 1131.22 2023.12 1131.33 2016.06 C 1135.49 2021.62 1141.9 2030.71 1146.33 2035.62 C 1150.72 2035.24 1156.31 2035.07 1160.24 2033.36 L 1161.44 2031.63 L 1162.77 2031.91 C 1164.04 2034.26 1164.92 2035.81 1165.87 2038.33 C 1167.56 2042.42 1169.14 2044.41 1171.68 2048 L 1151.88 2048 L 1149.61 2043.38 L 1148.81 2043.59 C 1146.15 2041.27 1145.45 2040.02 1143.54 2037.18 z" fill="rgb(26,10,0)" transform="translate(0,0)"></path>
<path d="M 1165.87 2038.33 C 1167.56 2042.42 1169.14 2044.41 1171.68 2048 L 1151.88 2048 L 1149.61 2043.38 L 1150.11 2042.16 C 1152.53 2039.9 1162.11 2038.95 1165.87 2038.33 z" fill="rgb(245,220,150)" transform="translate(0,0)"></path>
<path d="M 914.206 1677.37 C 919.989 1680.46 925.684 1693.46 930.539 1698.55 C 926.01 1700.53 923.162 1700.06 918.769 1701.02 L 903.838 1678.95 C 906.705 1678.32 911.171 1677.81 914.206 1677.37 z" fill="rgb(212,175,55)" transform="translate(0,0)"></path>
<path d="M 886.159 1654.19 C 888.952 1653.7 896.791 1651.89 898.878 1653.11 C 901.125 1656.92 908.438 1668.65 911.429 1671.5 L 910.925 1673.27 C 907.564 1674.55 905.464 1674.81 901.986 1675.39 C 899.69 1674.18 889.305 1658.2 886.159 1654.19 z" fill="rgb(212,175,55)" transform="translate(0,0)"></path>
<path d="M 870.567 1632.35 L 871.28 1631.04 C 874.331 1629.07 877.59 1628.76 881.21 1628.04 C 883.469 1631.91 891.623 1644.29 894.52 1647.44 C 891.408 1650.02 885.545 1651.75 882.159 1648.93 C 880.022 1644.53 873.965 1635.89 870.567 1632.35 z" fill="rgb(212,175,55)" transform="translate(0,0)"></path>
<path d="M 863.897 1604.45 C 869.496 1611.33 873.186 1618.22 878.126 1624.68 C 873.586 1626.13 870.058 1627.82 866.132 1625.87 C 865.466 1624.2 864.692 1623.18 863.705 1621.7 C 861.353 1617.21 856.595 1612.13 856.351 1607.92 C 858.476 1605.03 859.649 1605.56 863.897 1604.45 z" fill="rgb(212,175,55)" transform="translate(0,0)"></path>
<path d="M 950.609 1726.5 L 951.94 1726.89 L 953.294 1730.01 L 940.32 1732.67 L 956.29 1757.48 C 960.088 1756.91 967.203 1756.24 970.262 1754.52 C 972.276 1755.51 973.008 1757.42 974.144 1759.43 L 973.879 1760.08 C 969.659 1758.2 963.479 1760.11 958.689 1761.19 C 962.161 1766.11 966.316 1771.72 969.593 1776.68 C 963.436 1775.06 940.485 1736.35 937.162 1728.71 C 942.557 1728.19 945.335 1727.75 950.609 1726.5 z" fill="rgb(26,10,0)" transform="translate(0,0)"></path>
<path d="M 833.658 1575.69 C 831.358 1571.19 824.689 1565.7 827.04 1561.27 C 832.214 1559.87 834.137 1560.51 838.394 1563.39 C 839.864 1568.1 844.319 1574.4 847.095 1578.74 C 843.747 1579.29 839.79 1580.06 836.482 1580.46 C 835.909 1578.71 834.714 1577.23 833.658 1575.69 z" fill="rgb(212,175,55)" transform="translate(0,0)"></path>
<path d="M 849.173 1582.33 C 853.398 1587.4 858.509 1597.26 861.567 1600.38 C 857.957 1602.03 856.622 1602.57 852.717 1603.65 C 848.876 1599.37 843.339 1589.91 840.062 1584.63 L 849.173 1582.33 z" fill="rgb(212,175,55)" transform="translate(0,0)"></path>
<path d="M 812.034 1542.27 C 815.671 1542.3 820.203 1542.7 823.91 1542.92 C 826.971 1547.66 828.735 1550.35 832.388 1554.6 C 829.573 1558.27 826.196 1557.97 821.708 1558.26 C 820.097 1554.2 814.613 1546.25 812.034 1542.27 z" fill="rgb(212,175,55)" transform="translate(0,0)"></path>
<path d="M 1011.15 1813.71 L 1011.7 1812.66 C 1014.23 1815.46 1021.82 1826.04 1021.79 1829.73 L 1013.33 1817.91 C 1009.2 1818.45 1004.5 1818.77 1000.84 1820.6 L 1000.45 1822.62 L 1000.04 1822.81 C 997.631 1821.23 997.369 1819.2 995.991 1816.16 C 1002.46 1815.84 1004.82 1815.3 1011.15 1813.71 z" fill="rgb(26,10,0)" transform="translate(0,0)"></path>
<path d="M 832.388 1554.6 L 833.807 1554.57 C 835.072 1556.48 838.364 1561.27 838.394 1563.39 C 834.137 1560.51 832.214 1559.87 827.04 1561.27 C 824.689 1565.7 831.358 1571.19 833.658 1575.69 L 831.866 1574.98 C 828.628 1571.08 822.899 1563.17 821.708 1558.26 C 826.196 1557.97 829.573 1558.27 832.388 1554.6 z" fill="rgb(26,10,0)" transform="translate(0,0)"></path>
<path d="M 861.567 1600.38 L 862.865 1600.5 L 864.452 1603.24 L 863.897 1604.45 C 859.649 1605.56 858.476 1605.03 856.351 1607.92 C 856.595 1612.13 861.353 1617.21 863.705 1621.7 C 859.989 1620.32 853.756 1608.63 851.919 1604.94 L 852.717 1603.65 C 856.622 1602.57 857.957 1602.03 861.567 1600.38 z" fill="rgb(26,10,0)" transform="translate(0,0)"></path>
<path d="M 894.52 1647.44 L 895.783 1647.59 L 899.102 1652.21 L 898.878 1653.11 C 896.791 1651.89 888.952 1653.7 886.159 1654.19 L 885.392 1654.35 C 883.487 1652.08 882.062 1651.3 882.159 1648.93 C 885.545 1651.75 891.408 1650.02 894.52 1647.44 z" fill="rgb(26,10,0)" transform="translate(0,0)"></path>
<path d="M 878.126 1624.68 L 878.64 1623.63 C 879.82 1625.15 880.889 1626.17 881.21 1628.04 C 877.59 1628.76 874.331 1629.07 871.28 1631.04 L 870.567 1632.35 L 870.103 1632.43 C 868.302 1631.48 865.711 1627.89 866.132 1625.87 C 870.058 1627.82 873.586 1626.13 878.126 1624.68 z" fill="rgb(26,10,0)" transform="translate(0,0)"></path>
<path d="M 911.429 1671.5 L 912.754 1671.56 C 914.923 1674.5 914.867 1673.59 915.313 1676.81 L 914.206 1677.37 C 911.171 1677.81 906.705 1678.32 903.838 1678.95 L 903.652 1679.99 L 902.902 1679.85 C 901.667 1677.1 901.486 1677.82 901.986 1675.39 C 905.464 1674.81 907.564 1674.55 910.925 1673.27 L 911.429 1671.5 z" fill="rgb(26,10,0)" transform="translate(0,0)"></path>
<path d="M 847.095 1578.74 L 848.752 1579.08 L 850.031 1581.04 L 849.173 1582.33 L 840.062 1584.63 C 839.708 1584.83 839.354 1585.04 839.001 1585.24 C 837.302 1583.12 837.152 1583.03 836.482 1580.46 C 839.79 1580.06 843.747 1579.29 847.095 1578.74 z" fill="rgb(26,10,0)" transform="translate(0,0)"></path>
<path d="M 868.474 1527.16 C 874.324 1527.02 884.275 1525.65 888.148 1530.35 C 887.699 1533.3 887.867 1532.36 885.54 1534.96 C 880.007 1535.05 866.266 1537.04 865.715 1530.23 L 868.474 1527.16 z" fill="rgb(245,220,150)" transform="translate(0,0)"></path>
<path d="M 827.467 1528.08 C 832.742 1527.9 842.782 1526.62 846.489 1530.51 C 846.6 1533.75 846.861 1532.49 844.767 1535.47 C 838.599 1535.95 827.796 1538.35 825.651 1531.45 L 827.467 1528.08 z" fill="rgb(245,220,150)" transform="translate(0,0)"></path>
<path d="M 319.618 1511 L 443.747 1510.57 C 450.358 1517.42 456.029 1521.51 462.793 1527.63 L 136.66 2048 L 121.053 2048 C 126.219 2036.98 146.473 2007.95 153.969 1996.37 L 226.815 1883.55 C 302.802 1764.87 376.4 1645.53 453.474 1527.39 C 448.986 1524.86 442.648 1520.04 438.296 1516.94 C 399.056 1517.46 358.993 1517.07 319.689 1517.1 L 319.618 1511 z" fill="url(#Gradient1)" transform="translate(0,0)"></path>
<path d="M 773.225 1523.23 L 787.211 1524.93 L 774.302 1525.18 C 792.101 1551.52 808.874 1579.88 825.725 1606.92 L 919.458 1756.64 C 980.925 1853.32 1047.04 1950.88 1106.77 2048 L 1090.95 2048 C 1081.56 2034.95 1067.87 2011.31 1058.76 1996.72 L 998.477 1901.12 C 919.936 1778.04 842.963 1653.97 767.577 1528.93 L 773.225 1523.23 z" fill="rgb(212,175,55)" transform="translate(0,0)"></path>
<path d="M 908.936 1510.92 C 908.222 1512.98 907.277 1514.75 907.784 1516.77 C 895.628 1517.12 794.252 1516.21 791.734 1518.01 C 792.656 1520.3 793.169 1521.02 794.523 1523.12 L 793.86 1524.57 C 790.784 1525.26 790.41 1525.16 787.211 1524.93 L 773.225 1523.23 C 778.004 1519.25 782.715 1515.2 787.357 1511.07 C 827.884 1511.22 868.411 1511.17 908.936 1510.92 z" fill="rgb(245,220,150)" transform="translate(0,0)"></path>
<path d="M 110.087 208.536 L 112.114 207.872 L 138.764 207.858 L 138.685 263.659 L 138.704 275.318 C 132.093 282.268 94.5251 323.181 91.652 329.485 C 92.739 348.111 92.0347 373.189 92.038 392.187 L 92.0425 506.483 L 92.8056 827.547 L 92.9223 875.993 L 92.9746 893.141 L 93.0239 1137.93 L 93.092 1164.11 L 93.0535 1255.45 L 93.5952 1327.64 C 93.6151 1334.94 93.3808 1344.25 93.7511 1351.38 L 93.6933 1372.47 L 93.836 1401.07 C 93.8299 1412.69 94.604 1455.79 93.2559 1465.15 L 93.7684 1466.92 C 93.4887 1481.53 93.4024 1496.14 93.5094 1510.76 L 93.469 1517.26 L 93.8042 1518.93 L 93.4443 1527.64 C 96.455 1529.27 99.4729 1530.07 102.73 1531.06 C 99.9401 1531.7 96.0761 1532.71 93.3373 1533.11 C 92.6766 1540.95 92.9677 1548.07 93.1484 1555.92 L 92.9781 1819.27 C 96.6685 1818.88 99.4744 1818.31 103.01 1819.55 C 104.949 1823.29 104.024 1859.81 103.971 1867 L 0 1867.1 L 0 1819.89 L 0 1724.13 L 0 1712.43 L 0 1682.81 L 0 1670.71 L 0 1518.16 L 0 1506.72 L 0 1479.96 L 0 1468.19 L 0 1319.48 L 0 1308.58 L 0 1278.3 L 0 1268.17 L 0 1116.95 L 0 1107.39 L 0 1077.78 L 0 1067.05 L 0 912.948 L 0 900.857 L 0 872.604 L 0 860.772 L 0 699.929 L 0 689.18 L 0 659.791 L 0 648.9 L 0 495.223 L 0 484.053 L 0 452.353 L 0 440.975 L 0 329.163 L 0 274.982 L 0 212.122 L 0 208.576 L 70.0671 208.045 C 81.3989 207.962 99.2493 207.383 110.087 208.536 z" fill="rgb(189,111,16)" transform="translate(0,0)"></path>
<path d="M 69.8617 329.764 C 77.1263 329.847 84.3919 329.754 91.652 329.485 C 92.739 348.111 92.0347 373.189 92.038 392.187 L 92.0425 506.483 L 92.8056 827.547 L 92.9223 875.993 L 92.9746 893.141 L 93.0239 1137.93 L 93.092 1164.11 L 93.0535 1255.45 C 83.8547 1261.1 70.0602 1270.09 60.0335 1272.74 C 61.8811 1270.67 67.628 1265.88 69.9873 1263.82 L 69.9275 1120.94 L 33.4303 1092.41 L 70.0934 1065.98 L 69.7623 970.071 C 69.7117 956.114 68.9612 931.454 70.4679 918.382 C 61.2709 909.477 44.5153 896.456 34.1678 887.937 C 45.9032 878.274 57.7788 868.783 69.7909 859.465 C 68.5415 825.064 69.8391 789.968 69.3659 755.488 C 69.1129 737.049 69.2036 718.083 69.5853 699.672 C 57.9472 691.703 46.5742 683.354 35.4848 674.637 C 46.8978 666.293 58.1048 657.671 69.0957 648.778 L 68.9182 497.12 C 58.5658 487.509 45.0456 477.845 33.8091 467.708 C 45.7201 457.78 57.7312 447.972 69.8406 438.287 L 69.8617 329.764 z" fill="rgb(212,175,55)" transform="translate(0,0)"></path>
<path d="M 60.0335 1272.74 C 70.0602 1270.09 83.8547 1261.1 93.0535 1255.45 L 93.5952 1327.64 C 93.6151 1334.94 93.3808 1344.25 93.7511 1351.38 L 93.6933 1372.47 L 93.836 1401.07 C 93.8299 1412.69 94.604 1455.79 93.2559 1465.15 L 93.7684 1466.92 C 93.4887 1481.53 93.4024 1496.14 93.5094 1510.76 L 93.469 1517.26 L 93.8042 1518.93 L 93.4443 1527.64 C 96.455 1529.27 99.4729 1530.07 102.73 1531.06 C 99.9401 1531.7 96.0761 1532.71 93.3373 1533.11 C 92.6766 1540.95 92.9677 1548.07 93.1484 1555.92 L 92.9781 1819.27 C 90.0916 1820.52 71.2798 1820.02 66.788 1819.99 C 65.6979 1798.18 66.7975 1775.49 66.3913 1753.6 C 66.2308 1744.96 66.1757 1735.01 66.974 1726.47 C 56.4175 1716.91 44.6444 1708.17 33.747 1698.41 C 43.7271 1690.22 56.0511 1681.23 66.4194 1673.28 L 66.5837 1520.97 C 54.9084 1512.25 43.4241 1503.27 32.1389 1494.04 C 42.1394 1485.2 56.1095 1474.9 66.8983 1465.92 L 67.1707 1318.57 C 57.0185 1309.51 46.3678 1301.02 35.2685 1293.15 C 43.6894 1285.72 51.1669 1279.65 60.0335 1272.74 z" fill="rgb(245,220,150)" transform="translate(0,0)"></path>
<path d="M 26.7294 680.641 C 36.4599 687.319 52.1252 698.35 61.1164 705.938 L 61.0732 854.354 C 50.4516 862.591 36.6237 874.201 26.0862 881.691 C 17.0503 875.154 8.34418 868.172 0 860.772 L 0 699.929 C 8.38618 693.801 18.1664 686.267 26.7294 680.641 z" fill="rgb(212,175,55)" transform="translate(0,0)"></path>
<path d="M 0 912.948 C 9.20123 906.342 16.7898 900.599 25.5495 893.434 C 34.4895 900.32 53.9872 915.321 61.6509 922.854 L 60.8187 1061.56 C 49.276 1069.93 37.8121 1079.19 26.3837 1087.31 C 17.9253 1080.62 8.81982 1073.12 0 1067.05 L 0 912.948 z" fill="rgb(212,175,55)" transform="translate(0,0)"></path>
<path d="M 26.1316 473.704 C 36.2475 481.833 51.4716 493.335 60.7271 501.743 L 60.8662 643.023 C 51.7136 650.329 36.4702 662.267 26.5932 668.589 C 20.2043 663.817 6.15292 652.652 0 648.9 L 0 495.223 C 8.59617 487.913 17.3078 480.739 26.1316 473.704 z" fill="rgb(212,175,55)" transform="translate(0,0)"></path>
<path d="M -5.68434e-14 1116.95 C 8.79507 1110.74 17.4531 1104.35 25.9679 1097.77 C 33.6729 1103.72 55.0919 1119.53 61.0717 1125.44 L 61.1135 1259.6 C 50.3867 1269.97 38.5275 1279.51 26.7946 1288.72 C 17.5883 1281.26 9.75946 1275 0 1268.17 L 0 1116.95 z" fill="rgb(212,175,55)" transform="translate(0,0)"></path>
<path d="M 0 1518.16 L 24.7412 1499.55 C 36.357 1508.96 46.8619 1517.26 58.9422 1526.04 L 58.2909 1667.77 C 48.0591 1676.49 37.4058 1684.33 26.6668 1692.39 C 18.4816 1685.45 7.50859 1677.39 0 1670.71 L 0 1518.16 z" fill="rgb(245,220,150)" transform="translate(0,0)"></path>
<path d="M 28.5226 1298.17 C 38.8029 1305.86 48.9882 1313.67 59.0764 1321.61 L 59.0559 1460.81 C 47.4923 1470.22 35.7414 1479.4 23.8101 1488.34 C 17.5404 1483.25 5.26407 1471.9 0 1468.19 L 0 1319.48 C 9.32413 1312.51 19.1206 1304.95 28.5226 1298.17 z" fill="rgb(245,220,150)" transform="translate(0,0)"></path>
<path d="M 110.087 208.536 L 112.114 207.872 L 138.764 207.858 L 138.685 263.659 L 137.925 263.881 L 137.828 275.315 C 91.8869 274.849 45.9429 274.738 1.42109e-14 274.982 L 0 212.122 L 0 208.576 L 70.0671 208.045 C 81.3989 207.962 99.2493 207.383 110.087 208.536 z" fill="rgb(212,175,55)" transform="translate(0,0)"></path>
<path d="M 0 329.163 C 19.6241 329.218 42.4178 328.715 61.7845 329.536 L 61.9347 433.626 C 49.7454 442.875 37.7453 452.371 25.9416 462.107 C 17.6377 455.417 7.91194 447.952 0 440.975 L 0 329.163 z" fill="rgb(212,175,55)" transform="translate(0,0)"></path>
<path d="M 0 1724.13 C 9.16209 1717.45 17.8345 1711.09 26.7145 1704 C 37.3734 1713.85 48.3281 1722.05 59.1152 1731.39 L 59.032 1819.98 L 0 1819.89 L 0 1724.13 z" fill="rgb(245,220,150)" transform="translate(0,0)"></path>
<path d="M 0 452.353 C 6.25612 457.209 13.7705 462.738 19.7478 467.762 L 0 484.053 L 0 452.353 z" fill="rgb(212,175,55)" transform="translate(0,0)"></path>
<path d="M 0 1278.3 C 6.13556 1283.08 13.9068 1288.8 19.7087 1293.77 C 13.8355 1298.19 5.88963 1304.59 0 1308.58 L 0 1278.3 z" fill="rgb(212,175,55)" transform="translate(0,0)"></path>
<path d="M -5.68434e-14 1682.81 C 6.69472 1687.89 13.3029 1693.08 19.8216 1698.38 C 13.7973 1702.67 6.06417 1708.54 0 1712.43 L 0 1682.81 z" fill="rgb(245,220,150)" transform="translate(0,0)"></path>
<path d="M 0 1077.78 C 5.69764 1082.11 13.1593 1088.11 18.9604 1091.99 C 14.1426 1095.95 4.75219 1104.13 0 1107.39 L 0 1077.78 z" fill="rgb(212,175,55)" transform="translate(0,0)"></path>
<path d="M 0 659.791 C 5.86634 664.509 12.9694 669.913 18.5705 674.769 C 12.3315 679.842 6.60069 684.566 0 689.18 L 0 659.791 z" fill="rgb(212,175,55)" transform="translate(0,0)"></path>
<path d="M -1.13687e-13 872.604 C 5.94867 877.41 11.86 882.262 17.7335 887.159 C 12.2875 891.413 5.53205 896.976 0 900.857 L 0 872.604 z" fill="rgb(212,175,55)" transform="translate(0,0)"></path>
<path d="M 0 1479.96 L 16.9849 1492.9 C 11.1472 1497.92 6.16264 1502.1 0 1506.72 L 0 1479.96 z" fill="rgb(245,220,150)" transform="translate(0,0)"></path>
<path d="M 1116.01 208.032 C 1119.48 206.383 1118.42 204.947 1121.41 204.356 L 1121.32 207.407 C 1123.46 208.995 1219.69 208.187 1229 208.171 L 1229 212.04 L 1229 275.037 L 1229 329.074 L 1229 445.942 L 1229 457.816 L 1229 484.407 L 1229 497.052 L 1229 647.899 L 1229 659.682 L 1229 687.711 L 1229 699.099 L 1229 862.643 L 1229 873.888 L 1229 903.184 L 1229 913.006 L 1229 1050.75 L 1229 1065.73 L 1229 1076.36 L 1229 1106.07 L 1229 1117.05 L 1229 1264.09 L 1229 1275.03 L 1229 1303.68 L 1229 1315.86 L 1229 1469.17 L 1229 1480.79 L 1229 1507.32 L 1229 1518.91 L 1229 1670.94 L 1229 1682.95 L 1229 1713.26 L 1229 1725.01 L 1229 1822.15 C 1215.98 1822.17 1181.69 1823.04 1169.74 1821.6 C 1164.84 1821.15 1166.73 1821.84 1162.62 1818.76 L 1161.21 1820.94 C 1155.65 1823.39 1143.97 1821.16 1136.99 1822.67 L 1136.58 1679.41 C 1136.59 1666.53 1137.86 1560.71 1135.77 1555.17 C 1135.59 1552.13 1136.02 1551.29 1136.88 1548.29 L 1136.99 1516.93 L 1136.83 1510.75 C 1136.01 1497.07 1136.58 1476.99 1136.58 1463.08 L 1136.6 1373.67 C 1136.63 1349.64 1136.55 1325.6 1136.34 1301.57 L 1136.3 1276.4 L 1136.29 1207.48 C 1136.39 1200.86 1136.27 1193.99 1136.24 1187.34 L 1136.89 1032.03 C 1137.83 986.09 1137.01 936.867 1137.02 890.68 L 1137.03 875.524 L 1137.07 828.198 L 1137.18 768.296 C 1136.35 752.961 1136.93 732.616 1136.96 716.988 L 1137.09 621.749 L 1136.93 328.699 C 1125.67 313.604 1104.42 289.615 1091.79 275.119 C 1091.8 256.123 1092.74 229.947 1091.5 211.77 C 1091.73 210.061 1091.81 210.335 1092.6 208.709 C 1097.03 207.272 1110.46 207.96 1116.01 208.032 z" fill="rgb(189,111,16)" transform="translate(0,0)"></path>
<path d="M 1136.89 1032.03 C 1142.54 1032.39 1156.78 1033.73 1161.92 1035.44 L 1161.86 1066.95 C 1172.67 1074.85 1184.59 1084.49 1195.19 1091.94 C 1184.78 1100.31 1171.69 1111.45 1161.13 1119.16 C 1163.04 1164.01 1161.79 1218.79 1161.61 1264.4 C 1173.22 1272.76 1184.24 1281.45 1195.49 1290.26 C 1184.19 1298.82 1172.98 1307.49 1161.85 1316.28 L 1161.78 1466 C 1173.5 1475.31 1185.35 1484.45 1197.32 1493.42 C 1186.15 1503.07 1173.4 1512.11 1161.29 1520.58 C 1162.27 1536.93 1161.68 1558.75 1161.74 1575.5 C 1162.02 1608.22 1162.09 1640.95 1161.95 1673.68 C 1171.02 1680.16 1186.19 1691.22 1194.5 1698.45 C 1185.11 1705.5 1170.78 1716.82 1161.22 1722.85 L 1161.47 1785.35 C 1161.5 1795.86 1161.92 1810.7 1161.21 1820.94 C 1155.65 1823.39 1143.97 1821.16 1136.99 1822.67 L 1136.58 1679.41 C 1136.59 1666.53 1137.86 1560.71 1135.77 1555.17 C 1135.59 1552.13 1136.02 1551.29 1136.88 1548.29 L 1136.99 1516.93 L 1136.83 1510.75 C 1136.01 1497.07 1136.58 1476.99 1136.58 1463.08 L 1136.6 1373.67 C 1136.63 1349.64 1136.55 1325.6 1136.34 1301.57 L 1136.3 1276.4 L 1136.29 1207.48 C 1136.39 1200.86 1136.27 1193.99 1136.24 1187.34 L 1136.89 1032.03 z" fill="rgb(245,220,150)" transform="translate(0,0)"></path>
<path d="M 1137.52 329.814 L 1160.55 329.838 C 1160.76 366.223 1161.89 409.579 1160.29 445.755 C 1169.91 452.743 1186.06 464.074 1194.5 471.823 L 1161.11 497.019 L 1160.94 649.394 C 1172.02 657.213 1184.55 665.664 1195.11 674 C 1184.86 681.626 1171.49 692.146 1161.12 699.049 C 1161.15 752.657 1160.34 809.065 1161.37 862.438 C 1172.03 871.111 1185.03 880.453 1195.04 888.96 C 1184.61 897.129 1172.9 906.3 1161.79 913.434 L 1161.92 1035.44 C 1156.78 1033.73 1142.54 1032.39 1136.89 1032.03 C 1137.83 986.09 1137.01 936.867 1137.02 890.68 L 1137.03 875.524 L 1137.07 828.198 L 1137.18 768.296 C 1138.23 750.471 1137.76 728.546 1137.84 710.254 L 1138.04 605.097 L 1137.52 329.814 z" fill="rgb(212,175,55)" transform="translate(0,0)"></path>
<path d="M 1169.08 705.226 C 1177.76 697.852 1193.32 686.988 1202.87 679.912 C 1211.25 685.538 1220.79 693.002 1229 699.099 L 1229 862.643 C 1219.58 870.365 1211.86 876.578 1201.81 883.611 L 1169.92 858.131 L 1169.08 705.226 z" fill="rgb(212,175,55)" transform="translate(0,0)"></path>
<path d="M 1203.26 476.133 C 1212.23 483.132 1220.37 489.579 1229 497.052 L 1229 647.899 L 1203.04 667.934 C 1192.47 659.095 1180.18 650.73 1168.86 642.743 C 1168.49 596.037 1168.36 549.329 1168.47 502.621 C 1180.15 493.896 1191.74 485.067 1203.26 476.133 z" fill="rgb(212,175,55)" transform="translate(0,0)"></path>
<path d="M 1204.93 1499.74 C 1212.18 1505.98 1221.39 1512.89 1229 1518.91 L 1229 1670.94 C 1219.89 1678.07 1210.87 1685.31 1201.93 1692.65 C 1191.28 1683.89 1180.84 1676.06 1169.81 1667.8 L 1169.52 1526.23 C 1179.57 1518.04 1194.22 1507.79 1204.93 1499.74 z" fill="rgb(245,220,150)" transform="translate(0,0)"></path>
<path d="M 1169.86 1321.25 C 1180.92 1312.73 1192.19 1304.23 1202.84 1295.21 C 1211.04 1300.89 1221.07 1309.45 1229 1315.86 L 1229 1469.17 C 1221.43 1475.58 1213.16 1481.93 1205.36 1488.11 C 1193.45 1479.36 1181.63 1470.5 1169.9 1461.53 L 1169.86 1321.25 z" fill="rgb(245,220,150)" transform="translate(0,0)"></path>
<path d="M 1169.18 1124.7 C 1180.58 1115.73 1191.8 1106.54 1202.85 1097.13 L 1229 1117.05 L 1229 1264.09 C 1219.57 1270.65 1211.71 1277.47 1203.03 1284.9 C 1193.05 1276.36 1180.26 1266.78 1169.77 1258.53 C 1168.59 1214.71 1169.2 1168.68 1169.18 1124.7 z" fill="rgb(245,220,150)" transform="translate(0,0)"></path>
<path d="M 1116.01 208.032 C 1119.48 206.383 1118.42 204.947 1121.41 204.356 L 1121.32 207.407 C 1123.46 208.995 1219.69 208.187 1229 208.171 L 1229 212.04 L 1229 275.037 L 1091.79 275.119 C 1091.8 256.123 1092.74 229.947 1091.5 211.77 C 1091.73 210.061 1091.81 210.335 1092.6 208.709 C 1097.03 207.272 1110.46 207.96 1116.01 208.032 z" fill="rgb(212,175,55)" transform="translate(0,0)"></path>
<path d="M 1202.26 893.641 C 1211.06 900.25 1219.97 906.706 1229 913.006 L 1229 1050.75 C 1209.44 1045 1190 1039.79 1169.86 1036.44 C 1168.67 998.086 1169.25 956.917 1169.18 918.355 C 1181.01 910.26 1191.05 902.522 1202.26 893.641 z" fill="rgb(212,175,55)" transform="translate(0,0)"></path>
<path d="M 1229 329.074 L 1229 445.942 C 1221.5 450.764 1210.1 459.804 1202.62 465.356 C 1192.08 456.681 1180.11 449.263 1169.13 440.129 L 1168.83 329.677 L 1229 329.074 z" fill="rgb(212,175,55)" transform="translate(0,0)"></path>
<path d="M 1201.5 1704.06 L 1229 1725.01 L 1229 1822.15 C 1215.98 1822.17 1181.69 1823.04 1169.74 1821.6 L 1169.72 1727.71 C 1179.87 1720.96 1192.18 1711.65 1201.5 1704.06 z" fill="rgb(245,220,150)" transform="translate(0,0)"></path>
<path d="M 1169.86 1036.44 C 1190 1039.79 1209.44 1045 1229 1050.75 L 1229 1065.73 L 1202.54 1086.52 C 1192.14 1078.48 1179.6 1069.26 1169.94 1060.61 L 1169.86 1036.44 z" fill="rgb(245,220,150)" transform="translate(0,0)"></path>
<path d="M 1229 1682.95 L 1229 1713.26 C 1222.57 1708.29 1216.12 1703.35 1209.63 1698.44 L 1229 1682.95 z" fill="rgb(245,220,150)" transform="translate(0,0)"></path>
<path d="M 1229 873.888 L 1229 903.184 L 1209.49 888.574 L 1229 873.888 z" fill="rgb(212,175,55)" transform="translate(0,0)"></path>
<path d="M 1210.25 1091.91 C 1216.39 1087.14 1222.97 1081.4 1229 1076.36 L 1229 1106.07 C 1223.5 1102.52 1215.65 1096.1 1210.25 1091.91 z" fill="rgb(245,220,150)" transform="translate(0,0)"></path>
<path d="M 1210.72 1289.55 L 1229 1275.03 L 1229 1303.68 L 1210.72 1289.55 z" fill="rgb(245,220,150)" transform="translate(0,0)"></path>
<path d="M 1210.67 674.113 L 1229 659.682 L 1229 687.711 C 1223.31 683.869 1216.29 678.311 1210.67 674.113 z" fill="rgb(212,175,55)" transform="translate(0,0)"></path>
<path d="M 1229 457.816 L 1229 484.407 C 1223.88 480.045 1217.14 475.109 1211.7 470.926 L 1229 457.816 z" fill="rgb(212,175,55)" transform="translate(0,0)"></path>
<path d="M 1229 1480.79 L 1229 1507.32 C 1224.31 1503.92 1217.17 1497.67 1212.5 1493.83 L 1229 1480.79 z" fill="rgb(245,220,150)" transform="translate(0,0)"></path>
<path d="M 923.615 640.725 L 929.316 640.75 C 943.628 640.755 959.615 641.097 973.788 640.658 L 979.958 640.695 L 996.377 640.916 C 997.836 658.412 997.032 688.763 997.067 707.304 L 997.271 828.407 L 997.67 875.999 L 997.723 891.079 L 997.968 982.386 C 997.989 988.951 997.73 1017.15 998.784 1021.83 L 998.651 1022.66 L 998.806 1026.22 L 998.605 1094.86 L 998.548 1118.63 L 998.282 1245.48 C 998.283 1256.44 997.626 1293.74 998.859 1303.14 L 998.592 1305.53 L 998.796 1373.47 C 998.814 1382.37 998.496 1393.68 998.883 1402.37 L 998.753 1463.9 L 998.821 1464.95 C 998.396 1480.19 998.252 1495.43 998.388 1510.67 L 998.109 1517.11 C 998.055 1522.34 997.579 1530.07 998.998 1534.87 C 1001.53 1539.37 999.163 1544.99 1000.71 1547.89 C 1000.82 1550.18 1001.1 1553.59 1000.86 1555.77 C 1000.83 1555.85 999.845 1561.98 999.489 1563.43 C 998.943 1563.62 997.661 1564.07 997.129 1564.04 C 985.137 1563.3 910.541 1566.09 905.741 1562.52 C 905.512 1559.45 905.599 1559.1 904.31 1556.38 L 901.17 1555.6 C 902.223 1555.45 903.338 1555.04 904.372 1554.71 L 904.973 1552.13 L 903.728 1550.17 C 896.387 1546.91 866.42 1549.42 854.893 1548.5 C 862.57 1547.32 895.518 1547.95 904.551 1547.97 C 904.254 1542.73 903.336 1537.41 906.086 1533.29 C 910.804 1531.52 909.861 1519.72 907.784 1516.77 C 907.277 1514.75 908.222 1512.98 908.936 1510.92 L 908.819 1464.46 L 908.882 1015.23 L 908.763 826.562 L 908.124 701.346 C 908.105 683.269 907.39 658.466 908.569 640.808 L 923.615 640.725 z" fill="rgb(189,111,16)" transform="translate(0,0)"></path>
<path d="M 908.882 1015.23 C 914.531 1014.46 917.914 1014.08 923.587 1014 C 930.662 1020.26 937.674 1026.59 944.623 1033 C 938.056 1038.74 931.917 1044.26 924.854 1049.39 C 924.426 1083.65 924.206 1117.91 924.192 1152.17 L 944.36 1168.47 C 937.745 1174.22 930.42 1180.32 923.996 1186.17 L 924.065 1286.76 C 931.288 1293.14 937.319 1298.44 945.021 1304.19 C 937.975 1310.07 930.534 1316.09 923.722 1322.18 C 923.544 1358.42 923.556 1394.66 923.757 1430.9 C 931.153 1436.64 938.497 1442.44 945.788 1448.31 C 938.549 1454.22 931.243 1460.03 923.872 1465.77 C 923.931 1481.84 922.977 1517.57 924.449 1531.63 C 926.333 1533.47 927.134 1533.44 929.796 1534.13 C 930.088 1512.77 930.083 1491.41 929.782 1470.05 C 936.96 1464.61 945.559 1458.41 952.374 1452.7 C 959.363 1458.09 967.473 1464.05 973.919 1469.9 L 973.922 1534.55 C 959.882 1534.84 945.837 1534.92 931.794 1534.8 C 926.332 1534.92 909.787 1536.04 906.086 1533.29 C 910.804 1531.52 909.861 1519.72 907.784 1516.77 C 907.277 1514.75 908.222 1512.98 908.936 1510.92 L 908.819 1464.46 L 908.882 1015.23 z" fill="rgb(245,220,150)" transform="translate(0,0)"></path>
<path d="M 961.639 1030.58 C 971.554 1030.97 988.398 1014.69 998.651 1022.66 L 998.806 1026.22 L 998.605 1094.86 L 998.548 1118.63 L 998.282 1245.48 C 998.283 1256.44 997.626 1293.74 998.859 1303.14 L 998.592 1305.53 L 998.796 1373.47 C 998.814 1382.37 998.496 1393.68 998.883 1402.37 L 998.753 1463.9 L 998.821 1464.95 C 998.396 1480.19 998.252 1495.43 998.388 1510.67 L 998.109 1517.11 C 998.055 1522.34 997.579 1530.07 998.998 1534.87 L 998.632 1535.28 C 992.289 1534.81 985.91 1534.7 979.55 1534.53 C 979.696 1511.69 979.703 1488.85 979.571 1466.01 C 974.347 1460.48 964.886 1453.37 958.681 1448.43 C 965.445 1442.96 972.1 1437.35 978.643 1431.62 C 978.712 1396.13 978.224 1358.8 979.175 1323.46 C 974.251 1318.21 963.651 1309.52 957.87 1304.51 C 964.845 1299.15 971.617 1293.54 978.171 1287.67 L 978.616 1186.84 C 972.76 1181.04 964.06 1173.92 957.67 1168.39 C 963.932 1162.78 972.186 1156.73 978.948 1151.52 L 978.287 1049.49 C 974.059 1046.58 960.08 1036.85 959.208 1032.39 L 961.639 1030.58 z" fill="rgb(245,220,150)" transform="translate(0,0)"></path>
<path d="M 979.958 640.695 L 996.377 640.916 C 997.836 658.412 997.032 688.763 997.067 707.304 L 997.271 828.407 L 997.67 875.999 L 997.723 891.079 L 997.968 982.386 C 997.989 988.951 997.73 1017.15 998.784 1021.83 L 998.651 1022.66 C 988.398 1014.69 971.554 1030.97 961.639 1030.58 C 966.966 1026.16 975.48 1019.66 979.659 1014.55 C 979.297 979.353 979.256 944.155 979.537 908.96 C 972.444 902.936 965.268 897.012 958.009 891.189 C 965.838 884.955 972.572 879.486 979.964 872.765 C 979.787 836.103 979.893 799.439 980.281 762.778 C 973.907 756.654 965.374 749.566 958.611 743.622 C 965.957 736.905 973.209 730.086 980.364 723.166 L 979.958 640.695 z" fill="rgb(212,175,55)" transform="translate(0,0)"></path>
<path d="M 908.569 640.808 L 923.615 640.725 C 923.583 668.703 923.289 697.145 923.557 725.085 C 931.062 732.001 937.992 737.464 946.034 743.79 C 938.573 749.634 930.673 755.626 923.362 761.594 C 923.187 798.878 923.315 836.162 923.746 873.444 C 930.695 880.392 938.592 885.706 946.574 891.432 C 939.171 897.476 931.045 903.846 923.846 910.033 C 923.839 943.61 924.614 980.707 923.587 1014 C 917.914 1014.08 914.531 1014.46 908.882 1015.23 L 908.763 826.562 L 908.124 701.346 C 908.105 683.269 907.39 658.466 908.569 640.808 z" fill="rgb(212,175,55)" transform="translate(0,0)"></path>
<path d="M 929.316 640.75 C 943.628 640.755 959.615 641.097 973.788 640.658 C 974.733 665.501 974.091 695.493 974.121 720.711 C 966.237 727.078 959.6 732.454 952.291 739.431 C 945.87 733.857 936.733 727.116 929.881 721.739 L 929.316 640.75 z" fill="rgb(212,175,55)" transform="translate(0,0)"></path>
<path d="M 952.302 747.786 C 956.31 750.269 971.058 763.635 975.001 767.153 C 975.07 801.123 974.864 835.093 974.38 869.059 C 967.55 875.133 959.607 882.106 952.159 887.259 C 945.256 881.362 936.803 875.095 929.59 869.526 L 929.368 765.855 C 936.085 759.658 944.888 753.36 952.302 747.786 z" fill="rgb(212,175,55)" transform="translate(0,0)"></path>
<path d="M 951.588 895.738 C 955.748 898.035 970.175 910.022 974.132 913.26 L 974.061 1011.38 C 967.661 1017.88 959.371 1023.96 952.008 1029.27 C 944.815 1024.22 936.301 1017.15 929.599 1011.46 C 929.442 978.674 929.481 945.891 929.717 913.109 C 936.351 907.427 944.639 901.219 951.588 895.738 z" fill="rgb(212,175,55)" transform="translate(0,0)"></path>
<path d="M 951.286 1308.96 C 956.031 1311.69 968.465 1322.74 973.334 1326.93 C 972.436 1359.63 972.935 1394.8 972.801 1427.67 C 966.072 1433.2 958.879 1438.66 951.993 1444.04 C 945.527 1438.32 936.276 1431.64 929.337 1426.42 L 929.286 1326.2 L 951.286 1308.96 z" fill="rgb(245,220,150)" transform="translate(0,0)"></path>
<path d="M 950.922 1172.84 C 958.863 1178.8 965.417 1183.92 972.944 1190.38 L 972.935 1283.9 C 966.692 1289.21 958.738 1295.12 952.185 1300.25 C 948.691 1299.37 933.419 1286.46 929.914 1283.59 L 929.972 1189.31 C 936.147 1183.34 943.949 1177.89 950.922 1172.84 z" fill="rgb(245,220,150)" transform="translate(0,0)"></path>
<path d="M 950.778 1037.68 C 955.555 1039.41 968.266 1049.66 973.024 1053.34 L 972.986 1148.21 L 951.495 1164.27 C 948.222 1163.94 934.347 1152.07 930.753 1149.18 C 929.456 1119.46 930.585 1082.99 930.834 1052.74 C 937.296 1047.5 944.073 1042.61 950.778 1037.68 z" fill="rgb(245,220,150)" transform="translate(0,0)"></path>
<path d="M 198.597 600.869 C 231.213 601.096 263.829 601.129 296.445 600.968 C 312.583 600.951 338.324 601.762 353.845 600.724 C 348.579 605.515 320.968 633.027 319.294 637.615 C 320.737 649.228 319.73 685.101 319.721 698.412 L 319.684 827.285 L 319.721 876.258 L 319.719 892.204 C 319.811 912.623 320.34 935.319 319.737 955.554 L 319.745 1467.15 C 319.785 1481.76 319.743 1496.38 319.618 1511 L 319.689 1517.1 C 319.689 1521.18 319.117 1525.25 321.489 1528.37 C 323.911 1529.92 324.235 1529.83 327.171 1530.22 L 328.025 1532.99 C 328.038 1536.19 327.843 1547.69 328.733 1549.89 C 328.757 1551.44 328.88 1553.57 328.693 1555.05 L 328.572 1555.56 C 327.433 1560.47 328.964 1560.82 326.251 1563.47 C 305.542 1563.88 284.202 1563.57 263.444 1563.53 C 253.216 1563.51 236.288 1564.03 226.839 1563.11 C 225.441 1560.26 225.795 1558.88 225.949 1555.7 C 226.191 1552.31 226.937 1549.5 224.226 1547.42 C 226.51 1545.93 225.912 1536.59 226.72 1532.66 L 225.975 1529.66 C 229.356 1530.02 229.768 1529.95 232.995 1528.87 C 233.527 1527.13 233.789 1520.43 233.921 1518.2 C 234.704 1514.79 234.971 1514.06 234.479 1510.63 C 233.401 1505.07 233.553 1462.63 233.389 1453.61 L 233.264 1447.79 L 233.157 1421.82 L 233.049 1203.78 L 233.053 1191.43 L 233.062 1164.09 L 233.03 1136.55 C 233.397 1128.51 233.082 1117.94 233.085 1109.69 L 233.128 1097.04 C 233.19 1088.83 233.163 1080.62 233.049 1072.41 C 233.297 1062.5 233.168 1051.98 233.218 1042.01 L 233.227 1018.7 L 233.658 1014.65 C 235.491 1008.98 234.226 943.272 234.198 932.535 L 250.025 930.911 L 250.049 909.54 C 257.151 903.106 264.382 896.817 271.74 890.678 C 264.318 884.855 257.066 879.272 250.06 872.928 L 249.999 764.076 C 257.355 757.905 264.968 750.491 272.036 743.872 C 264.801 737.623 257.284 731.445 249.945 725.297 C 250.664 697.078 250.099 666.261 250.138 637.84 C 244.494 637.956 238.847 637.896 233.205 637.661 C 228.525 629.998 205.839 608.049 198.597 600.869 z" fill="rgb(139,69,19)" transform="translate(0,0)"></path>
<path d="M 234.198 932.535 L 250.025 930.911 L 249.985 1011.64 C 257.171 1017.62 264.323 1023.65 271.441 1029.71 C 266.219 1034.05 255.348 1043.58 250.151 1046.98 C 250.389 1080.67 250.936 1117.29 249.921 1150.86 C 257.063 1156.84 264.725 1163.54 271.98 1169.28 C 264.81 1175.08 257.671 1180.93 250.562 1186.81 C 250.27 1220.67 250.213 1254.54 250.394 1288.41 C 255.375 1294.85 264.693 1301.85 271.29 1306.69 C 264.275 1312.58 256.971 1318.56 250.081 1324.56 C 250.108 1358.5 250.461 1392.98 250.114 1426.87 C 257.089 1432.9 264.23 1438.75 271.529 1444.39 L 248.673 1461.63 C 251.21 1472.45 250.279 1519.61 250.247 1533.53 C 245.012 1533.51 231.055 1533.81 226.72 1532.66 L 225.975 1529.66 C 229.356 1530.02 229.768 1529.95 232.995 1528.87 C 233.527 1527.13 233.789 1520.43 233.921 1518.2 C 234.704 1514.79 234.971 1514.06 234.479 1510.63 C 233.401 1505.07 233.553 1462.63 233.389 1453.61 L 233.264 1447.79 L 233.157 1421.82 L 233.049 1203.78 L 233.053 1191.43 L 233.062 1164.09 L 233.03 1136.55 C 233.397 1128.51 233.082 1117.94 233.085 1109.69 L 233.128 1097.04 C 233.19 1088.83 233.163 1080.62 233.049 1072.41 C 233.297 1062.5 233.168 1051.98 233.218 1042.01 L 233.227 1018.7 L 233.658 1014.65 C 235.491 1008.98 234.226 943.272 234.198 932.535 z" fill="rgb(245,220,150)" transform="translate(0,0)"></path>
<path d="M 304.725 925.972 C 309.183 925.389 314.339 925.188 318.886 924.906 C 318.875 932.673 318.37 948.862 319.737 955.554 L 319.745 1467.15 C 319.785 1481.76 319.743 1496.38 319.618 1511 L 319.689 1517.1 C 319.689 1521.18 319.117 1525.25 321.489 1528.37 C 323.911 1529.92 324.235 1529.83 327.171 1530.22 L 328.025 1532.99 C 323.843 1533.6 309.688 1533.55 304.754 1533.64 L 304.895 1460.67 C 298.803 1455.34 290.584 1449.22 284.108 1444.13 C 290.928 1438.66 297.679 1433.1 304.361 1427.46 C 304.943 1393.42 304.328 1357.8 304.253 1323.63 L 283.017 1306.31 C 290.656 1301 297.379 1294.89 304.026 1288.41 L 304.142 1187.39 C 297.243 1181.35 289.798 1175.29 282.751 1169.36 C 289.633 1162.86 296.982 1156.86 304.248 1150.79 L 304.019 1083.88 C 304.012 1074.87 303.511 1056.9 304.671 1048.89 C 296.636 1042.59 289.606 1036.67 281.897 1029.96 C 288.853 1023.51 296.971 1017.16 304.375 1011.13 C 305.092 1005.28 304.832 989.735 304.856 983.507 C 304.926 964.328 304.882 945.15 304.725 925.972 z" fill="rgb(245,220,150)" transform="translate(0,0)"></path>
<path d="M 303.335 638.007 C 309.005 638.08 313.631 637.944 319.294 637.615 C 320.737 649.228 319.73 685.101 319.721 698.412 L 319.684 827.285 L 319.721 876.258 L 319.719 892.204 C 319.811 912.623 320.34 935.319 319.737 955.554 C 318.37 948.862 318.875 932.673 318.886 924.906 C 314.339 925.188 309.183 925.389 304.725 925.972 C 304.882 945.15 304.926 964.328 304.856 983.507 C 304.832 989.735 305.092 1005.28 304.375 1011.13 C 303.48 1005.38 303.865 984.24 303.872 977.57 C 303.851 954.716 303.958 931.863 304.194 909.011 C 297.438 902.944 288.85 896.338 281.687 890.551 C 288.684 884.075 296.672 877.591 304.014 871.415 C 303.785 835.812 303.767 800.208 303.96 764.605 L 281.165 744.334 L 303.932 724.306 L 303.335 638.007 z" fill="rgb(212,175,55)" transform="translate(0,0)"></path>
<path d="M 276.113 747.682 C 278.567 748.68 295.976 764.41 299.239 767.247 L 299.201 868.085 C 291.617 874.848 285.552 880.057 277.478 886.183 C 273.498 885.928 259.337 873.692 255.05 870.257 C 255.156 835.756 254.994 801.255 254.563 766.756 L 276.113 747.682 z" fill="rgb(212,175,55)" transform="translate(0,0)"></path>
<path d="M 276.245 1033.92 C 279.855 1035.86 295.544 1049.09 299.022 1051.98 C 299.33 1083.88 299.346 1115.77 299.07 1147.67 L 277.722 1165.35 C 275.43 1164.89 258.232 1150.42 254.869 1147.74 L 255.161 1050.16 C 261.138 1045.07 269.846 1038.82 276.245 1033.92 z" fill="rgb(245,220,150)" transform="translate(0,0)"></path>
<path d="M 254.975 911.818 C 262.235 906.049 269.578 900.384 277 894.826 C 283.616 899.236 292.47 906.455 298.967 911.443 L 299.075 926.774 L 299.091 1008.93 C 291.646 1014.73 283.75 1020.69 276.562 1026.74 C 270.174 1021.43 260.724 1014.05 254.918 1008.51 L 254.937 930.278 L 254.975 911.818 z" fill="rgb(245,220,150)" transform="translate(0,0)"></path>
<path d="M 254.975 911.818 C 262.235 906.049 269.578 900.384 277 894.826 C 283.616 899.236 292.47 906.455 298.967 911.443 L 299.075 926.774 C 287.069 927.206 266.723 928.492 254.937 930.278 L 254.975 911.818 z" fill="rgb(212,175,55)" transform="translate(0,0)"></path>
<path d="M 277.154 1310 C 282.925 1314.05 293.448 1323.35 299.682 1328.32 L 299.887 1423.14 C 293.253 1427.32 284.056 1434.73 277.592 1439.65 C 270.732 1434.24 262.147 1428.37 254.931 1422.97 L 255.096 1327.64 L 277.154 1310 z" fill="rgb(245,220,150)" transform="translate(0,0)"></path>
<path d="M 277.105 1173.78 C 280.006 1174.31 295.637 1188.24 299.115 1191.23 L 299.043 1284.35 C 291.903 1290.39 284.708 1296.36 277.459 1302.27 C 274.112 1301.29 258.931 1288.28 255.096 1285.1 L 255.228 1191.62 C 262.183 1185.27 269.487 1179.31 277.105 1173.78 z" fill="rgb(245,220,150)" transform="translate(0,0)"></path>
<path d="M 254.458 637.791 L 299.287 637.892 L 299.446 721.24 L 288.033 731.395 L 276.678 741.148 C 269.458 734.811 262.17 728.551 254.816 722.369 C 254.363 694.423 254.562 665.79 254.458 637.791 z" fill="rgb(212,175,55)" transform="translate(0,0)"></path>
<path d="M 277.097 1447.95 C 284.641 1453.1 292.29 1459.24 299.556 1464.87 L 299.829 1533.78 L 279.5 1533.8 L 255.41 1533.83 L 255.142 1464.95 C 262.547 1459.39 269.866 1453.73 277.097 1447.95 z" fill="rgb(245,220,150)" transform="translate(0,0)"></path>
<path d="M 746.404 1432.93 C 762.097 1433.85 842.653 1431.7 850.214 1434.14 C 854.797 1439.56 868.819 1451.6 874.895 1455.83 C 878.877 1460.26 876.154 1491.56 877.004 1500.04 L 349.022 1499.89 C 348.978 1488.89 348.814 1477.89 348.528 1466.9 C 348.585 1461.27 352.045 1459.27 355.987 1455.68 C 359.682 1452.65 370.896 1443.72 372.278 1439.94 C 372.508 1438.21 372.916 1436.77 373.325 1435.08 C 378.021 1432.1 467.769 1433.43 478.978 1433.45 C 479.016 1436.57 478.602 1440.21 480.216 1442.62 C 487.755 1443.27 509.076 1443.5 516.56 1442.64 C 517.522 1439.17 517.195 1436.79 517.044 1433.22 C 579.205 1432.32 642.774 1433.52 705.245 1433.1 L 705.616 1443.22 C 711.923 1443.23 739.484 1443.68 743.454 1442.42 C 744.362 1438.91 744.187 1437.71 744.014 1434.2 L 746.404 1432.93 z" fill="rgb(26,107,58)" transform="translate(0,0)"></path>
<path d="M 746.404 1432.93 C 762.097 1433.85 842.653 1431.7 850.214 1434.14 C 854.797 1439.56 868.819 1451.6 874.895 1455.83 C 868.057 1456.8 847.744 1456.32 840.261 1456.31 L 771.416 1456.14 L 531.914 1456.21 L 409.983 1456.4 C 400.659 1456.42 363.04 1457.06 355.987 1455.68 C 359.682 1452.65 370.896 1443.72 372.278 1439.94 C 372.508 1438.21 372.916 1436.77 373.325 1435.08 C 378.021 1432.1 467.769 1433.43 478.978 1433.45 C 479.016 1436.57 478.602 1440.21 480.216 1442.62 C 487.755 1443.27 509.076 1443.5 516.56 1442.64 C 517.522 1439.17 517.195 1436.79 517.044 1433.22 C 579.205 1432.32 642.774 1433.52 705.245 1433.1 L 705.616 1443.22 C 711.923 1443.23 739.484 1443.68 743.454 1442.42 C 744.362 1438.91 744.187 1437.71 744.014 1434.2 L 746.404 1432.93 z" fill="rgb(212,175,55)" transform="translate(0,0)"></path>
<path d="M 648.828 1266.08 L 704.954 1266.05 L 704.885 1378.3 C 704.913 1393.21 704.181 1418.82 705.245 1433.1 C 642.774 1433.52 579.205 1432.32 517.044 1433.22 C 517.94 1417.21 517.246 1393.09 517.253 1376.68 L 517.242 1266.14 L 648.828 1266.08 z" fill="rgb(26,107,58)" transform="translate(0,0)"></path>
<path d="M 579.125 1360.04 L 576.025 1356.31 L 576.333 1354.72 C 581.12 1349.55 595.161 1332.23 600.979 1331.34 C 600.016 1334.78 591.345 1343.2 588.201 1346.84 C 585.547 1349.29 579.553 1353.91 579.27 1356.68 C 582.193 1359.15 583.303 1360.1 585.812 1363.07 C 585.878 1364.76 586.042 1364.95 585.419 1366.48 C 583.333 1364.32 581.235 1362.17 579.125 1360.04 z" fill="rgb(231,243,241)" transform="translate(0,0)"></path>
<path d="M 627.826 1329.99 C 632.616 1330.86 648.476 1350.94 653.697 1355.96 C 651.312 1358.46 648.88 1361.74 645.755 1362.51 L 643.72 1361.52 C 647.278 1358.59 647.943 1359.13 648.472 1355.49 C 646.898 1350.61 641.312 1346.16 637.004 1343.64 C 639.271 1340.42 628.198 1336.18 627.826 1329.99 z" fill="rgb(210,235,230)" transform="translate(0,0)"></path>
<path d="M 595.154 1376.39 C 601.414 1377.57 606.679 1385.16 611.484 1390.48 C 611.884 1391.38 612.527 1391.88 613.261 1392.67 C 617.099 1391.17 619.218 1387.55 622.878 1384.46 L 623.416 1384.02 C 623.61 1391.05 618.41 1391.18 615.19 1397.72 C 608.893 1391.84 600.182 1383.21 595.154 1376.39 z" fill="rgb(210,235,230)" transform="translate(0,0)"></path>
<path d="M 610.921 1381.17 C 610.534 1379.97 608.006 1376.64 607.158 1375.46 L 608.011 1374.06 C 611.98 1374.22 609.705 1377.5 614.939 1379.24 C 620.119 1376.78 622.996 1369.35 629.032 1365.22 L 631.716 1366.24 C 627.089 1370.95 618.663 1382.1 613.487 1382.42 L 610.921 1381.17 z" fill="rgb(210,235,230)" transform="translate(0,0)"></path>
<path d="M 589.772 1352.74 C 592.821 1355.47 606.331 1370.78 606.815 1374.4 C 603.122 1373.03 593.283 1361.58 590.749 1358.22 C 588.663 1355.45 589.196 1356.09 589.772 1352.74 z" fill="rgb(210,235,230)" transform="translate(0,0)"></path>
<path d="M 617.069 1320.29 C 622.401 1320.15 627.227 1324.88 627.826 1329.99 L 626.01 1330.47 C 623.086 1327.02 620.106 1323.63 617.069 1320.29 z" fill="rgb(210,235,230)" transform="translate(0,0)"></path>
<path d="M 637.452 1368.14 C 638.368 1374.4 633.33 1379.86 627.22 1380.5 C 630.027 1376.14 633.966 1372.03 637.452 1368.14 z" fill="rgb(210,235,230)" transform="translate(0,0)"></path>
<path d="M 614.638 1337.62 C 616.567 1339.39 616.485 1339.31 617.691 1341.65 C 612.566 1342.61 614.434 1341.64 610.687 1345.38 L 609.267 1346.97 L 608.075 1346.03 C 609.5 1342.53 611.994 1340.4 614.638 1337.62 z" fill="rgb(210,235,230)" transform="translate(0,0)"></path>
<path d="M 620.75 1335.73 C 624.795 1336.78 629.039 1342.82 631.982 1346.27 L 628.518 1346.04 C 624.96 1343.92 622.552 1339.35 620.75 1335.73 z" fill="rgb(210,235,230)" transform="translate(0,0)"></path>
<path d="M 603.22 1350.9 L 604.048 1351.5 C 604.718 1354.35 603.292 1355.39 601.501 1358.65 L 599.416 1357.29 L 599.284 1355.35 L 603.22 1350.9 z" fill="rgb(210,235,230)" transform="translate(0,0)"></path>
<path d="M 1069.38 0 L 1195.51 0 L 1229 0 L 1229 208.171 C 1219.69 208.187 1123.46 208.995 1121.32 207.407 L 1121.41 204.356 C 1118.42 204.947 1119.48 206.383 1116.01 208.032 C 1114.34 204.279 1113.07 155.445 1112.2 145.487 C 1110.91 129.726 1108.69 114.054 1105.57 98.5517 C 1101.09 76.1195 1094.21 54.2349 1085.04 33.2763 C 1079.95 21.8568 1073.91 11.8458 1069.38 0 z" fill="rgb(26,10,0)" transform="translate(0,0)"></path>
<path d="M 1069.38 0 L 1195.51 0 C 1173.49 39.7261 1161.88 67.0658 1148.36 110.66 C 1144.06 124.413 1140.02 138.246 1136.25 152.152 C 1134.07 160.4 1125.01 198.595 1121.41 204.356 C 1118.42 204.947 1119.48 206.383 1116.01 208.032 C 1114.34 204.279 1113.07 155.445 1112.2 145.487 C 1110.91 129.726 1108.69 114.054 1105.57 98.5517 C 1101.09 76.1195 1094.21 54.2349 1085.04 33.2763 C 1079.95 21.8568 1073.91 11.8458 1069.38 0 z" fill="rgb(139,69,19)" transform="translate(0,0)"></path>
<path d="M 0 0 L 34.2061 0 L 159.984 0 C 133.492 55.0172 121.773 85.6196 115.965 148.933 C 114.894 161.241 114.076 173.57 113.514 185.912 C 113.255 191.396 113.057 202.953 112.114 207.872 L 110.087 208.536 C 99.2493 207.383 81.3989 207.962 70.0671 208.045 L 0 208.576 L 0 0 z" fill="rgb(26,10,0)" transform="translate(0,0)"></path>
<path d="M 34.2061 0 L 159.984 0 C 133.492 55.0172 121.773 85.6196 115.965 148.933 C 114.894 161.241 114.076 173.57 113.514 185.912 C 113.255 191.396 113.057 202.953 112.114 207.872 L 110.087 208.536 C 106.539 202.115 100.807 178.366 98.4864 170.499 C 85.321 125.868 74.1074 80.8237 53.2364 38.9201 C 46.8783 26.1545 39.6455 13.0812 34.2061 0 z" fill="rgb(139,69,19)" transform="translate(0,0)"></path>
<path d="M 366.102 1265.92 L 479.832 1266.22 L 478.978 1433.45 C 467.769 1433.43 378.021 1432.1 373.325 1435.08 C 372.916 1436.77 372.508 1438.21 372.278 1439.94 L 371.924 1437.27 L 371.081 1436.75 L 368.412 1439.19 L 367.739 1438.57 C 367.154 1432.17 367.018 1426.1 366.879 1419.69 C 365.771 1368.43 366.241 1317.19 366.102 1265.92 z" fill="rgb(26,107,58)" transform="translate(0,0)"></path>
<path d="M 393.856 1364.19 C 400.561 1365.51 415.476 1384.55 420.924 1390.61 C 424.303 1386.53 427.198 1382.78 431.254 1379.33 C 431.513 1385.86 424.31 1388.92 421.011 1394.94 C 416.289 1387.37 393.968 1368.57 393.856 1364.19 z" fill="rgb(231,243,241)" transform="translate(0,0)"></path>
<path d="M 411.647 1323.44 L 413.544 1325.28 C 409.55 1335.6 387.767 1347.64 388.847 1356.56 C 392.966 1360.14 393.32 1359.64 393.856 1364.19 C 391.213 1363.55 386.815 1358.12 384.13 1355.61 C 384.753 1352.01 406.226 1330.97 411.647 1323.44 z" fill="rgb(231,243,241)" transform="translate(0,0)"></path>
<path d="M 414.12 1320.32 C 417.502 1317.41 419.153 1315.92 422.09 1312.59 C 426.07 1319.62 440.689 1334.08 441.156 1336.42 L 440.901 1337.1 C 436.546 1336.04 425.51 1321.03 421.857 1317.43 C 418.929 1318.38 418.54 1320.28 416.448 1323.41 L 415.13 1323.15 L 414.12 1320.32 z" fill="rgb(231,243,241)" transform="translate(0,0)"></path>
<path d="M 409.342 1368.45 C 414.386 1370.02 416.084 1373.82 421.012 1377.52 C 425.553 1375.51 428.437 1367.11 434.868 1363.54 L 437.136 1364.6 C 432.573 1368.89 425.073 1376.66 421.169 1381.6 C 417.196 1378.21 410.03 1373.25 409.342 1368.45 z" fill="rgb(210,235,230)" transform="translate(0,0)"></path>
<path d="M 434.028 1377.71 C 435.55 1372.83 445.367 1363.63 449.422 1359.61 L 451.721 1359.84 C 449.909 1363.77 438.002 1376.3 434.028 1377.71 z" fill="rgb(210,235,230)" transform="translate(0,0)"></path>
<path d="M 445.785 1344.32 L 448.37 1343.68 C 452.794 1347.18 455.702 1348.93 456.942 1354.58 C 455.709 1357.34 454.871 1357.99 451.905 1359.13 L 451.427 1356.88 L 453.778 1353.84 C 452.717 1350.32 448.597 1347.02 445.785 1344.32 z" fill="rgb(210,235,230)" transform="translate(0,0)"></path>
<path d="M 399.11 1358.47 C 403.404 1359.2 406.14 1362.97 409.349 1366.62 L 409.342 1368.45 L 407.543 1368.07 C 404.705 1365.43 400.233 1361.91 399.11 1358.47 z" fill="rgb(231,243,241)" transform="translate(0,0)"></path>
<path d="M 428.621 1358.19 L 431.071 1359.18 L 431.421 1360.54 C 429.39 1362.79 427.731 1364.3 425.518 1366.31 L 424.574 1366.5 L 423.449 1365.29 C 426.036 1362.6 426.442 1362.13 428.225 1358.91 L 428.621 1358.19 z" fill="rgb(210,235,230)" transform="translate(0,0)"></path>
<path d="M 749.06 1266.48 C 759.426 1267.64 769.711 1266.92 780.027 1267.2 C 805.436 1267.89 831.627 1265.76 856.822 1266.13 L 856.831 1381.97 C 856.833 1392.12 857.599 1427.1 856.471 1435.89 C 853.319 1436.21 852.898 1434.26 850.214 1434.14 C 842.653 1431.7 762.097 1433.85 746.404 1432.93 C 747.389 1423.22 746.768 1398.28 746.691 1387.77 L 745.764 1295.52 C 745.742 1288.1 744.932 1275.04 746.328 1268.04 C 746.475 1267.31 748.079 1266.9 749.06 1266.48 z" fill="rgb(26,107,58)" transform="translate(0,0)"></path>
<path d="M 811.973 1370.12 C 814.22 1365.92 817.03 1364.86 816.384 1361.12 L 814.505 1360.82 C 810.478 1363.13 805.251 1369.87 800.759 1373.58 L 799.66 1372.92 C 800.842 1366.03 813.402 1361.14 815.859 1356.03 C 815.293 1352.15 811.321 1348.31 808.326 1345.93 L 805.707 1346.63 L 804.739 1345.95 L 806.394 1342.49 C 811.183 1342.95 818.557 1355.65 823.812 1359.16 C 817.16 1362.89 818.704 1370.37 811.973 1370.12 z" fill="rgb(210,235,230)" transform="translate(0,0)"></path>
<path d="M 801.338 1392.28 C 803.494 1389.65 812.941 1378.78 815.167 1377.89 L 815.546 1380.37 C 811.319 1385.85 805.98 1391.21 801.195 1396.27 C 797.999 1393.24 788.891 1385.23 787.991 1381.7 L 789.552 1380.52 C 793.313 1383.95 797.683 1388.6 801.338 1392.28 z" fill="rgb(231,243,241)" transform="translate(0,0)"></path>
<path d="M 773.463 1356.05 C 777.851 1352.01 787.858 1340.87 791.051 1338.56 L 793.894 1339.34 C 787.065 1345.48 783.447 1350.18 777.364 1356.43 C 781.51 1361.12 788.283 1365.9 790.003 1370 C 786.162 1369.58 776.801 1359.35 773.463 1356.05 z" fill="rgb(210,235,230)" transform="translate(0,0)"></path>
<path d="M 794.734 1323.06 C 795.783 1319.74 796.939 1318.86 799.318 1316.43 C 806.361 1314.8 820.469 1332.88 821.427 1337.36 L 820.318 1337.35 C 817.335 1335.88 815.082 1332.53 812.873 1329.85 C 809.759 1326.37 804.129 1318.85 799.311 1319.67 C 798.734 1321.45 798.644 1322.15 797.399 1323.59 L 794.734 1323.06 z" fill="rgb(231,243,241)" transform="translate(0,0)"></path>
<path d="M 822.175 1338.13 C 826.803 1339.5 835.04 1351.18 838.174 1355.41 C 835.095 1358.49 829.429 1365.31 826.574 1367.1 L 824.205 1367.05 C 826.268 1363.72 832.33 1357.25 835.17 1354.04 C 829.431 1348.51 825.088 1345.66 822.175 1338.13 z" fill="rgb(210,235,230)" transform="translate(0,0)"></path>
<path d="M 780.013 1370.97 C 779.286 1371.15 778.198 1371.17 777.408 1371.22 C 773.163 1367.12 765.933 1360.59 763.709 1355.44 L 764.411 1353.77 L 767.099 1353.03 C 768.908 1363.04 775.594 1362.17 780.013 1370.97 z" fill="rgb(231,243,241)" transform="translate(0,0)"></path>
<path d="M 790.003 1370 C 795.498 1372.13 796.594 1377.96 801.559 1379.43 L 802.368 1378.51 C 803.449 1377.29 804.108 1376.72 805.329 1375.65 L 807.002 1375.98 C 805.715 1380.44 804.508 1380.32 800.462 1384 C 797.342 1380.21 790.598 1373.84 790.003 1370 z" fill="rgb(210,235,230)" transform="translate(0,0)"></path>
<path d="M 767.099 1353.03 C 767.442 1349.2 773.919 1343.28 777 1340.85 L 779.072 1341.2 C 778.306 1344.61 772.272 1349.8 769.552 1352.46 L 767.099 1353.03 z" fill="rgb(210,235,230)" transform="translate(0,0)"></path>
<path d="M 779.637 1341.15 C 779.191 1339.82 779.289 1339.51 779.175 1338.08 C 782.226 1333.61 784.538 1330.18 790.193 1330.19 C 787.949 1332.72 782.142 1339.73 779.637 1341.15 z" fill="rgb(210,235,230)" transform="translate(0,0)"></path>
<path d="M 823.482 1367.53 L 825.309 1369.35 C 823.737 1372.91 819.955 1377.99 815.612 1377.35 C 816.324 1375.25 821.673 1369.63 823.482 1367.53 z" fill="rgb(210,235,230)" transform="translate(0,0)"></path>
<path d="M 780.013 1370.97 C 783.499 1373.2 786.428 1376.61 788.921 1379.91 C 783.093 1379.98 780.655 1376.3 780.013 1370.97 z" fill="rgb(231,243,241)" transform="translate(0,0)"></path>
<path d="M 1135.96 1374.19 L 1136.6 1373.67 L 1136.58 1463.08 C 1136.58 1476.99 1136.01 1497.07 1136.83 1510.75 L 1136.99 1516.93 L 1136.88 1548.29 C 1136.02 1551.29 1135.59 1552.13 1135.77 1555.17 C 1118.04 1556.15 1096.21 1555.57 1078.09 1555.49 C 1052.34 1555.43 1026.6 1555.52 1000.86 1555.77 C 1001.1 1553.59 1000.82 1550.18 1000.71 1547.89 C 999.163 1544.99 1001.53 1539.37 998.998 1534.87 C 997.579 1530.07 998.055 1522.34 998.109 1517.11 L 998.388 1510.67 C 998.252 1495.43 998.396 1480.19 998.821 1464.95 C 1019.24 1464.97 1041.4 1465.41 1061.68 1464.81 C 1082.99 1465.84 1114.37 1464.96 1136.39 1464.96 C 1136.47 1444.58 1136.35 1424.2 1136.03 1403.82 C 1136.16 1393.94 1136.13 1384.06 1135.96 1374.19 z" fill="rgb(107,0,0)" transform="translate(0,0)"></path>
<path d="M 998.388 1510.67 L 1091.1 1510.83 C 1102.52 1510.84 1126.43 1511.56 1136.83 1510.75 L 1136.99 1516.93 L 1136.88 1548.29 C 1136.02 1551.29 1135.59 1552.13 1135.77 1555.17 C 1118.04 1556.15 1096.21 1555.57 1078.09 1555.49 C 1052.34 1555.43 1026.6 1555.52 1000.86 1555.77 C 1001.1 1553.59 1000.82 1550.18 1000.71 1547.89 C 999.163 1544.99 1001.53 1539.37 998.998 1534.87 C 997.579 1530.07 998.055 1522.34 998.109 1517.11 L 998.388 1510.67 z" fill="rgb(107,0,0)" transform="translate(0,0)"></path>
<path d="M 1000.71 1547.89 C 1046.1 1547.7 1091.49 1547.84 1136.88 1548.29 C 1136.02 1551.29 1135.59 1552.13 1135.77 1555.17 C 1118.04 1556.15 1096.21 1555.57 1078.09 1555.49 C 1052.34 1555.43 1026.6 1555.52 1000.86 1555.77 C 1001.1 1553.59 1000.82 1550.18 1000.71 1547.89 z" fill="rgb(245,220,150)" transform="translate(0,0)"></path>
<path d="M 998.388 1510.67 L 1091.1 1510.83 C 1102.52 1510.84 1126.43 1511.56 1136.83 1510.75 L 1136.99 1516.93 L 998.109 1517.11 L 998.388 1510.67 z" fill="rgb(245,220,150)" transform="translate(0,0)"></path>
<path d="M 1012.6 1528.86 C 1033.23 1522.14 1027.62 1525.48 1046.96 1528.84 C 1053.35 1529.95 1063.55 1523.74 1075.13 1526.25 L 1074.43 1526.91 C 1076.57 1527.8 1078.9 1528.83 1081.05 1529.64 C 1080.82 1530.55 1080.27 1532.87 1079.95 1533.61 C 1069.17 1534.74 1066.62 1536.51 1057.01 1531.95 L 1056.73 1532.1 C 1055.81 1532.03 1055.33 1531.97 1054.51 1531.51 C 1047.98 1527.9 1044.19 1532.27 1039.73 1536.74 C 1034.92 1537.13 1029.43 1537.07 1024.56 1537.14 C 1020.81 1534.91 1016.23 1531.44 1012.6 1528.86 z" fill="rgb(26,10,0)" transform="translate(0,0)"></path>
<path d="M 1074.43 1526.91 C 1076.57 1527.8 1078.9 1528.83 1081.05 1529.64 C 1080.82 1530.55 1080.27 1532.87 1079.95 1533.61 C 1069.17 1534.74 1066.62 1536.51 1057.01 1531.95 L 1056.4 1530.03 C 1059.4 1527.17 1069.98 1527.16 1074.43 1526.91 z" fill="rgb(245,220,150)" transform="translate(0,0)"></path>
<path d="M 1021.04 1527.28 C 1025.91 1526.8 1041.35 1525.24 1041.86 1531.73 L 1039.19 1534.58 C 1033.18 1534.92 1022.63 1535.7 1018.14 1530.79 L 1018.44 1528.91 L 1021.04 1527.28 z" fill="rgb(245,220,150)" transform="translate(0,0)"></path>
<path d="M 1096.18 1529.85 C 1103.49 1527.92 1112.1 1526.14 1118.91 1530.44 L 1118.83 1532.13 C 1114.68 1534.91 1108.71 1534.57 1103.7 1534.7 C 1099.9 1533.02 1099.3 1532.46 1096.18 1529.85 z" fill="rgb(245,220,150)" transform="translate(0,0)"></path>
<path d="M 1081.05 1529.64 C 1082.84 1529.75 1096.46 1529.91 1096.18 1529.85 C 1099.3 1532.46 1099.9 1533.02 1103.7 1534.7 L 1103.19 1535.01 C 1096.56 1535.63 1093.63 1527.86 1079.95 1533.61 C 1080.27 1532.87 1080.82 1530.55 1081.05 1529.64 z" fill="rgb(26,10,0)" transform="translate(0,0)"></path>
<path d="M 873.757 555.817 C 924.268 555.573 980.996 554.536 1031.03 555.523 C 1031.08 561.52 1032.17 598.915 1030 601.829 C 1024.13 606.727 998.527 634.384 996.377 640.916 L 979.958 640.695 L 973.788 640.658 C 959.615 641.097 943.628 640.755 929.316 640.75 L 923.615 640.725 L 908.569 640.808 C 907.022 635.75 879.269 607.138 873.86 601.426 L 873.757 555.817 z" fill="rgb(212,175,55)" transform="translate(0,0)"></path>
<path d="M 873.86 601.426 L 979.712 601.479 C 993.736 601.54 1016.94 602.529 1030 601.829 C 1024.13 606.727 998.527 634.384 996.377 640.916 L 979.958 640.695 L 973.788 640.658 C 959.615 641.097 943.628 640.755 929.316 640.75 L 923.615 640.725 L 908.569 640.808 C 907.022 635.75 879.269 607.138 873.86 601.426 z" fill="rgb(139,69,19)" transform="translate(0,0)"></path>
<path d="M 233.389 1453.61 C 233.553 1462.63 233.401 1505.07 234.479 1510.63 C 234.971 1514.06 234.704 1514.79 233.921 1518.2 C 233.789 1520.43 233.527 1527.13 232.995 1528.87 C 229.768 1529.95 229.356 1530.02 225.975 1529.66 L 222.574 1529.41 C 216.042 1534.14 208.823 1536.07 201.136 1537.74 C 195.861 1535.93 191.41 1533.76 186.39 1531.41 C 182.363 1529.52 181.931 1530.46 177.968 1531.95 L 176.885 1530.88 C 171.13 1533.42 168.555 1534.15 162.422 1535.69 C 158.012 1534.19 153.473 1532.71 149.154 1530.99 L 148.842 1531.13 C 145.904 1530.63 142.244 1531.11 139.063 1531.16 C 136.313 1531.99 133.556 1532.8 130.793 1533.59 C 121.827 1536.04 118.775 1535.13 111.097 1530.73 L 110.223 1531.22 C 108.874 1529.58 109.029 1529.56 107.033 1528.93 C 105.32 1530.33 104.891 1530.61 102.73 1531.06 C 99.4729 1530.07 96.455 1529.27 93.4443 1527.64 L 93.8042 1518.93 L 93.469 1517.26 L 93.5094 1510.76 C 93.4024 1496.14 93.4887 1481.53 93.7684 1466.92 L 137.917 1466.16 L 187.003 1466 C 200.89 1465.99 219.79 1466.54 233.27 1465.82 L 233.389 1453.61 z" fill="rgb(107,0,0)" transform="translate(0,0)"></path>
<path d="M 232.977 1518.02 L 233.921 1518.2 C 233.789 1520.43 233.527 1527.13 232.995 1528.87 C 229.768 1529.95 229.356 1530.02 225.975 1529.66 L 222.574 1529.41 C 216.042 1534.14 208.823 1536.07 201.136 1537.74 C 195.861 1535.93 191.41 1533.76 186.39 1531.41 C 182.363 1529.52 181.931 1530.46 177.968 1531.95 L 176.885 1530.88 C 171.13 1533.42 168.555 1534.15 162.422 1535.69 C 158.012 1534.19 153.473 1532.71 149.154 1530.99 L 148.842 1531.13 C 145.904 1530.63 142.244 1531.11 139.063 1531.16 C 136.313 1531.99 133.556 1532.8 130.793 1533.59 C 121.827 1536.04 118.775 1535.13 111.097 1530.73 L 110.223 1531.22 C 108.874 1529.58 109.029 1529.56 107.033 1528.93 C 105.32 1530.33 104.891 1530.61 102.73 1531.06 C 99.4729 1530.07 96.455 1529.27 93.4443 1527.64 L 93.8042 1518.93 L 191.553 1519.02 C 198.392 1518.99 227.877 1519.2 232.977 1518.02 z" fill="rgb(107,0,0)" transform="translate(0,0)"></path>
<path d="M 125.828 1524.14 C 144.979 1530.65 145.709 1530 165.261 1524.42 C 167.758 1525.44 174.669 1528.3 177.064 1528.12 C 184.793 1527.53 229.8 1523.97 232.995 1528.87 C 229.768 1529.95 229.356 1530.02 225.975 1529.66 L 222.574 1529.41 C 216.042 1534.14 208.823 1536.07 201.136 1537.74 C 195.861 1535.93 191.41 1533.76 186.39 1531.41 C 182.363 1529.52 181.931 1530.46 177.968 1531.95 L 176.885 1530.88 C 171.13 1533.42 168.555 1534.15 162.422 1535.69 C 158.012 1534.19 153.473 1532.71 149.154 1530.99 L 148.842 1531.13 C 145.904 1530.63 142.244 1531.11 139.063 1531.16 C 136.313 1531.99 133.556 1532.8 130.793 1533.59 C 121.827 1536.04 118.775 1535.13 111.097 1530.73 L 110.223 1531.22 C 108.874 1529.58 109.029 1529.56 107.033 1528.93 C 105.32 1530.33 104.891 1530.61 102.73 1531.06 C 99.4729 1530.07 96.455 1529.27 93.4443 1527.64 C 107.384 1526.57 111.603 1527.66 125.828 1524.14 z" fill="rgb(26,10,0)" transform="translate(0,0)"></path>
<path d="M 111.097 1530.73 C 120.182 1525.2 130.171 1525.02 139.063 1531.16 C 136.313 1531.99 133.556 1532.8 130.793 1533.59 C 121.827 1536.04 118.775 1535.13 111.097 1530.73 z" fill="rgb(245,220,150)" transform="translate(0,0)"></path>
<path d="M 164.961 1526.13 L 176.885 1530.88 C 171.13 1533.42 168.555 1534.15 162.422 1535.69 C 158.012 1534.19 153.473 1532.71 149.154 1530.99 C 153.346 1528.83 160.217 1527.35 164.961 1526.13 z" fill="rgb(245,220,150)" transform="translate(0,0)"></path>
<path d="M 199.023 1527.23 C 203.39 1526.16 213.241 1526.7 215.37 1531.07 C 212.954 1533.76 210.982 1533.55 206.953 1534.68 C 197.433 1535.45 196.137 1534.48 187.4 1530.06 C 190.863 1529.06 195.432 1528.1 199.023 1527.23 z" fill="rgb(245,220,150)" transform="translate(0,0)"></path>
<path d="M 93.5094 1510.76 L 234.479 1510.63 C 234.971 1514.06 234.704 1514.79 233.921 1518.2 L 232.977 1518.02 C 227.877 1519.2 198.392 1518.99 191.553 1519.02 L 93.8042 1518.93 L 93.469 1517.26 L 93.5094 1510.76 z" fill="rgb(245,220,150)" transform="translate(0,0)"></path>
<path d="M 93.469 1517.26 C 108.537 1517.03 228.557 1515.76 232.977 1518.02 C 227.877 1519.2 198.392 1518.99 191.553 1519.02 L 93.8042 1518.93 L 93.469 1517.26 z" fill="rgb(26,10,0)" transform="translate(0,0)"></path>
<path d="M 197.256 555.723 C 247.835 555.761 305.113 554.417 355.005 555.827 C 355.039 562.802 355.977 597.158 353.845 600.724 C 338.324 601.762 312.583 600.951 296.445 600.968 C 263.829 601.129 231.213 601.096 198.597 600.869 C 196.028 596.979 197.2 562.596 197.256 555.723 z" fill="rgb(212,175,55)" transform="translate(0,0)"></path>
<path d="M 233.205 637.661 C 238.847 637.896 244.494 637.956 250.138 637.84 C 250.099 666.261 250.664 697.078 249.945 725.297 C 257.284 731.445 264.801 737.623 272.036 743.872 C 264.968 750.491 257.355 757.905 249.999 764.076 L 250.06 872.928 C 257.066 879.272 264.318 884.855 271.74 890.678 C 264.382 896.817 257.151 903.106 250.049 909.54 L 250.025 930.911 L 234.198 932.535 C 234.226 943.272 235.491 1008.98 233.658 1014.65 L 233.097 1008.91 C 233.831 996.846 233.379 979.805 233.38 967.389 L 233.359 892.772 L 233.451 876.051 C 234.08 860.583 233.733 842.832 233.771 827.195 C 232.222 777.309 233.518 726.933 232.9 676.999 C 232.74 664.115 232.632 650.511 233.205 637.661 z" fill="rgb(212,175,55)" transform="translate(0,0)"></path>
<path d="M 491.422 1270.48 L 509.839 1270.34 C 509.682 1286.88 511.312 1431.11 508.926 1434.8 L 506.25 1435.14 L 486.943 1435.12 C 486.945 1418.37 485.321 1275.87 488.011 1271.25 L 491.422 1270.48 z" fill="rgb(212,175,55)" transform="translate(0,0)"></path>
<path d="M 714.01 1270.87 C 721.025 1270.65 728.944 1270.83 736.036 1270.84 L 736.175 1434.73 C 728.769 1435 721.357 1435.08 713.947 1434.97 C 713.254 1417.05 713.773 1394.89 713.798 1376.77 L 714.01 1270.87 z" fill="rgb(212,175,55)" transform="translate(0,0)"></path>
<path d="M 566.232 1178.36 C 576.769 1178.05 601.776 1174.32 607.467 1185.48 C 613.562 1197.44 612.246 1211.82 600.169 1219.52 C 591.179 1220.65 562.79 1223.01 558.374 1212.7 C 553.106 1200.39 553.463 1185.65 566.232 1178.36 z" fill="rgb(212,175,55)" transform="translate(0,0)"></path>
<path d="M 595.894 1135.04 C 605.774 1134.88 617.697 1134.02 627.351 1134.96 C 641.717 1136.35 642.524 1153.62 639.866 1164.36 C 638.473 1169.99 635.186 1172.1 630.488 1174.87 C 619.707 1175.25 607.238 1174.96 596.326 1174.97 C 590.898 1171.41 589.843 1170.39 586.154 1165.14 C 584.728 1151.45 582.904 1143.31 595.894 1135.04 z" fill="rgb(212,175,55)" transform="translate(0,0)"></path>
<path d="M 627.302 1178.42 C 637.335 1177.92 648.043 1178.16 658.144 1178.22 C 672.089 1189.45 675.013 1212.13 656.693 1219.87 C 646.131 1219.91 620.924 1223.71 616.424 1210.79 C 611.928 1197.88 613.978 1184.79 627.302 1178.42 z" fill="rgb(212,175,55)" transform="translate(0,0)"></path>
<path d="M 682.874 1179.04 C 690.306 1178.97 707.709 1177.97 714.395 1179.33 C 730.101 1182.53 731.748 1210.61 717.495 1219.13 C 709.568 1220.35 697.323 1220.44 689.269 1219.95 C 668.177 1218.69 667.704 1189.64 682.874 1179.04 z" fill="rgb(212,175,55)" transform="translate(0,0)"></path>
<path d="M 571.234 1089.4 C 578.465 1089.22 599.154 1088.03 603.952 1090.92 C 616.305 1098.37 614.35 1125.15 599.138 1130.04 C 590.183 1130.22 581.637 1130.44 572.546 1130.02 C 555.073 1129.23 555.137 1105.89 561.499 1094.54 C 563.516 1090.94 567.472 1090.1 571.234 1089.4 z" fill="rgb(212,175,55)" transform="translate(0,0)"></path>
<path d="M 731.773 1224.01 C 736.408 1224.02 743.544 1223.76 747.847 1224.79 C 760.439 1234.8 760.06 1253.09 748.89 1263.93 C 735.699 1263.39 722.024 1263.96 708.713 1263.73 C 704.916 1259.72 703.119 1257.17 702.641 1251.64 C 700.309 1224.62 709.272 1224.45 731.773 1224.01 z" fill="rgb(212,175,55)" transform="translate(0,0)"></path>
<path d="M 510.736 1179.19 C 516.24 1179.09 535.738 1177.88 539.882 1179.34 C 557.147 1185.41 556.447 1212.13 540.723 1219.96 C 533.325 1219.85 512.824 1221.33 507.512 1218.39 C 493.522 1210.66 494.238 1184.98 510.736 1179.19 z" fill="rgb(212,175,55)" transform="translate(0,0)"></path>
<path d="M 644.039 1253.71 C 643.373 1233.67 642.623 1223.16 667.213 1223.59 C 679.542 1223.81 695.402 1221.32 697.57 1238.25 C 698.706 1247.23 699.124 1259.51 688.883 1263.54 C 676.935 1263.66 664.987 1263.64 653.039 1263.49 C 648.273 1260.4 647.175 1258.49 644.039 1253.71 z" fill="rgb(212,175,55)" transform="translate(0,0)"></path>
<path d="M 536.787 1135.18 C 544.753 1134.97 559.431 1133.74 566.85 1134.8 C 586.012 1137.52 586.145 1164.77 570.439 1174.16 C 566.94 1174.97 564.117 1174.77 560.753 1174.94 C 538.78 1176.05 522.43 1176.46 527.581 1148.33 C 528.855 1141.38 530.723 1139.1 536.787 1135.18 z" fill="rgb(212,175,55)" transform="translate(0,0)"></path>
<path d="M 655.82 1135.15 C 665.766 1134.96 679.329 1134 688.973 1135.7 C 701.116 1137.84 701.419 1155.66 698.39 1164.73 C 696.386 1170.73 694.792 1171.9 689.386 1174.87 C 666.505 1174.81 640.311 1181.59 646.412 1146.12 C 647.372 1140.54 651.442 1138.01 655.82 1135.15 z" fill="rgb(212,175,55)" transform="translate(0,0)"></path>
<path d="M 537.945 1224.22 C 556.182 1223.93 570.264 1218.76 580.846 1236.16 C 581.254 1246.46 583.852 1259.97 571.25 1263.44 C 559.962 1263.1 534.779 1267.42 529.685 1257.24 C 523.41 1244.7 526.583 1231.66 537.945 1224.22 z" fill="rgb(212,175,55)" transform="translate(0,0)"></path>
<path d="M 597.692 1224.2 C 626.975 1223.3 640.869 1219.04 637.964 1254.85 C 635.055 1259.08 633.159 1262.38 628.093 1263.96 C 618.374 1263.24 604.583 1263.52 594.472 1263.36 C 591.375 1261.01 588.949 1258.29 586.264 1255.49 C 584.966 1240.91 582.112 1230.83 597.692 1224.2 z" fill="rgb(212,175,55)" transform="translate(0,0)"></path>
<path d="M 626.674 1090.24 C 632.066 1090.04 654.5 1088.63 658.373 1090.34 C 671.551 1096.17 671.987 1122.52 658.093 1130.05 C 647.204 1130.24 636.313 1130.18 625.427 1129.87 C 621.128 1126.2 619.629 1124.32 616.037 1119.88 C 615.647 1107.48 612.455 1095.05 626.674 1090.24 z" fill="rgb(212,175,55)" transform="translate(0,0)"></path>
<path d="M 456.028 1179.45 C 462.826 1179.3 481.685 1178.23 486.369 1181.07 C 500.019 1189.35 499.206 1214.97 482.069 1219.81 C 466.654 1219.32 454.684 1224.71 444.152 1211.15 C 442.815 1198.84 440.101 1182.7 456.028 1179.45 z" fill="rgb(212,175,55)" transform="translate(0,0)"></path>
<path d="M 485.241 1224.48 C 494.8 1224.26 502.967 1224.15 512.501 1224.58 C 517.277 1228.71 518.309 1229.72 521.884 1234.86 C 522.023 1239.01 522.106 1243.15 522.133 1247.3 C 522.128 1257.54 519.686 1264.11 508.25 1263.71 C 501.875 1263.56 479.699 1265.19 476.062 1262.07 C 463.569 1251.32 467.171 1227.35 485.241 1224.48 z" fill="rgb(212,175,55)" transform="translate(0,0)"></path>
<path d="M 597.666 1046.22 C 605.452 1046.03 623.903 1044.83 630.423 1047.12 C 643.046 1051.54 643.6 1080.23 629.771 1085.42 C 620.042 1086.38 608.097 1085.98 598.152 1085.9 C 583.42 1076.93 583.16 1055.57 597.666 1046.22 z" fill="rgb(212,175,55)" transform="translate(0,0)"></path>
<path d="M 730.876 1189.33 C 736.782 1181.85 739.545 1180.63 749.077 1179.51 C 763.691 1177.79 781.315 1179.75 782.78 1197.85 C 783.516 1206.94 780.15 1214.08 773.67 1220.16 L 764.826 1220.62 C 750.223 1220.06 739.533 1223.76 730.962 1209.66 C 730.489 1201.84 730.47 1197.15 730.876 1189.33 z" fill="rgb(212,175,55)" transform="translate(0,0)"></path>
<path d="M 422.733 1225.02 C 432.278 1224.52 447.268 1224.72 456.623 1225.18 C 460.344 1228.72 461.88 1231.01 464.889 1235.2 C 465.231 1248.56 467.08 1254.74 456.204 1263.9 C 441.103 1263.68 413.141 1270.35 413.505 1248.74 C 413.702 1237.02 412.159 1231.81 422.733 1225.02 z" fill="rgb(212,175,55)" transform="translate(0,0)"></path>
<path d="M 770.836 1225.07 C 778.304 1224.9 798.296 1223.64 804.069 1226 C 813.721 1229.95 817.684 1259.79 803.85 1263.64 C 792.791 1263.39 782.253 1264.97 771.64 1263.54 C 766.404 1262.84 764.756 1259.95 761.949 1255.85 C 761.029 1242.25 758.153 1233.37 770.836 1225.07 z" fill="rgb(212,175,55)" transform="translate(0,0)"></path>
<metadata><recraft-signature>{"signed_by": "recraft", "signature_b64": "gJJIq7WiphJRiCfQKDH4NgSE2CY/zsOwoyAlfiyKId93VdQbJl8t6vf1hYqX/4tlIwUuCM00VO1Rx7RwtwWCCg==", "signing_algo": "Ed25519", "generation_timestamp": 1773628343, "identifier": "f3145e71-2771-4f62-b98f-5174c1bcebca"}</recraft-signature></metadata></svg>